<?xml version="1.0" encoding="utf-8"?>
<!-- Generator: Adobe Illustrator 24.0.3, SVG Export Plug-In . SVG Version: 6.00 Build 0)  -->
<svg version="1.1" id="Layer_1" xmlns="http://www.w3.org/2000/svg" xmlns:xlink="http://www.w3.org/1999/xlink" x="0px" y="0px"
	 viewBox="0 0 2000 1650" style="enable-background:new 0 0 2000 1650;" xml:space="preserve">
<style type="text/css">
	.st0{opacity:0.5;fill:url(#SVGID_1_);}
	.st1{opacity:0.5;fill:url(#SVGID_2_);}
	.st2{opacity:0.5;fill:url(#SVGID_3_);}
	.st3{fill:url(#SVGID_4_);}
	.st4{fill:url(#SVGID_5_);}
	.st5{fill:url(#SVGID_6_);}
	.st6{fill:url(#SVGID_7_);}
	.st7{fill:url(#SVGID_8_);}
	.st8{fill:url(#SVGID_9_);}
	.st9{fill:url(#SVGID_10_);}
	.st10{fill:url(#SVGID_11_);}
	.st11{fill:url(#SVGID_12_);}
	.st12{fill:url(#SVGID_13_);}
	.st13{fill:url(#SVGID_14_);}
	.st14{fill:url(#SVGID_15_);}
	.st15{fill:url(#SVGID_16_);}
	.st16{fill:url(#SVGID_17_);}
	.st17{fill:url(#SVGID_18_);}
	.st18{fill:url(#SVGID_19_);}
	.st19{fill:url(#SVGID_20_);}
	.st20{fill:url(#SVGID_21_);}
	.st21{fill:url(#SVGID_22_);}
	.st22{fill:url(#SVGID_23_);}
	.st23{fill:url(#SVGID_24_);}
	.st24{fill:url(#SVGID_25_);}
	.st25{fill:url(#SVGID_26_);}
	.st26{fill:url(#SVGID_27_);}
	.st27{fill:url(#SVGID_28_);}
	.st28{fill:url(#SVGID_29_);}
	.st29{fill:url(#SVGID_30_);}
	.st30{fill:url(#SVGID_31_);}
	.st31{fill:url(#SVGID_32_);}
	.st32{fill:url(#SVGID_33_);}
	.st33{fill:url(#SVGID_34_);}
	.st34{fill:url(#SVGID_35_);}
	.st35{fill:url(#SVGID_36_);}
	.st36{fill:url(#SVGID_37_);}
	.st37{fill:url(#SVGID_38_);}
	.st38{fill:url(#SVGID_39_);}
	.st39{fill:url(#SVGID_40_);}
	.st40{fill:url(#SVGID_41_);}
	.st41{fill:url(#SVGID_42_);}
	.st42{fill:url(#SVGID_43_);}
	.st43{fill:#F5F8FA;}
	.st44{fill:url(#SVGID_44_);}
	.st45{fill:url(#SVGID_45_);}
	.st46{fill:url(#SVGID_46_);}
	.st47{fill:url(#SVGID_47_);}
	.st48{fill:url(#SVGID_48_);}
	.st49{fill:url(#SVGID_49_);}
	.st50{fill:url(#SVGID_50_);}
	.st51{fill:url(#SVGID_51_);}
	.st52{fill:url(#SVGID_52_);}
	.st53{fill:url(#SVGID_53_);}
	.st54{fill:none;stroke:#0E2835;stroke-width:3;stroke-linecap:round;stroke-linejoin:round;stroke-miterlimit:10;}
	.st55{fill:url(#SVGID_54_);}
	.st56{fill:url(#SVGID_55_);}
	.st57{fill:url(#SVGID_56_);}
	.st58{fill:url(#SVGID_57_);}
	.st59{fill:url(#SVGID_58_);}
	.st60{fill:url(#SVGID_59_);}
	.st61{fill:url(#SVGID_60_);}
	.st62{fill:url(#SVGID_61_);}
	.st63{fill:url(#SVGID_62_);}
	.st64{fill:url(#SVGID_63_);}
	.st65{fill:url(#SVGID_64_);}
	.st66{fill:url(#SVGID_65_);}
	.st67{fill:url(#SVGID_66_);}
	.st68{fill:url(#SVGID_67_);}
	.st69{fill:url(#SVGID_68_);}
	.st70{fill:url(#SVGID_69_);}
	.st71{fill:url(#SVGID_70_);}
	.st72{fill:url(#SVGID_71_);}
	.st73{fill:url(#SVGID_72_);}
	.st74{fill:url(#SVGID_73_);}
	.st75{fill:url(#SVGID_74_);}
	.st76{fill:url(#SVGID_75_);}
	.st77{fill:url(#SVGID_76_);}
	.st78{fill:url(#SVGID_77_);}
	.st79{fill:url(#SVGID_78_);}
	.st80{fill:url(#SVGID_79_);}
	.st81{fill:url(#SVGID_80_);}
	.st82{fill:url(#SVGID_81_);}
	.st83{fill:url(#SVGID_82_);}
	.st84{fill:none;stroke:#FFFFFF;stroke-width:5;stroke-linecap:round;stroke-linejoin:round;stroke-miterlimit:10;}
	.st85{fill:url(#SVGID_83_);}
	.st86{fill:url(#SVGID_84_);}
	.st87{fill:url(#SVGID_85_);}
	.st88{fill:url(#SVGID_86_);}
	.st89{fill:url(#SVGID_87_);}
	.st90{fill:url(#SVGID_88_);}
	.st91{fill:url(#SVGID_89_);}
	.st92{fill:url(#SVGID_90_);}
	.st93{fill:url(#SVGID_91_);}
	.st94{fill:url(#SVGID_92_);}
	.st95{fill:url(#SVGID_93_);}
	.st96{fill:url(#SVGID_94_);}
	.st97{fill:url(#SVGID_95_);}
	.st98{fill:url(#SVGID_96_);}
	.st99{fill:url(#SVGID_97_);}
	.st100{fill:url(#SVGID_98_);}
	.st101{fill:url(#SVGID_99_);}
	.st102{fill:url(#SVGID_100_);}
	.st103{fill:url(#SVGID_101_);}
	.st104{fill:#FFFFFF;stroke:#231F20;stroke-width:1.8633;stroke-miterlimit:10;}
	.st105{fill:url(#SVGID_102_);}
	.st106{fill:url(#SVGID_103_);}
	.st107{fill:url(#SVGID_104_);}
	.st108{fill:url(#SVGID_105_);}
	.st109{fill:url(#SVGID_106_);}
	.st110{fill:url(#SVGID_107_);}
	.st111{fill:url(#SVGID_108_);}
	.st112{fill:none;stroke:#46BFCE;stroke-width:3;stroke-linecap:round;stroke-linejoin:round;stroke-miterlimit:10;}
	.st113{fill:url(#SVGID_109_);}
	.st114{fill:url(#SVGID_110_);}
	.st115{fill:url(#SVGID_111_);}
	.st116{fill:url(#SVGID_112_);}
	.st117{fill:url(#SVGID_113_);}
	.st118{fill:url(#SVGID_114_);}
	.st119{fill:url(#SVGID_115_);}
	.st120{fill:url(#SVGID_116_);}
</style>
<g>
	<g>
		<linearGradient id="SVGID_1_" gradientUnits="userSpaceOnUse" x1="504.0082" y1="25.5689" x2="1451.5155" y2="1273.2183">
			<stop  offset="0" style="stop-color:#DDF1F8"/>
			<stop  offset="1" style="stop-color:#ACD0DE"/>
		</linearGradient>
		<path class="st0" d="M1506.2,707.8c70-122.4,151-420-3.6-511.3s-169.3,87.9-169.3,87.9S1167.8-23.2,711.5,118.8
			s-242.8,500.4-40.5,541c0,0-239.2,33.8-301.7,182.6s224.4,148.8,224.4,148.8s-143.5,118.3-88.3,199.5s379,131.9,625.5-27
			c0,0-147.2,148.8,7.4,155.5c154.5,6.8,327.5-257,323.8-446.3c0,0,47.9-10.3,67.3-73.7C1548.9,735.6,1506.2,707.8,1506.2,707.8z"/>
		<linearGradient id="SVGID_2_" gradientUnits="userSpaceOnUse" x1="139.6744" y1="261.1522" x2="1126.1968" y2="1560.1754">
			<stop  offset="0" style="stop-color:#DDF1F8"/>
			<stop  offset="1" style="stop-color:#ACD0DE"/>
		</linearGradient>
		<path class="st1" d="M417.5,607.4c-106.3,17.6-103.7,95.3,23,72S532.7,588.3,417.5,607.4z"/>
		<linearGradient id="SVGID_3_" gradientUnits="userSpaceOnUse" x1="956.0929" y1="-290.9286" x2="1911.8191" y2="967.5431">
			<stop  offset="0" style="stop-color:#DDF1F8"/>
			<stop  offset="1" style="stop-color:#ACD0DE"/>
		</linearGradient>
		<path class="st2" d="M1260.9,75.8C1188.3,55,1201,135.1,1277,169S1334.7,97,1260.9,75.8z"/>
		
			<linearGradient id="SVGID_4_" gradientUnits="userSpaceOnUse" x1="478.5253" y1="53.8615" x2="1414.6216" y2="1286.4851" gradientTransform="matrix(0.9963 8.583069e-02 -8.583069e-02 0.9963 62.6292 -87.4045)">
			<stop  offset="0" style="stop-color:#DDF1F8"/>
			<stop  offset="1" style="stop-color:#ACD0DE"/>
		</linearGradient>
		<path class="st3" d="M1320.3,872.9c0,0,64.6-49.9,35.1-118.3c0,0,25.2-354-306.6-435.3s-352,262-95.3,377.8
			c0,0-305.2-24.2-318.6,117.9s323.8,124.7,323.8,124.7s-217.7,107.5-141.1,227.4S1326.5,1104.6,1320.3,872.9z"/>
	</g>
	<g>
		<g>
			<linearGradient id="SVGID_5_" gradientUnits="userSpaceOnUse" x1="1269.2738" y1="349.5439" x2="1407.4043" y2="558.8979">
				<stop  offset="0" style="stop-color:#F58B6B"/>
				<stop  offset="1" style="stop-color:#F05A30"/>
			</linearGradient>
			<path class="st4" d="M1397.7,214.5c0,0.1-0.1,0.2-0.1,0.3c-0.1,0.2-0.2,0.5-0.4,0.7c-2.6,5.2-6.6,12.1-11.9,19.4
				c-9.5,13.1-23.5,27.7-43,37.6c0,0-13.7,105-35.3,174.6c0,0-57.9,62.8-115.8,105l-35.2-46.1l-21.7-28.5c0,0,61.3-47.9,122.2-79.3
				l59.3-138.5c0,0-18.7-46.7-13.8-52.1c0.1-0.1,0.2-0.2,0.3-0.2c5.8-4.1,21.8,28.5,21.8,28.5s10.7-41.5,23-68
				c1.3-2.9,5-3.9,7.6-2.2l0.2,0.1c0.6,0.4,1.1,0.9,1.5,1.5c0.9,1.3,1.1,3.1,0.6,4.7l-9.4,27c0,0,0.9,0.7,2.4,2.1c0,0,0,0,0-0.1
				c0,0,0.1-0.1,0.1-0.2l10.7-22.6c1.5-3.2,5.6-4,8.2-1.7l0.1,0.1c1.7,1.5,2.3,3.9,1.5,6l-0.2,0.5L1360,210c1.4,1.3,2.9,2.6,4.4,4.1
				l0.3-0.6l11.4-19.4c2-3.4,6.7-3.7,9.1-0.7l0.1,0.1c1.1,1.4,1.5,3.2,1,4.9c-0.1,0.3-0.2,0.7-0.4,1l-12,23.9
				c1.3,1.3,2.6,2.6,3.9,3.9c0,0,0,0,0,0v0l13.8-16.2c1.6-1.9,4.6-1.6,5.9,0.6c0,0,0,0,0,0.1C1398,212.4,1398.1,213.5,1397.7,214.5z
				"/>
			<linearGradient id="SVGID_6_" gradientUnits="userSpaceOnUse" x1="1322.8546" y1="178.4322" x2="1372.7415" y2="255.7848">
				<stop  offset="0" style="stop-color:#FAC69A"/>
				<stop  offset="1" style="stop-color:#000000"/>
			</linearGradient>
			<path class="st5" d="M1350.7,169.7c-6.7,7.2-25.3,75.9-25.3,75.9s-15.2-29-23.3-37.9c0.1-0.1,0.2-0.2,0.3-0.2
				c5.8-4.1,21.8,28.5,21.8,28.5s10.7-41.5,23-68c1.3-2.9,5-3.9,7.6-2.2l0.2,0.1c0.6,0.4,1.1,0.9,1.5,1.5
				C1355.1,166.7,1353.2,167,1350.7,169.7z"/>
			<linearGradient id="SVGID_7_" gradientUnits="userSpaceOnUse" x1="1344.2477" y1="164.6352" x2="1394.1345" y2="241.9878">
				<stop  offset="0" style="stop-color:#FAC69A"/>
				<stop  offset="1" style="stop-color:#000000"/>
			</linearGradient>
			<path class="st6" d="M1363.5,179.9c-3.6,3.1-12.2,19-13.3,20.9l10.7-22.6c1.5-3.2,5.6-4,8.2-1.7l0.1,0.1c1.7,1.5,2.3,3.9,1.5,6
				l-0.2,0.5C1369.5,178.9,1366.5,177.3,1363.5,179.9z"/>
			<linearGradient id="SVGID_8_" gradientUnits="userSpaceOnUse" x1="1347.915" y1="162.27" x2="1397.8019" y2="239.6226">
				<stop  offset="0" style="stop-color:#FAC69A"/>
				<stop  offset="1" style="stop-color:#000000"/>
			</linearGradient>
			<path class="st7" d="M1364.4,214.6c0.1-0.2,0.2-0.6,0.3-1.2l11.4-19.4c2-3.4,6.7-3.7,9.1-0.7l0.1,0.1c1.1,1.4,1.5,3.2,1,4.9
				c-1.2-2.5-3.6-4.5-6.2-3C1376.5,197.4,1365.7,212.1,1364.4,214.6z"/>
			<linearGradient id="SVGID_9_" gradientUnits="userSpaceOnUse" x1="1350.0438" y1="160.8971" x2="1399.9307" y2="238.2497">
				<stop  offset="0" style="stop-color:#FAC69A"/>
				<stop  offset="1" style="stop-color:#000000"/>
			</linearGradient>
			<path class="st8" d="M1397.7,214.5c-1.2-1.7-2.7-3.1-4.1-2.1c-2.8,2-15,13.9-15.8,14.7v0l13.8-16.2c1.6-1.9,4.6-1.6,5.9,0.6
				c0,0,0,0,0,0.1C1398,212.4,1398.1,213.5,1397.7,214.5z"/>
			<linearGradient id="SVGID_10_" gradientUnits="userSpaceOnUse" x1="1269.0549" y1="319.0387" x2="1317.8641" y2="349.2539">
				<stop  offset="0" style="stop-color:#FAC69A"/>
				<stop  offset="1" style="stop-color:#000000"/>
			</linearGradient>
			<path class="st9" d="M1318.2,272.2c-4.1-1.7-54.9,116.8-48.7,124.2C1275.6,403.9,1325.7,275.3,1318.2,272.2z"/>
			<linearGradient id="SVGID_11_" gradientUnits="userSpaceOnUse" x1="1224.5461" y1="402.9425" x2="1244.6826" y2="440.1949">
				<stop  offset="0" style="stop-color:#FAC69A"/>
				<stop  offset="1" style="stop-color:#000000"/>
			</linearGradient>
			<path class="st10" d="M1256.6,407.2c-3.4-4.3-45.3,23.9-44.1,28.7S1267.6,420.8,1256.6,407.2z"/>
			<linearGradient id="SVGID_12_" gradientUnits="userSpaceOnUse" x1="1268.5698" y1="329.645" x2="1333.765" y2="580.6462">
				<stop  offset="0" style="stop-color:#F6F8FC"/>
				<stop  offset="1" style="stop-color:#9C3A21"/>
			</linearGradient>
			<path class="st11" d="M1397.2,215.5c-2.6,5.2-6.6,12.1-11.9,19.4c-9.5,13.1-23.5,27.7-43,37.6c0,0-13.7,105-35.3,174.6
				c0,0-57.9,62.8-115.8,105l-35.2-46.1c26.8-15.4,92.3-54.1,124.8-82.7c0,0,42.9-118.1,50.8-160.3
				C1331.7,263,1368.5,251.3,1397.2,215.5z"/>
		</g>
		<g>
			<linearGradient id="SVGID_13_" gradientUnits="userSpaceOnUse" x1="1075.8379" y1="501.9239" x2="1086.3195" y2="646.9201">
				<stop  offset="0" style="stop-color:#F58B6B"/>
				<stop  offset="1" style="stop-color:#F05A30"/>
			</linearGradient>
			<path class="st12" d="M1207.4,591.7c-4.7,41-15,91.3-34.8,150.7l-5.6,0.3l-74.3,4l-64.3,3.5l-36.3-98.6L959,561.9l-13-35.2l-3-8
				c0,0,0,0,0.1-0.1c0.4-0.2,2.1-1.3,5.4-3.1c18.7-10,86.6-41.5,221.2-53.3c9.9-0.9,20.1-1.6,30.6-2.3c0.9-0.1,1.8-0.1,2.7-0.2
				C1203,459.9,1217.5,504.7,1207.4,591.7z"/>
			<linearGradient id="SVGID_14_" gradientUnits="userSpaceOnUse" x1="1222.3849" y1="624.6117" x2="1129.6605" y2="566.659">
				<stop  offset="0" style="stop-color:#FAC69A"/>
				<stop  offset="1" style="stop-color:#000000"/>
			</linearGradient>
			<path class="st13" d="M1207.4,591.7c-4.7,41-15,91.3-34.8,150.7l-5.6,0.3c0.7-2.3,1.5-4.6,2.3-7c47.9-142.3,32-268.8,31.1-275.7
				c0.9-0.1,1.8-0.1,2.7-0.2C1203,459.9,1217.5,504.7,1207.4,591.7z"/>
			<linearGradient id="SVGID_15_" gradientUnits="userSpaceOnUse" x1="1210.922" y1="494.6064" x2="1058.047" y2="584.9416">
				<stop  offset="0" style="stop-color:#FAC69A"/>
				<stop  offset="1" style="stop-color:#000000"/>
			</linearGradient>
			<path class="st14" d="M1119.2,502.2c0,0,18.5,26.2,20.9,76.4c0,0-5.9,9.6-21.4,16.7C1118.8,595.3,1137.3,573.2,1119.2,502.2z"/>
			<linearGradient id="SVGID_16_" gradientUnits="userSpaceOnUse" x1="1091.4851" y1="505.6115" x2="1024.6602" y2="761.5024">
				<stop  offset="0" style="stop-color:#F6F8FC"/>
				<stop  offset="1" style="stop-color:#9C3A21"/>
			</linearGradient>
			<path class="st15" d="M1207.4,591.7c-4.7,41-15,91.3-34.8,150.7l-79.9,4.4l-64.3,3.5L959,561.9l-15.9-43.2c0,0,1.8-1.1,5.5-3.1
				l61.7-7.9c0,0,30.3,87.1,55.4,93c25.1,5.9,59.8-0.7,74.6-22.2C1140.1,578.6,1154.7,596.7,1207.4,591.7z"/>
			<linearGradient id="SVGID_17_" gradientUnits="userSpaceOnUse" x1="1074.1552" y1="597.3802" x2="964.9532" y2="726.1406">
				<stop  offset="0" style="stop-color:#F6F8FC"/>
				<stop  offset="1" style="stop-color:#9C3A21"/>
			</linearGradient>
			<path class="st16" d="M1092.7,746.7l-64.3,3.5L959,561.9c16,19,39,41.4,65.2,51.4C1072,631.6,1060.3,669.9,1092.7,746.7z"/>
		</g>
		<g>
			<g>
				<linearGradient id="SVGID_18_" gradientUnits="userSpaceOnUse" x1="1184.0054" y1="722.1628" x2="1093.4878" y2="798.7545">
					<stop  offset="0" style="stop-color:#4ABDCC"/>
					<stop  offset="1" style="stop-color:#0096AF"/>
				</linearGradient>
				<polygon class="st17" points="1196.3,822.5 1052.1,852.8 1007.9,862 1030.3,741.5 1173.2,736.2 1178.4,755.7 				"/>
				<linearGradient id="SVGID_19_" gradientUnits="userSpaceOnUse" x1="1175.1287" y1="845.2674" x2="987.2557" y2="742.7913">
					<stop  offset="0" style="stop-color:#FFFFFF"/>
					<stop  offset="1" style="stop-color:#016778"/>
				</linearGradient>
				<path class="st18" d="M1178.4,755.7L1055.8,774c0,0-1.8,40.5-3.8,78.7l-44.2,9.3l22.4-120.5l142.9-5.3L1178.4,755.7z"/>
			</g>
			<g>
				<linearGradient id="SVGID_20_" gradientUnits="userSpaceOnUse" x1="1157.0956" y1="690.3603" x2="1066.578" y2="766.952">
					<stop  offset="0" style="stop-color:#4ABDCC"/>
					<stop  offset="1" style="stop-color:#0096AF"/>
				</linearGradient>
				<path class="st19" d="M1183.9,724.3l-2.5,27.9c0,0-1,0-2.8,0c-15.5,0.2-92.7,1.5-161.9,11l-7.5-28.2l-0.5-1.7
					C1008.8,733.3,1110.1,721.3,1183.9,724.3z"/>
				<linearGradient id="SVGID_21_" gradientUnits="userSpaceOnUse" x1="1117.2679" y1="693.1628" x2="1073.3208" y2="791.6652">
					<stop  offset="0" style="stop-color:#ECF6F6"/>
					<stop  offset="1" style="stop-color:#000000"/>
				</linearGradient>
				<path class="st20" d="M1183.9,724.3l-2.5,27.9c0,0-1,0-2.8,0l-0.4-22c-52.1-6-150.2,2.9-169,4.7l-0.5-1.7
					C1008.8,733.3,1110.1,721.3,1183.9,724.3z"/>
			</g>
		</g>
		<g>
			<linearGradient id="SVGID_22_" gradientUnits="userSpaceOnUse" x1="954.2771" y1="510.7101" x2="964.7587" y2="655.7052">
				<stop  offset="0" style="stop-color:#F58B6B"/>
				<stop  offset="1" style="stop-color:#F05A30"/>
			</linearGradient>
			<path class="st21" d="M1050,851.3l-2.2,1.2l-25.2,13.5c0,0-124.6-105.9-125.6-122.6c0-0.6,0-1.5,0-2.6
				c1.2-24.2,23.6-159.6,38.5-206.3c2.9-9,5.5-14.7,7.5-15.7c0,0,0,0,0.1-0.1c26.9-12.7,54.5-18,70.5-20.2
				c8.5-1.1,13.8-1.4,13.8-1.4s-19.7,85.9-35.3,154.5c-10.2,44.8-18.6,82.3-18.6,83.8C973.5,739.4,1050,851.3,1050,851.3z"/>
			<linearGradient id="SVGID_23_" gradientUnits="userSpaceOnUse" x1="1036.6005" y1="450.2838" x2="1061.3995" y2="524.6809">
				<stop  offset="0" style="stop-color:#FAC69A"/>
				<stop  offset="1" style="stop-color:#000000"/>
			</linearGradient>
			<path class="st22" d="M1169.7,462.3c-24.2,4.9-102.9,21.3-156.1,36.2c-18,5.1-33,9.9-42,14.1c-10.5,4.9-18.9,9.7-25.7,14.1
				c-4.1,2.7-7.6,5.3-10.5,7.7c2.9-9,5.5-14.7,7.5-15.7c0,0,0,0,0.1-0.1c0.4-0.2,2.1-1.3,5.4-3.1
				C967.2,505.6,1035.1,474.1,1169.7,462.3z"/>
			<linearGradient id="SVGID_24_" gradientUnits="userSpaceOnUse" x1="985.7234" y1="738.7456" x2="956.3856" y2="865.8761">
				<stop  offset="0" style="stop-color:#F6F8FC"/>
				<stop  offset="1" style="stop-color:#9C3A21"/>
			</linearGradient>
			<path class="st23" d="M1047.8,852.4l-25.2,13.5c0,0-124.6-105.9-125.6-122.6c0-0.6,0-1.5,0-2.6
				C929.2,776.8,1007.3,825.5,1047.8,852.4z"/>
			<linearGradient id="SVGID_25_" gradientUnits="userSpaceOnUse" x1="859.5562" y1="531.6072" x2="1003.9741" y2="580.0903">
				<stop  offset="0" style="stop-color:#FAC69A"/>
				<stop  offset="1" style="stop-color:#000000"/>
			</linearGradient>
			<path class="st24" d="M950.1,530.7c-8.4,3.9-25.5,60.1-10.8,60.1S966,523.4,950.1,530.7z"/>
			<linearGradient id="SVGID_26_" gradientUnits="userSpaceOnUse" x1="824.0551" y1="637.355" x2="968.473" y2="685.8381">
				<stop  offset="0" style="stop-color:#FAC69A"/>
				<stop  offset="1" style="stop-color:#000000"/>
			</linearGradient>
			<path class="st25" d="M934,599.8c-9.3,4.2-35.7,139-16.5,144.7C936.8,750.2,956.7,589.6,934,599.8z"/>
		</g>
		<g>
			<linearGradient id="SVGID_27_" gradientUnits="userSpaceOnUse" x1="1086.6765" y1="418.6964" x2="1043.1227" y2="621.9473">
				<stop  offset="0" style="stop-color:#F58B6B"/>
				<stop  offset="1" style="stop-color:#F05A30"/>
			</linearGradient>
			<path class="st26" d="M1082,405.8l16.5,56.1l4,13.4c-1.1,9-7.9,17-7.9,17c-15.3-4-24.7-13.6-24.7-13.6l-4.5-45.4l-3.2-31.8
				L1082,405.8z"/>
			
				<linearGradient id="SVGID_28_" gradientUnits="userSpaceOnUse" x1="1024.9019" y1="435.2942" x2="1058.0002" y2="403.0903" gradientTransform="matrix(0.9573 -0.2892 0.2892 0.9573 -49.9197 353.5862)">
				<stop  offset="0" style="stop-color:#F6F8FC"/>
				<stop  offset="0.9897" style="stop-color:#7A2A17"/>
			</linearGradient>
			<path class="st27" d="M1082,405.8l16.5,56.1c-15.9-5.6-26.5-17.9-33-28.6l-3.2-31.8L1082,405.8z"/>
		</g>
		<g>
			
				<linearGradient id="SVGID_29_" gradientUnits="userSpaceOnUse" x1="1083.8016" y1="358.4204" x2="1041.8835" y2="393.8896" gradientTransform="matrix(0.9573 -0.2892 0.2892 0.9573 -49.9197 353.5862)">
				<stop  offset="0" style="stop-color:#F58B6B"/>
				<stop  offset="1" style="stop-color:#F05A30"/>
			</linearGradient>
			<path class="st28" d="M1111.8,432.7c-3.4,4.7-8.3,7.5-14,8.4c-9.4,1.5-21-2.1-31.8-10.8c-24.7-19.6-27.9-64.5-5.6-74.3
				c0,0,20.7-10.1,38.2,9.8c3.1,3.5,6.1,8,8.9,13.7c1.3,2.6,2.5,5.5,3.7,8.6C1119.1,409.3,1118,424.1,1111.8,432.7z"/>
			
				<linearGradient id="SVGID_30_" gradientUnits="userSpaceOnUse" x1="1090.8557" y1="381.7953" x2="1045.1932" y2="352.343" gradientTransform="matrix(0.9573 -0.2892 0.2892 0.9573 -49.9197 353.5862)">
				<stop  offset="0" style="stop-color:#F6F8FC"/>
				<stop  offset="1" style="stop-color:#F05A30"/>
			</linearGradient>
			<path class="st29" d="M1107.5,379.4c-3.4,7.8-13.5,22.1-39.3,12.2c0,0,7.5,32.2,29.6,49.4c-9.4,1.5-21-2.1-31.8-10.8
				c-24.7-19.6-27.9-64.5-5.6-74.3c0,0,20.7-10.1,38.2,9.8C1101.7,369.3,1104.7,373.8,1107.5,379.4z"/>
			
				<linearGradient id="SVGID_31_" gradientUnits="userSpaceOnUse" x1="1097.8525" y1="369.919" x2="1077.076" y2="411.7002" gradientTransform="matrix(0.9573 -0.2892 0.2892 0.9573 -49.9197 353.5862)">
				<stop  offset="0" style="stop-color:#F58B6B"/>
				<stop  offset="1" style="stop-color:#F05A30"/>
			</linearGradient>
			<path class="st30" d="M1111.8,432.7c-0.1-1.6,0.1-3.4,0.8-5.6c5.5-18.5-6.7-46.8-14-61.3c4.6,5.1,8.9,12.3,12.6,22.2
				C1119.1,409.3,1118,424.1,1111.8,432.7z"/>
			
				<linearGradient id="SVGID_32_" gradientUnits="userSpaceOnUse" x1="1090.8268" y1="332.2816" x2="1038.4015" y2="348.3536" gradientTransform="matrix(0.9573 -0.2892 0.2892 0.9573 -49.9197 353.5862)">
				<stop  offset="0" style="stop-color:#2F4954"/>
				<stop  offset="1" style="stop-color:#0E2835"/>
			</linearGradient>
			<path class="st31" d="M1128.2,344c-0.2,6.3-2.4,13-6.6,19.4c0,0,0,0,0,0c-3.4,5.2-8.1,10.1-14.1,14.4
				c-26.8,19.2-50.2,4.1-51.6,3.2c0.9,1,13,13.4,4.1,21.6c0,0,3.7,10,8,16.5l-13.7,6.1c0,0-23.9-1.4-34.6-24.1
				c-0.3-0.7-0.7-1.5-1-2.3c-1-2.3-1.7-4.5-2.2-6.5c-4.7-19.3,11.1-23.6,19.6-24c0,0-5-34.6,45.8-48.2
				C1113.2,311.6,1128.9,325.9,1128.2,344z"/>
			
				<linearGradient id="SVGID_33_" gradientUnits="userSpaceOnUse" x1="1106.4991" y1="279.3742" x2="1035.0413" y2="389.5383" gradientTransform="matrix(0.9573 -0.2892 0.2892 0.9573 -49.9197 353.5862)">
				<stop  offset="0" style="stop-color:#4C99A2"/>
				<stop  offset="1" style="stop-color:#000000"/>
			</linearGradient>
			<path class="st32" d="M1128.2,344c-2.8-14.4-12.3-26-37.8-20.4c-55.8,12.4-50.6,47.8-50.6,47.8c-15.5,1.5-21.3,11.6-23.2,20.9
				c-4.7-19.3,11.1-23.6,19.6-24c0,0-5-34.6,45.8-48.2C1113.2,311.6,1128.9,325.9,1128.2,344z"/>
			
				<linearGradient id="SVGID_34_" gradientUnits="userSpaceOnUse" x1="1111.2133" y1="278.4774" x2="1055.6088" y2="365.719" gradientTransform="matrix(0.9573 -0.2892 0.2892 0.9573 -49.9197 353.5862)">
				<stop  offset="0" style="stop-color:#F4F6F8"/>
				<stop  offset="1" style="stop-color:#102936"/>
			</linearGradient>
			<path class="st33" d="M1121.6,363.3C1121.6,363.3,1121.6,363.3,1121.6,363.3c-3.4,5.2-8.1,10.1-14.1,14.4
				c-26.8,19.2-50.2,4.1-51.6,3.2c0.9,1,13,13.4,4.1,21.6c0,0,3.7,10,8,16.5l-13.7,6.1c0,0-23.9-1.4-34.6-24.1
				c1.9-1.2,4.8-3.5,8.2-7.3c6.1-6.9,8.1-14.3,9.9-15.6s-1.5,14.3-1.5,14.3s6.5-13.8,11.1-25c4.6-11.1,3.9,2.7,3.9,2.7
				s10.4-14.4,29.7-26.1c19.2-11.6-0.4,18.6-0.4,18.6s16.9-18,28.4-23c11.3-4.9-0.3,19.1-0.7,20
				C1109,359.3,1130.1,344.3,1121.6,363.3z"/>
			
				<linearGradient id="SVGID_35_" gradientUnits="userSpaceOnUse" x1="1099.0051" y1="334.3785" x2="1075.6267" y2="360.1754" gradientTransform="matrix(0.9573 -0.2892 0.2892 0.9573 -49.9197 353.5862)">
				<stop  offset="0" style="stop-color:#0A3240"/>
				<stop  offset="1" style="stop-color:#0A1B24"/>
			</linearGradient>
			<path class="st34" d="M1071.5,407.1c0,0,0.5-8.4,3.2-11.4c2.6-2.9,5.7,0.7,5.7,0.7s-2.3-2.9-1-4.2c1.2-1.2,3.6,2.7,4.4,7
				C1083.7,399.2,1077.7,399,1071.5,407.1z"/>
			
				<linearGradient id="SVGID_36_" gradientUnits="userSpaceOnUse" x1="1116.662" y1="350.38" x2="1093.2836" y2="376.177" gradientTransform="matrix(0.9573 -0.2892 0.2892 0.9573 -49.9197 353.5862)">
				<stop  offset="0" style="stop-color:#0A3240"/>
				<stop  offset="1" style="stop-color:#0A1B24"/>
			</linearGradient>
			<path class="st35" d="M1094.6,398.8l4.7,10.3c0,0,5.7-5.1,9.2-3.3s-0.1,9.3-7.6,14c0,0,7-8,5.8-10.2c-1.2-2.3-8.6,4.5-8.6,4.5
				L1094.6,398.8z"/>
			
				<linearGradient id="SVGID_37_" gradientUnits="userSpaceOnUse" x1="1103.3497" y1="339.0702" x2="1079.9712" y2="364.8671" gradientTransform="matrix(0.9573 -0.2892 0.2892 0.9573 -49.9197 353.5862)">
				<stop  offset="0" style="stop-color:#0A3240"/>
				<stop  offset="1" style="stop-color:#0A1B24"/>
			</linearGradient>
			<path class="st36" d="M1084.3,406.4c0.7,2.3,0,4.6-1.6,5s-3.4-1-4.1-3.3c-0.7-2.3,0-4.6,1.6-5S1083.6,404.1,1084.3,406.4z"/>
			
				<linearGradient id="SVGID_38_" gradientUnits="userSpaceOnUse" x1="1112.6802" y1="346.7715" x2="1089.3016" y2="372.5684" gradientTransform="matrix(0.9573 -0.2892 0.2892 0.9573 -49.9197 353.5862)">
				<stop  offset="0" style="stop-color:#0A3240"/>
				<stop  offset="1" style="stop-color:#0A1B24"/>
			</linearGradient>
			<path class="st37" d="M1109.7,393.9c0,0-4.5-6.9-7.6-8.1c-3.1-1.2-3.3,3.4-3.3,3.4s0-3.6-1.4-4.1c-1.4-0.4-0.9,4,0.7,8.2
				C1098,393.3,1101.8,390.1,1109.7,393.9z"/>
			
				<linearGradient id="SVGID_39_" gradientUnits="userSpaceOnUse" x1="1113.4148" y1="350.3854" x2="1090.0363" y2="376.1824" gradientTransform="matrix(0.9573 -0.2892 0.2892 0.9573 -49.9197 353.5862)">
				<stop  offset="0" style="stop-color:#0A3240"/>
				<stop  offset="1" style="stop-color:#0A1B24"/>
			</linearGradient>
			<path class="st38" d="M1098.2,402c0.7,2.3,2.5,3.8,4.1,3.3s2.3-2.7,1.6-5c-0.7-2.3-2.5-3.8-4.1-3.3S1097.5,399.7,1098.2,402z"/>
			<g>
				
					<linearGradient id="SVGID_40_" gradientUnits="userSpaceOnUse" x1="1109.7632" y1="394.0504" x2="1057.3379" y2="410.1223" gradientTransform="matrix(0.9573 -0.2892 0.2892 0.9573 -49.9197 353.5862)">
					<stop  offset="0" style="stop-color:#2F4954"/>
					<stop  offset="1" style="stop-color:#0E2835"/>
				</linearGradient>
				<path class="st39" d="M1122.4,427.7c0,0,7.2,11.1-3.9,19.4c-11.2,8.2-20.6,2.6-20.6,2.6s-9.9,9.6-17.7-5c0,0-14.6-2.9-21.3-21.5
					l9.3-4.2c0,0,5.5,9.2,17.7,14.8c0,0,5.5-7.2,9.3-10.3c3.7-3.2,8.1-2.3,8.1-2.3s0.2-0.4,0.7-1c1.3-1.6,4.4-4.3,9.4-1.8
					c0,0,2-3.3,3.2-10.8c0,0,3.3,3.3,5.3,8.3C1122.9,419.2,1123.7,423.4,1122.4,427.7z"/>
				
					<linearGradient id="SVGID_41_" gradientUnits="userSpaceOnUse" x1="1099.2648" y1="395.3022" x2="1079.9329" y2="417.8154" gradientTransform="matrix(0.9573 -0.2892 0.2892 0.9573 -49.9197 353.5862)">
					<stop  offset="0" style="stop-color:#4C99A2"/>
					<stop  offset="1" style="stop-color:#000000"/>
				</linearGradient>
				<path class="st40" d="M1119.1,431.7c-0.1-0.4-0.6-6.3-5.2-10.1c-4-3.3-8.8-2-10.2-1.5c1.3-1.6,4.4-4.3,9.4-1.8
					C1121.4,424.5,1119.3,431.2,1119.1,431.7z"/>
				
					<linearGradient id="SVGID_42_" gradientUnits="userSpaceOnUse" x1="1171.9055" y1="329.94" x2="1030.319" y2="434.4079" gradientTransform="matrix(0.9573 -0.2892 0.2892 0.9573 -49.9197 353.5862)">
					<stop  offset="0" style="stop-color:#F4F6F8"/>
					<stop  offset="1" style="stop-color:#102936"/>
				</linearGradient>
				<path class="st41" d="M1122.4,427.7c0,0,7.2,11.1-3.9,19.4c-11.2,8.2-20.6,2.6-20.6,2.6s-9.9,9.6-17.7-5c0,0-14.6-2.9-21.3-21.5
					l9.3-4.2c0,0,5.1,12.9,19.8,20.2c0,0,0.4,4.3,4.1,4.8c3.7,0.5,5.5-4.3,5.5-4.3s10.2,7.3,18.9,0.7
					C1125.1,433.9,1122.4,427.7,1122.4,427.7z"/>
				
					<linearGradient id="SVGID_43_" gradientUnits="userSpaceOnUse" x1="1102.5208" y1="390.4915" x2="1099.8141" y2="415.2378" gradientTransform="matrix(0.9573 -0.2892 0.2892 0.9573 -49.9197 353.5862)">
					<stop  offset="0" style="stop-color:#F4F6F8"/>
					<stop  offset="1" style="stop-color:#102936"/>
				</linearGradient>
				<path class="st42" d="M1122.4,427.7c-0.5-1.8-1.8-4.2-3.6-5.3c0,0,3-2,2.8-6.6C1122.9,419.2,1123.7,423.4,1122.4,427.7z"/>
			</g>
			<path class="st43" d="M1102.2,427.8c0,0-3.1,0.9-6.4-0.5c0,0-1.3,4.6,2.1,5.3C1102.6,433.5,1102.2,427.8,1102.2,427.8z"/>
			<g>
				
					<linearGradient id="SVGID_44_" gradientUnits="userSpaceOnUse" x1="1036.5109" y1="371.743" x2="1028.6288" y2="405.0625" gradientTransform="matrix(0.9573 -0.2892 0.2892 0.9573 -49.9197 353.5862)">
					<stop  offset="0" style="stop-color:#F58B6B"/>
					<stop  offset="1" style="stop-color:#F05A30"/>
				</linearGradient>
				<path class="st44" d="M1066.8,428.2c-14.1,15.5-28.2,6.2-31.4-3.3c-1.2-3.6-0.9-7.2,1.5-9.6c4.5-4.2,9.5-4,13.5-2.8
					c3.7,1.1,6.8,3.5,9.2,6.5l2.6,3.3L1066.8,428.2z"/>
				
					<linearGradient id="SVGID_45_" gradientUnits="userSpaceOnUse" x1="1049.9008" y1="346.0742" x2="1029.1244" y2="387.8554" gradientTransform="matrix(0.9573 -0.2892 0.2892 0.9573 -49.9197 353.5862)">
					<stop  offset="0" style="stop-color:#F58B6B"/>
					<stop  offset="1" style="stop-color:#F05A30"/>
				</linearGradient>
				<path class="st45" d="M1062.2,422.3c-5.6-5.3-12.8-10.1-19.5-7.9c-5.5,1.8-7,6.8-7.3,10.4c-1.2-3.6-0.9-7.2,1.5-9.6
					c4.5-4.2,9.5-4,13.5-2.8c3.7,1.1,6.8,3.5,9.2,6.5L1062.2,422.3z"/>
				
					<linearGradient id="SVGID_46_" gradientUnits="userSpaceOnUse" x1="1047.171" y1="361.1075" x2="1035.6836" y2="380.0517" gradientTransform="matrix(0.9573 -0.2892 0.2892 0.9573 -49.9197 353.5862)">
					<stop  offset="0" style="stop-color:#0A3240"/>
					<stop  offset="1" style="stop-color:#0A1B24"/>
				</linearGradient>
				<path class="st46" d="M1060.5,425.1c0,0-4.3-2.6-9.9-4c-1.4,4.5-0.1,10.1-0.1,10.1c-2.8-4.5-2.2-8.8-1.9-10.5
					c-2.9-0.5-6-0.7-9,0C1039.7,420.7,1048.9,414,1060.5,425.1z"/>
			</g>
		</g>
	</g>
	<g>
		<g>
			<linearGradient id="SVGID_47_" gradientUnits="userSpaceOnUse" x1="837.8301" y1="745.9149" x2="914.2146" y2="1027.5825">
				<stop  offset="0.1231" style="stop-color:#FFD65A"/>
				<stop  offset="0.9692" style="stop-color:#F69139"/>
			</linearGradient>
			<path class="st47" d="M992.4,1068l-16.4,4l-49.8,12.1l-59.9,14.5l-19-252.4l-48.6,4l75.6-14.4c10.1-1.9,19.2,2.3,22.8,10.5
				L992.4,1068z"/>
			<linearGradient id="SVGID_48_" gradientUnits="userSpaceOnUse" x1="875.1063" y1="796.5345" x2="891.1084" y2="923.2181">
				<stop  offset="0.1231" style="stop-color:#FFD65A"/>
				<stop  offset="0.9692" style="stop-color:#000000"/>
			</linearGradient>
			<path class="st48" d="M992.4,1068l-16.4,4l-94-226.6c-1.7-4.2-6.2-6.4-11.3-5.7l-71.9,10.5l75.6-14.4
				c10.1-1.9,19.2,2.3,22.8,10.5L992.4,1068z"/>
			<linearGradient id="SVGID_49_" gradientUnits="userSpaceOnUse" x1="871.2407" y1="964.4363" x2="908.1462" y2="953.0807">
				<stop  offset="5.128205e-03" style="stop-color:#FFFFFF"/>
				<stop  offset="0.9692" style="stop-color:#F69139"/>
			</linearGradient>
			<path class="st49" d="M926.3,1084l-59.9,14.5l-19-252.4l-48.6,4l58.9-7.1c6-0.7,11.1,2.5,12.4,7.7L926.3,1084z"/>
			<linearGradient id="SVGID_50_" gradientUnits="userSpaceOnUse" x1="882.5138" y1="875.1664" x2="819.6755" y2="941.7377">
				<stop  offset="0" style="stop-color:#2F4954"/>
				<stop  offset="1" style="stop-color:#0E2835"/>
			</linearGradient>
			<path class="st50" d="M872.5,887.9c0.3,2.6-0.7,5-2.2,5.4c-1.5,0.4-3-1.4-3.3-4s0.7-5,2.2-5.4
				C870.8,883.6,872.2,885.4,872.5,887.9z"/>
			<linearGradient id="SVGID_51_" gradientUnits="userSpaceOnUse" x1="917.9099" y1="908.5777" x2="855.0716" y2="975.149">
				<stop  offset="0" style="stop-color:#2F4954"/>
				<stop  offset="1" style="stop-color:#0E2835"/>
			</linearGradient>
			<path class="st51" d="M883.9,946.8c0.3,2.6-0.7,5-2.2,5.4s-3-1.4-3.3-4s0.7-5,2.2-5.4C882.1,942.4,883.6,944.2,883.9,946.8z"/>
			<linearGradient id="SVGID_52_" gradientUnits="userSpaceOnUse" x1="953.306" y1="941.989" x2="890.4677" y2="1008.5602">
				<stop  offset="0" style="stop-color:#2F4954"/>
				<stop  offset="1" style="stop-color:#0E2835"/>
			</linearGradient>
			<path class="st52" d="M895.3,1005.6c0.3,2.6-0.7,5-2.2,5.4s-3-1.4-3.3-4c-0.3-2.6,0.7-5,2.2-5.4S895,1003,895.3,1005.6z"/>
			<linearGradient id="SVGID_53_" gradientUnits="userSpaceOnUse" x1="988.7021" y1="975.4002" x2="925.8638" y2="1041.9714">
				<stop  offset="0" style="stop-color:#2F4954"/>
				<stop  offset="1" style="stop-color:#0E2835"/>
			</linearGradient>
			<path class="st53" d="M906.7,1064.5c0.3,2.6-0.7,5-2.2,5.4s-3-1.4-3.3-4c-0.3-2.6,0.7-5,2.2-5.4S906.4,1061.9,906.7,1064.5z"/>
			<line class="st54" x1="874.4" y1="868.9" x2="923.4" y2="1072"/>
		</g>
		<g>
			<linearGradient id="SVGID_54_" gradientUnits="userSpaceOnUse" x1="1223.2837" y1="709.6474" x2="1181.1488" y2="922.328">
				<stop  offset="0" style="stop-color:#2F4954"/>
				<stop  offset="1" style="stop-color:#0E2835"/>
			</linearGradient>
			<path class="st55" d="M1505.1,810l-30.7,108.2l-115.1,7.9l-487.2,33.5c0,0,4.2-6.4,13.6-17.1c42.6-49,190.9-188.3,524.6-224.6
				c0,0,54.9,27.4,93.6,90.1C1504.2,808.6,1504.7,809.3,1505.1,810z"/>
			<linearGradient id="SVGID_55_" gradientUnits="userSpaceOnUse" x1="932.4221" y1="821.9438" x2="932.9221" y2="821.9438">
				<stop  offset="0" style="stop-color:#248795"/>
				<stop  offset="1" style="stop-color:#016778"/>
			</linearGradient>
			<path class="st56" d="M1505.1,810l-30.7,108.2l-115.1,7.9c29-92.4,51-208.2,51-208.2S1466.3,745.9,1505.1,810z"/>
			<g>
				<linearGradient id="SVGID_56_" gradientUnits="userSpaceOnUse" x1="1067.1633" y1="754.2424" x2="1081.1449" y2="948.9079">
					<stop  offset="0" style="stop-color:#4ABDCD"/>
					<stop  offset="1" style="stop-color:#000000"/>
				</linearGradient>
				<path class="st57" d="M1161.2,811.2c-3.4-7.9-46,7.9-46,7.9l44.4-46.5c-28.5,10-54.5,20.6-78.2,31.6
					c-25,27.1-49.9,54.9-50.4,58.7c-1.1,7.9,40.4-9,40.4-9l-81.1,97.6l87-6C1111,895.6,1163.5,816.5,1161.2,811.2z"/>
				<linearGradient id="SVGID_57_" gradientUnits="userSpaceOnUse" x1="1238.2734" y1="741.9527" x2="1252.255" y2="936.6182">
					<stop  offset="0" style="stop-color:#4ABDCD"/>
					<stop  offset="1" style="stop-color:#000000"/>
				</linearGradient>
				<path class="st58" d="M1253.6,894.3c0,0,73-106.1,113.7-171c-34.6,4.9-67.1,10.9-97.5,17.8l-149.1,179.4L1253.6,894.3z"/>
				<linearGradient id="SVGID_58_" gradientUnits="userSpaceOnUse" x1="1422.2903" y1="728.736" x2="1436.2717" y2="923.4016">
					<stop  offset="0" style="stop-color:#4ABDCD"/>
					<stop  offset="1" style="stop-color:#000000"/>
				</linearGradient>
				<path class="st59" d="M1503.8,807.9c-3.3-5.3-6.7-10.3-10.1-15.1c-7.6,2.3-13.7,4.5-13.7,4.5l9.6-10c-6.9-9-14-17.1-21-24.3
					c-27,28.8-64.5,69.6-65.1,74.1c-1,7.1,36.7-8.2,36.7-8.2l-80.7,97.1l80.4-5.5c16.8-24.8,41.3-61.3,59.2-89.4l6-21.1
					C1504.7,809.3,1504.2,808.6,1503.8,807.9z"/>
			</g>
			<linearGradient id="SVGID_59_" gradientUnits="userSpaceOnUse" x1="1194.76" y1="734.559" x2="1194.76" y2="826.2899">
				<stop  offset="0" style="stop-color:#4ABDCD"/>
				<stop  offset="1" style="stop-color:#000000"/>
			</linearGradient>
			<path class="st60" d="M1503.8,807.9c-43.5-50.7-94.3-79.1-94.3-79.1c-391.1,45.5-522.4,214.4-522.4,214.4l-1.4-0.8
				c42.6-49,190.9-188.3,524.6-224.6C1410.3,717.8,1465.1,745.3,1503.8,807.9z"/>
			<linearGradient id="SVGID_60_" gradientUnits="userSpaceOnUse" x1="1409.349" y1="678.3161" x2="1393.8083" y2="781.3752">
				<stop  offset="0" style="stop-color:#2F4954"/>
				<stop  offset="1" style="stop-color:#0E2835"/>
			</linearGradient>
			<path class="st61" d="M1408.9,725.6c0,0-24.8,108.8-43.9,183.2C1365,908.8,1408,808.7,1408.9,725.6z"/>
		</g>
		<g>
			<linearGradient id="SVGID_61_" gradientUnits="userSpaceOnUse" x1="1093.6989" y1="1031.2745" x2="993.6854" y2="1225.8955">
				<stop  offset="0" style="stop-color:#FFFDF8"/>
				<stop  offset="1" style="stop-color:#CBE9ED"/>
			</linearGradient>
			<path class="st62" d="M1539.8,899.4l-2.6,6.5l-14.7,36.6l-21.4,53l-88.8,8.4l-284.7,27l-132.6,12.6l-71.3,6.8l-74.4,7L683.8,1073
				c0,0,18.6-41.4,45-81.6c9.3-14.1,19.5-28.1,30.2-40.1c1.2-1.3,2.4-2.6,3.6-3.9c0,0,94.5-22.6,230.7-46.8
				c25.5-4.5,52.5-9.1,80.6-13.6c24.4-3.9,49.7-7.8,75.6-11.5c44.6-6.4,91.1-12.3,138.2-17.4c57.9-6.2,116.9-11,174.7-13.5
				C1462.3,844.7,1513.1,864.7,1539.8,899.4z"/>
			<linearGradient id="SVGID_62_" gradientUnits="userSpaceOnUse" x1="1425.8938" y1="781.5319" x2="1467.3804" y2="922.4135">
				<stop  offset="0" style="stop-color:#FFFDF8"/>
				<stop  offset="1" style="stop-color:#79ADB4"/>
			</linearGradient>
			<path class="st63" d="M1539.8,899.4l-38.7,96.1l-88.8,8.4c27.1-83.2,50.1-159.3,50.1-159.3S1513.1,864.7,1539.8,899.4z"/>
			<linearGradient id="SVGID_63_" gradientUnits="userSpaceOnUse" x1="1132.5786" y1="945.805" x2="1027.1589" y2="1178.2688">
				<stop  offset="0" style="stop-color:#FFFDF8"/>
				<stop  offset="1" style="stop-color:#CBE9ED"/>
			</linearGradient>
			<path class="st64" d="M1522.4,942.5l-21.4,53l-88.8,8.4l-728.4,69c0,0,18.6-41.4,45-81.6c64.2-15.8,246-60,327.6-73.4
				c0,0-132.8,43.3-149.2,52.2c-16.4,8.9-29.8,44.8-29.8,44.8s525.2-104.4,567-101.5C1462,914.9,1492.8,927.9,1522.4,942.5z"/>
			<linearGradient id="SVGID_64_" gradientUnits="userSpaceOnUse" x1="1155.3649" y1="897.0031" x2="1106.7096" y2="1129.4669">
				<stop  offset="0" style="stop-color:#ECF6F6"/>
				<stop  offset="1" style="stop-color:#000000"/>
			</linearGradient>
			<path class="st65" d="M1539.8,899.4l-2.6,6.5c-35-28.3-79.4-46-79.4-46c-259.3,9.1-611,74.5-698.7,91.5c1.2-1.3,2.4-2.6,3.6-3.9
				c0,0,368.6-88.1,699.7-102.8C1462.3,844.7,1513.1,864.7,1539.8,899.4z"/>
			<linearGradient id="SVGID_65_" gradientUnits="userSpaceOnUse" x1="1152.693" y1="896.4438" x2="1104.0378" y2="1128.9077">
				<stop  offset="0" style="stop-color:#ECF6F6"/>
				<stop  offset="1" style="stop-color:#000000"/>
			</linearGradient>
			<path class="st66" d="M1287.7,858.2c-42.8,42.6-103.5,105.6-160.2,172.7l-132.6,12.6c53.6-64,111.5-124.6,154.5-168
				C1194.1,869.2,1240.5,863.3,1287.7,858.2z"/>
			<linearGradient id="SVGID_66_" gradientUnits="userSpaceOnUse" x1="984.7637" y1="861.2958" x2="936.1085" y2="1093.7596">
				<stop  offset="0" style="stop-color:#ECF6F6"/>
				<stop  offset="1" style="stop-color:#000000"/>
			</linearGradient>
			<path class="st67" d="M1073.9,887.1c-45.4,46.6-98.5,103.2-150.3,163.2l-74.4,7c49.5-57.3,100.2-111.4,144.1-156.6
				C1018.8,896.2,1045.8,891.6,1073.9,887.1z"/>
		</g>
		<g>
			<linearGradient id="SVGID_67_" gradientUnits="userSpaceOnUse" x1="507.6932" y1="835.4435" x2="584.0777" y2="1117.1112">
				<stop  offset="0.1231" style="stop-color:#FFD65A"/>
				<stop  offset="0.9692" style="stop-color:#F69139"/>
			</linearGradient>
			<path class="st68" d="M675.1,1080.9l-18.5,4.9l-56.3,14.9l-67.7,17.9l-75.5-311.4l-56.6,5l86.3-17.8c11.5-2.4,23.2,2.9,29.1,13
				L675.1,1080.9z"/>
			<linearGradient id="SVGID_68_" gradientUnits="userSpaceOnUse" x1="524.4626" y1="840.8263" x2="540.4648" y2="967.5099">
				<stop  offset="0.1231" style="stop-color:#FFD65A"/>
				<stop  offset="0.9692" style="stop-color:#000000"/>
			</linearGradient>
			<path class="st69" d="M675.1,1080.9l-18.5,4.9L497.8,806.2c-2.9-5.1-8.7-7.9-14.5-7l-82.7,12.9l86.3-17.8
				c11.5-2.4,23.2,2.9,29.1,13L675.1,1080.9z"/>
			<linearGradient id="SVGID_69_" gradientUnits="userSpaceOnUse" x1="464.8769" y1="973.8098" x2="534.4298" y2="939.743">
				<stop  offset="5.128205e-03" style="stop-color:#FFFFFF"/>
				<stop  offset="0.9692" style="stop-color:#F69139"/>
			</linearGradient>
			<path class="st70" d="M600.3,1100.7l-67.7,17.9l-75.5-311.4l-56.6,5l68.1-8.7c7-0.9,13.6,3,16.3,9.5L600.3,1100.7z"/>
			<linearGradient id="SVGID_70_" gradientUnits="userSpaceOnUse" x1="498.6206" y1="852.9196" x2="410.8959" y2="948.1103">
				<stop  offset="0" style="stop-color:#2F4954"/>
				<stop  offset="1" style="stop-color:#0E2835"/>
			</linearGradient>
			<path class="st71" d="M495.6,858.7c0.9,3.2,0.2,6.2-1.5,6.6c-1.7,0.5-3.8-1.7-4.7-4.9c-0.9-3.2-0.2-6.2,1.5-6.6
				C492.6,853.4,494.7,855.5,495.6,858.7z"/>
			<linearGradient id="SVGID_71_" gradientUnits="userSpaceOnUse" x1="548.7662" y1="899.1322" x2="461.0415" y2="994.3229">
				<stop  offset="0" style="stop-color:#2F4954"/>
				<stop  offset="1" style="stop-color:#0E2835"/>
			</linearGradient>
			<path class="st72" d="M521.4,931.3c0.9,3.2,0.2,6.2-1.5,6.6c-1.7,0.5-3.8-1.7-4.7-4.9c-0.9-3.2-0.2-6.2,1.5-6.6
				C518.4,926,520.5,928.1,521.4,931.3z"/>
			<linearGradient id="SVGID_72_" gradientUnits="userSpaceOnUse" x1="598.9119" y1="945.3448" x2="511.1871" y2="1040.5355">
				<stop  offset="0" style="stop-color:#2F4954"/>
				<stop  offset="1" style="stop-color:#0E2835"/>
			</linearGradient>
			<path class="st73" d="M547.2,1003.9c0.9,3.2,0.2,6.2-1.5,6.6c-1.7,0.5-3.8-1.7-4.7-4.9c-0.9-3.2-0.2-6.2,1.5-6.6
				S546.3,1000.7,547.2,1003.9z"/>
			<linearGradient id="SVGID_73_" gradientUnits="userSpaceOnUse" x1="649.0575" y1="991.5575" x2="561.3327" y2="1086.7482">
				<stop  offset="0" style="stop-color:#2F4954"/>
				<stop  offset="1" style="stop-color:#0E2835"/>
			</linearGradient>
			<path class="st74" d="M573,1076.5c0.9,3.2,0.2,6.2-1.5,6.6c-1.7,0.5-3.8-1.7-4.7-4.9c-0.9-3.2-0.2-6.2,1.5-6.6
				S572.1,1073.4,573,1076.5z"/>
			<line class="st54" x1="493.8" y1="835.2" x2="594.3" y2="1085.8"/>
		</g>
		<g>
			<linearGradient id="SVGID_74_" gradientUnits="userSpaceOnUse" x1="1447.1721" y1="638.1707" x2="1366.7987" y2="951.886">
				<stop  offset="0.1231" style="stop-color:#FFD65A"/>
				<stop  offset="0.9692" style="stop-color:#F69139"/>
			</linearGradient>
			<path class="st75" d="M1882.3,784.3c0,14.8-0.7,30.1-2.4,45.4l-0.1,1.1l-0.5,1c0,0-0.4,0.9-1.2,2.6c-0.6,1.2-1.3,2.8-2.3,4.8
				c-3.3,7-8.7,18.3-15.4,31.7c-11,22.4-25.2,50.4-38,73.3l-11.4-6.4c11.9-21.1,25-46.9,35.6-68.4c10.4-21.1,18.4-37.9,20.3-42.1
				c1.6-14.4,2.3-28.8,2.3-42.9c0-46.2-7.1-88.4-12-111.7c-14.5,32.8-47.6,106.1-88.6,185.5l-11.6-6c9-17.5,17.7-34.7,25.8-51.3
				c32.1-65,56.5-119.8,65.9-141.5c-60.3,5.3-128.8,16.2-200.5,30.7l-0.4,0.7c-0.1,0.1-0.1,0.2-0.2,0.4c-1.3,2.6-3.1,6.5-5.4,11.6
				c-4.7,10-11.3,24.6-19,42.5c-8.5,19.7-18.5,43.6-28.7,70.1c-8.4,21.7-17,45.1-25.2,69.5l-12.4-4.2c29-85.9,62.3-159.5,75.4-187.4
				c-15.2,3.1-30.5,6.4-45.9,9.9c-77.2,17.2-156.4,37.6-231.7,58.4c-0.3,0.7-0.7,1.5-1.1,2.5c-1.5,3.5-3.6,8.5-6.3,14.8
				c-5.3,12.5-12.6,29.9-20.6,49.4c-6.4,15.5-13.2,32.4-19.8,49.2c-10,25.4-19.5,50.7-26.3,71l-12.4-4.1
				c11.4-34.3,30.3-81.9,46.4-121.1c9.9-24,18.6-44.8,23.9-57.3c-15,4.2-29.9,8.4-44.5,12.6c-31,8.9-61,17.8-89.5,26.4
				c-28.5,8.6-55.6,17-80.8,24.9c-0.8,1.8-1.9,4.4-3.3,7.8c-2.8,6.6-6.7,16-11.3,27.1c-8.6,20.8-19.3,47.3-28.8,72.4
				c-0.6,1.7-1.3,3.3-1.9,5c-6.6,17.6-12.4,34.3-16.3,47.1l-12.5-3.7c4-13.4,9.9-30.2,16.5-48c6.7-17.8,14.1-36.6,21-53.7
				c8-19.9,15.4-37.5,20.1-48.8c-89.6,28.4-152,50-164.5,54.3c-14.1,25.2-28.8,56.2-40.4,82.2c-12,26.7-20.9,48.2-22.8,52.8
				c-0.2,0.6-0.4,0.9-0.4,0.9l-12.1-4.9c0-0.1,8.6-21,21-48.9c5.5-12.4,11.8-26.2,18.5-40.1c8.1-17,16.8-34.2,25.4-49.4
				c0.2-0.4,0.4-0.8,0.7-1.2l1.2-2.1l2.3-0.8c0.1-0.1,331.7-116.4,637.7-185.5c102.1-23,201.3-40.8,284.6-47.2l5.4-0.4l1.4,5.2
				C1865.6,650.5,1882.2,712.3,1882.3,784.3z"/>
			<linearGradient id="SVGID_75_" gradientUnits="userSpaceOnUse" x1="1871.5824" y1="675.9862" x2="1806.4039" y2="876.4099">
				<stop  offset="5.128205e-03" style="stop-color:#FFFFFF"/>
				<stop  offset="0.9692" style="stop-color:#F69139"/>
			</linearGradient>
			<path class="st76" d="M1875.8,839.1c-3.3,7-8.7,18.3-15.4,31.7c-11,22.4-25.2,50.4-38,73.3l-11.4-6.4
				c11.9-21.1,25-46.9,35.6-68.4c10.4-21.1,18.4-37.9,20.3-42.1c1.6-14.4,2.3-28.8,2.3-42.9c0-46.2-7.1-88.4-12-111.7
				c-14.5,32.8-47.6,106.1-88.6,185.5l-11.6-6c9-17.5,17.7-34.7,25.8-51.3c5.2-2.7,10.8-6.4,14.6-11.7
				c8.6-11.7,61.2-126.8,61.2-126.8s22,83,12.7,162.8C1871.5,825.1,1871.5,831.6,1875.8,839.1z"/>
			<linearGradient id="SVGID_76_" gradientUnits="userSpaceOnUse" x1="1148.8602" y1="440.9546" x2="1083.6819" y2="641.3783">
				<stop  offset="5.128205e-03" style="stop-color:#FFFFFF"/>
				<stop  offset="0.9692" style="stop-color:#F69139"/>
			</linearGradient>
			<path class="st77" d="M1080.5,937.4c-0.6,1.7-1.3,3.3-1.9,5c-6.6,17.6-12.4,34.3-16.3,47.1l-12.5-3.7c4-13.4,9.9-30.2,16.5-48
				c6.7-17.8,14.1-36.6,21-53.7c8-19.9,15.4-37.5,20.1-48.8c-89.6,28.4-152,50-164.5,54.3c-14.1,25.2-28.8,56.2-40.4,82.2
				c-12,26.7-20.9,48.2-22.8,52.8c-0.2,0.6-0.4,0.9-0.4,0.9l-12.1-4.9c0-0.1,8.6-21,21-48.9c5.5-12.4,11.8-26.2,18.5-40.1
				c-6.5,18.6-12.5,36.4-12.1,38c0.9,3.3,45.8-85,45.8-85l173.3-56.2c0,0-30.9,76.8-35.1,93.6C1077.1,928,1078.3,933.2,1080.5,937.4
				z"/>
			<linearGradient id="SVGID_77_" gradientUnits="userSpaceOnUse" x1="1328.4003" y1="499.3416" x2="1263.2219" y2="699.7653">
				<stop  offset="5.128205e-03" style="stop-color:#FFFFFF"/>
				<stop  offset="0.9692" style="stop-color:#F69139"/>
			</linearGradient>
			<path class="st78" d="M1307,877.6c-10,25.4-19.5,50.7-26.3,71l-12.4-4.1c11.4-34.3,30.3-81.9,46.4-121.1
				c9.9-24,18.6-44.8,23.9-57.3c-15,4.2-29.9,8.4-44.5,12.6c-31,8.9-61,17.8-89.5,26.4c-28.5,8.6-55.6,17-80.8,24.9l-3.4-3.5
				l225.1-67.5c0,0-38.3,98.1-41,107C1303.4,869.5,1304.8,873.7,1307,877.6z"/>
			<linearGradient id="SVGID_78_" gradientUnits="userSpaceOnUse" x1="1544.3582" y1="569.5718" x2="1479.1797" y2="769.9955">
				<stop  offset="5.128205e-03" style="stop-color:#FFFFFF"/>
				<stop  offset="0.9692" style="stop-color:#F69139"/>
			</linearGradient>
			<path class="st79" d="M1594.6,815.4c-8.4,21.7-17,45.1-25.2,69.5l-12.4-4.2c29-85.9,62.3-159.5,75.4-187.4
				c-15.2,3.1-30.5,6.4-45.9,9.9c-77.2,17.2-156.4,37.6-231.7,58.4l-3.1-3.7c0,0,194-50.6,286-70.9c0,0-38,85.9-44.5,104.7
				C1590.2,800.3,1591.9,808.7,1594.6,815.4z"/>
			<linearGradient id="SVGID_79_" gradientUnits="userSpaceOnUse" x1="1774.3199" y1="605.1759" x2="1704.2583" y2="779.8073">
				<stop  offset="5.128205e-03" style="stop-color:#FFFFFF"/>
				<stop  offset="0.9692" style="stop-color:#F69139"/>
			</linearGradient>
			<path class="st80" d="M1849.9,654.6l-1,4.7c-60.3,5.3-128.8,16.2-200.5,30.7l-0.4,0.7l-0.7-2.3c0,0-1-1.3-1.3-3.2
				C1645.9,685.3,1754,662.8,1849.9,654.6z"/>
		</g>
		<linearGradient id="SVGID_80_" gradientUnits="userSpaceOnUse" x1="1448.3079" y1="620.6787" x2="1397.9906" y2="900.705">
			<stop  offset="0.1231" style="stop-color:#FFD65A"/>
			<stop  offset="0.9692" style="stop-color:#000000"/>
		</linearGradient>
		<path class="st81" d="M1882.3,784.3c0,14.8-0.7,30.1-2.4,45.4l-0.1,1.1l-0.5,1c0,0-0.4,0.9-1.2,2.6c7.2-113-15.8-185.4-15.8-185.4
			c-287.2,20-862.8,211.1-930.1,233.3c0.2-0.4,0.4-0.8,0.7-1.2l1.2-2.1l2.3-0.8c0.1-0.1,331.7-116.4,637.7-185.5
			c102.1-23,201.3-40.8,284.6-47.2l5.4-0.4l1.4,5.2C1865.6,650.5,1882.2,712.3,1882.3,784.3z"/>
		<linearGradient id="SVGID_81_" gradientUnits="userSpaceOnUse" x1="1049.2744" y1="1408.594" x2="1095.5819" y2="887.026">
			<stop  offset="0" style="stop-color:#FFFDF8"/>
			<stop  offset="1" style="stop-color:#CBE9ED"/>
		</linearGradient>
		<path class="st82" d="M1831.8,943.4c0,0-34.3,64.8-85.7,147.1c-49,78.5-113.6,172.9-178.6,242c0,0-17.9,0.6-49.7,1.7
			c-24.8,0.8-58.2,2-98.3,3.3c-32,1.1-68.3,2.3-108,3.7c-27.2,0.9-56.1,2-86.2,3c-49,1.7-101.3,3.6-155.7,5.6
			c-253.2,9.2-550.5,20.6-759,30.6c0,0,38.9-80,95.7-161.3c11-15.7,22.5-31.4,34.7-46.6c12.3-15.4,25-30.2,38.2-44
			c0,0,326.3-109.8,737-207.3c56.5-13.4,114.7-26.6,173.8-39.3c29.7-6.3,59.7-12.6,89.8-18.6c106.1-21.3,214.2-40.3,320.9-55.3
			c0,0,0,0,0,0.1C1801.4,810.5,1821.6,867.9,1831.8,943.4z"/>
		<linearGradient id="SVGID_82_" gradientUnits="userSpaceOnUse" x1="1614.2256" y1="839.0761" x2="1097.2251" y2="1153.4683">
			<stop  offset="0" style="stop-color:#FFFDF8"/>
			<stop  offset="1" style="stop-color:#CBE9ED"/>
		</linearGradient>
		<path class="st83" d="M1563.9,1085.8c0,0-66.4,134.2-144.5,251.8c-29.5,1-62.6,2.1-98.5,3.4c-277.4,9.6-726.4,25.9-1010.3,39.5
			c0,0,7.8-16.1,21.6-41.2c16.9-30.8,42.8-75.3,74.1-120.1c11-15.7,22.5-31.4,34.7-46.6c85.6-24.4,302.5-84.1,545.1-133.6
			c-9.9,2.7-329.1,89.9-394.1,117.2c-66.1,27.7-98.1,113-98.1,113S1291.1,1117.7,1563.9,1085.8z"/>
		<path class="st84" d="M405.2,1260.4c0,0,738-175.6,1272.4-193.6c0,0,11.2,33.5,16.1,69.5"/>
		<linearGradient id="SVGID_83_" gradientUnits="userSpaceOnUse" x1="1508.8766" y1="844.9122" x2="1675.1171" y2="1095.1862">
			<stop  offset="0" style="stop-color:#FFFDF8"/>
			<stop  offset="1" style="stop-color:#79ADB4"/>
		</linearGradient>
		<path class="st85" d="M1831.8,943.4c0,0-34.3,64.8-85.7,147.1c-49,78.5-113.5,172.9-178.6,242c0,0-17.9,0.6-49.7,1.7
			c83-125.1,148.4-243.8,195.3-336.7h0c57.7-114.2,87.4-189.4,87.4-189.4s0,0,0,0.1C1801.4,810.5,1821.6,867.9,1831.8,943.4z"/>
		<linearGradient id="SVGID_84_" gradientUnits="userSpaceOnUse" x1="1215.8964" y1="968.8666" x2="665.5954" y2="1401.6554">
			<stop  offset="0.1231" style="stop-color:#FFD65A"/>
			<stop  offset="0.9692" style="stop-color:#F69139"/>
		</linearGradient>
		<path class="st86" d="M1800.6,808.1c0,0-29.7,75.2-87.4,189.4h0C1274.4,1023.3,563,1183,406.3,1219.1c22-31.5,46.7-63.2,72.9-90.5
			c0,0,0.1,0,0.3-0.1C496.1,1122.9,1173.7,896.5,1800.6,808.1z"/>
		<linearGradient id="SVGID_85_" gradientUnits="userSpaceOnUse" x1="1644.12" y1="943.2884" x2="1136.0275" y2="1170.7008">
			<stop  offset="0" style="stop-color:#ECF6F6"/>
			<stop  offset="1" style="stop-color:#000000"/>
		</linearGradient>
		<path class="st87" d="M1414.1,1055.5c0,0-104.7,153.3-188.8,288.8c-49,1.7-101.3,3.6-155.7,5.6c72.9-114,145.8-220.6,145.8-220.6
			l-176.2,36.9l177-244.8c56.5-13.4,114.7-26.6,173.8-39.3l-152.1,210.3L1414.1,1055.5z"/>
		<linearGradient id="SVGID_86_" gradientUnits="userSpaceOnUse" x1="1012.4787" y1="923.9147" x2="763.695" y2="1075.202">
			<stop  offset="5.128205e-03" style="stop-color:#FFFFFF"/>
			<stop  offset="0.9692" style="stop-color:#F69139"/>
		</linearGradient>
		<path class="st88" d="M986,1038.9c-10,2.7-329.1,89.9-394.1,117.2c-17.6,7.4-32.7,18.8-45.5,31.6
			c-62.4,13.7-110.9,24.7-140.1,31.4c1.4-2,2.7-3.9,4.1-5.9c8.3-11.8,17-23.5,26-35c1.5-1.9,3-3.8,4.5-5.7
			C526.6,1148.1,743.5,1088.4,986,1038.9z"/>
		<linearGradient id="SVGID_87_" gradientUnits="userSpaceOnUse" x1="1138.4642" y1="851.2314" x2="810.099" y2="1365.9031">
			<stop  offset="0" style="stop-color:#FFFDF8"/>
			<stop  offset="1" style="stop-color:#CBE9ED"/>
		</linearGradient>
		<path class="st89" d="M1416.6,1161.8c0,0-37.9,90.9-95.6,179.1c-277.4,9.6-726.4,25.9-1010.3,39.5c0,0,7.8-16.1,21.6-41.2
			C530.2,1302,1146.2,1188.1,1416.6,1161.8z"/>
		<linearGradient id="SVGID_88_" gradientUnits="userSpaceOnUse" x1="1713.1172" y1="949.3181" x2="1831.7715" y2="949.3181">
			<stop  offset="0" style="stop-color:#248795"/>
			<stop  offset="1" style="stop-color:#016778"/>
		</linearGradient>
		<path class="st90" d="M1831.8,943.4C1831.8,943.4,1831.8,943.4,1831.8,943.4c-0.1,0.3-1.8,3.3-4.6,8.6
			c-11,20.2-40.8,74-81.1,138.5c-19-60-33-93-33-93c57.7-114.2,87.4-189.4,87.4-189.4s0,0,0,0.1
			C1801.4,810.5,1821.6,867.9,1831.8,943.4z"/>
		<linearGradient id="SVGID_89_" gradientUnits="userSpaceOnUse" x1="1854.5831" y1="825.5691" x2="1477.6112" y2="1313.1741">
			<stop  offset="0" style="stop-color:#2F4954"/>
			<stop  offset="1" style="stop-color:#0E2835"/>
		</linearGradient>
		<path class="st91" d="M1780.6,855.2c0,0-131.1,270.5-231.7,431C1548.9,1286.3,1671.5,1146.3,1780.6,855.2z"/>
		<linearGradient id="SVGID_90_" gradientUnits="userSpaceOnUse" x1="1273.2667" y1="718.3098" x2="1118.767" y2="1135.4592">
			<stop  offset="0.1231" style="stop-color:#FFD65A"/>
			<stop  offset="0.9692" style="stop-color:#000000"/>
		</linearGradient>
		<path class="st92" d="M1831.8,943.4c0,0-1.6,3-4.6,8.6c-18.9-78.8-35.3-124.7-35.3-124.7c-538.5,61.6-1294.8,295.9-1312.4,301.2
			c16.7-5.6,694.2-232,1321.1-320.4c0,0,0,0,0,0.1C1801.4,810.5,1821.6,867.9,1831.8,943.4z"/>
		<linearGradient id="SVGID_91_" gradientUnits="userSpaceOnUse" x1="1472.3893" y1="899.2016" x2="1401.7552" y2="990.5651">
			<stop  offset="0" style="stop-color:#2F4954"/>
			<stop  offset="1" style="stop-color:#0E2835"/>
		</linearGradient>
		<path class="st93" d="M1449.3,978.5c-9.6,10.2-20.5,17.4-31.2,18c-33,1.9-25.4-54.1,6.2-83.4c9.1-8.4,20.2-14.6,32.9-16.6
			C1494,890.9,1477.7,948.1,1449.3,978.5z"/>
		<linearGradient id="SVGID_92_" gradientUnits="userSpaceOnUse" x1="1610.7213" y1="884.2032" x2="1540.0874" y2="975.5667">
			<stop  offset="0" style="stop-color:#2F4954"/>
			<stop  offset="1" style="stop-color:#0E2835"/>
		</linearGradient>
		<path class="st94" d="M1587.6,963.5c-9.6,10.2-20.5,17.4-31.2,18c-33,1.9-25.3-54.2,6.3-83.4c9.1-8.4,20.2-14.6,32.9-16.6
			C1632.3,875.9,1616,933.1,1587.6,963.5z"/>
		<linearGradient id="SVGID_93_" gradientUnits="userSpaceOnUse" x1="1423.0148" y1="974.665" x2="1423.0148" y2="920.1664">
			<stop  offset="0" style="stop-color:#C9B787"/>
			<stop  offset="1" style="stop-color:#0E2835"/>
		</linearGradient>
		<path class="st95" d="M1449.3,978.5c-9.6,10.2-20.5,17.4-31.2,18c-33,1.9-25.4-54.1,6.2-83.4c-27.9,30.1-33.4,81-1.9,79.1
			C1431.5,991.6,1440.8,986.3,1449.3,978.5z"/>
		<linearGradient id="SVGID_94_" gradientUnits="userSpaceOnUse" x1="1561.3457" y1="974.665" x2="1561.3457" y2="920.1664">
			<stop  offset="0" style="stop-color:#C9B787"/>
			<stop  offset="1" style="stop-color:#0E2835"/>
		</linearGradient>
		<path class="st96" d="M1587.6,963.5c-9.6,10.2-20.5,17.4-31.2,18c-33,1.9-25.3-54.2,6.3-83.4c-27.9,30.1-33.4,81-2,79.1
			C1569.9,976.6,1579.2,971.3,1587.6,963.5z"/>
	</g>
	<g>
		<g>
			<linearGradient id="SVGID_95_" gradientUnits="userSpaceOnUse" x1="1223.2463" y1="1337.7184" x2="1223.2463" y2="1710.3628">
				<stop  offset="0" style="stop-color:#4ABDCC"/>
				<stop  offset="1" style="stop-color:#0096AF"/>
			</linearGradient>
			<path class="st97" d="M1526,1315.9c-7.8,0.1-16.1,0.3-24.7,0.5c-96.3,2.1-238.6,6.5-358.3,10.4c-123.3,4-222.5,7.4-222.5,7.4
				s-0.4-2.9,0.2-7c1.7-12.8,12.2-37.9,69.4-29.6c64,9.3,94,9,101.7,8.7c0.4,0,0.8,0,1.1-0.1c0.6,0,0.9-0.1,0.9-0.1c0,0,0,0-0.1-0.1
				c-1.7-1.5-44.6-40.3,4.9-42.7c50-2.4,115.9,42.7,133,23.2c0,0,0,0,0,0c7.4-8.4-1.8-22.5-9.5-35.3c-10.1-16.8-17.5-31.2,19.3-27
				c45.8,5.2,81.2,30.6,98,45c-12.8-12.5-33.3-34.2-38.3-49.4c-4.9-15.3,5.9-24,56.2-10.2c110.8,30.4,157.8,90.8,166.8,103.7v0
				C1525.5,1315.1,1526,1315.9,1526,1315.9z"/>
			<linearGradient id="SVGID_96_" gradientUnits="userSpaceOnUse" x1="1312.1097" y1="1241.6799" x2="1312.1097" y2="1365.4559">
				<stop  offset="0" style="stop-color:#FFFFFF"/>
				<stop  offset="1" style="stop-color:#016778"/>
			</linearGradient>
			<path class="st98" d="M1501.3,1316.4c-96.3,2.1-238.6,6.5-358.3,10.4c-27.8-18.2-28.7-36.5,8.9-26c49.2,13.8,130.2,13,130.2,13
				s-54.2-51.4-3.6-47c50.6,4.3,117.9,34,117.9,34s-56.4-45.6-5.8-39.8C1430.4,1265.5,1481.3,1301.3,1501.3,1316.4z"/>
			<linearGradient id="SVGID_97_" gradientUnits="userSpaceOnUse" x1="1006.3442" y1="1252.7789" x2="1006.3442" y2="1314.6096">
				<stop  offset="0" style="stop-color:#4ABDCD"/>
				<stop  offset="1" style="stop-color:#000000"/>
			</linearGradient>
			<path class="st99" d="M1091.9,1306.3c-11.3,0.6-66.9,3.2-120.5-2.1c-27.2-2.7-42.3,9.2-50.6,23.1c1.7-12.8,12.2-37.9,69.4-29.6
				C1054.2,1306.9,1084.2,1306.6,1091.9,1306.3z"/>
			<linearGradient id="SVGID_98_" gradientUnits="userSpaceOnUse" x1="1153.4187" y1="1252.7789" x2="1153.4187" y2="1314.6096">
				<stop  offset="0" style="stop-color:#4ABDCD"/>
				<stop  offset="1" style="stop-color:#000000"/>
			</linearGradient>
			<path class="st100" d="M1231.8,1286.7c-2.1,6.4-9.1,11-27.1,7.3c-41.4-8.5-160.6-49.2-110.8,12.1c-1.7-1.5-44.6-40.3,4.9-42.7
				C1148.8,1261,1214.7,1306.1,1231.8,1286.7z"/>
			<linearGradient id="SVGID_99_" gradientUnits="userSpaceOnUse" x1="1276.8575" y1="1252.7789" x2="1276.8575" y2="1314.6096">
				<stop  offset="0" style="stop-color:#4ABDCD"/>
				<stop  offset="1" style="stop-color:#000000"/>
			</linearGradient>
			<path class="st101" d="M1241.6,1224.4c45.8,5.2,81.2,30.6,98,45c0,0-75.7-35.3-103.6-35.3c-14.5,0-15.7,8.9-13.6,17.4
				C1212.2,1234.6,1204.8,1220.2,1241.6,1224.4z"/>
			<linearGradient id="SVGID_100_" gradientUnits="userSpaceOnUse" x1="1412.326" y1="1252.7789" x2="1412.326" y2="1314.6096">
				<stop  offset="0" style="stop-color:#4ABDCD"/>
				<stop  offset="1" style="stop-color:#000000"/>
			</linearGradient>
			<path class="st102" d="M1524.4,1313.5c-23.7-21.1-90.5-76.1-161.6-93c-42.1-10-57.2-6.7-61.4-0.5c-4.9-15.3,5.9-24,56.2-10.2
				C1468.4,1240.1,1515.4,1300.6,1524.4,1313.5z"/>
		</g>
		<g>
			<linearGradient id="SVGID_101_" gradientUnits="userSpaceOnUse" x1="1606.6292" y1="1337.7184" x2="1606.6292" y2="1710.3628">
				<stop  offset="0" style="stop-color:#4ABDCC"/>
				<stop  offset="1" style="stop-color:#0096AF"/>
			</linearGradient>
			<path class="st103" d="M1687,1296.4c-3.4,10.4-37.1,26.9-37.1,26.9l-18.7-1.1c0,0,0,0,0,0l-45.2-2.7c0,0,0,0,0,0l-5.6-0.3
				l-39.2-2.3l-15.1-0.9c0,0,60.8-69,109.3-76.3c10.7-1.6,15.7,0.3,17,4.3c4.8,13.8-35.2,52.7-36.4,53.9c0,0,0,0,0.1,0
				c0.1,0,0.1,0,0.2-0.1c0,0,0.1,0,0.2-0.1c0,0,0,0,0.1,0c0.1,0,0.1-0.1,0.2-0.1c0.1,0,0.2-0.1,0.3-0.1c6.2-2.3,39.1-13.6,63.2-8.1
				C1686.3,1290.7,1688,1293.3,1687,1296.4z"/>
			<path class="st104" d="M1616.4,1297.6L1616.4,1297.6c-0.2,0.1-0.4,0.2-0.4,0.2v0c0,0,0,0,0.1,0c0.1,0,0.1,0,0.2-0.1
				C1616.2,1297.7,1616.2,1297.7,1616.4,1297.6z"/>
			<linearGradient id="SVGID_102_" gradientUnits="userSpaceOnUse" x1="1589.1807" y1="1252.7789" x2="1589.1807" y2="1314.6096">
				<stop  offset="0" style="stop-color:#4ABDCD"/>
				<stop  offset="1" style="stop-color:#000000"/>
			</linearGradient>
			<path class="st105" d="M1652.4,1243.9c-53.3-1.1-126.3,72-126.3,72s60.8-69,109.3-76.3C1646,1238,1651,1239.9,1652.4,1243.9z"/>
			<linearGradient id="SVGID_103_" gradientUnits="userSpaceOnUse" x1="1651.8512" y1="1252.7789" x2="1651.8512" y2="1314.6096">
				<stop  offset="0" style="stop-color:#4ABDCD"/>
				<stop  offset="1" style="stop-color:#000000"/>
			</linearGradient>
			<path class="st106" d="M1687,1296.4c-16.9-10.3-65.3-0.2-70.5,1.2c0.1,0,0.1-0.1,0.2-0.1c0.1,0,0.2-0.1,0.3-0.1
				c6.2-2.3,39.1-13.6,63.2-8.1C1686.3,1290.7,1688,1293.3,1687,1296.4z"/>
			<linearGradient id="SVGID_104_" gradientUnits="userSpaceOnUse" x1="1574.7643" y1="1241.6799" x2="1574.7643" y2="1365.4559">
				<stop  offset="0" style="stop-color:#FFFFFF"/>
				<stop  offset="1" style="stop-color:#016778"/>
			</linearGradient>
			<path class="st107" d="M1580.3,1319.1l-39.2-2.3c14.6-12.4,45.4-36.5,61.7-35C1620.2,1283.2,1592.8,1308.4,1580.3,1319.1z"/>
			<linearGradient id="SVGID_105_" gradientUnits="userSpaceOnUse" x1="1631.5209" y1="1273.7999" x2="1605.7833" y2="1349.0326">
				<stop  offset="0" style="stop-color:#FFFFFF"/>
				<stop  offset="1" style="stop-color:#016778"/>
			</linearGradient>
			<path class="st108" d="M1631.2,1322.2C1631.2,1322.2,1631.2,1322.2,1631.2,1322.2l-45.3-2.7c17-6.5,48.3-17.5,60.4-15.7
				C1657.4,1305.4,1642.7,1315.4,1631.2,1322.2z"/>
		</g>
	</g>
	<g>
		<linearGradient id="SVGID_106_" gradientUnits="userSpaceOnUse" x1="987.3268" y1="1337.7181" x2="987.3268" y2="1710.3652">
			<stop  offset="0" style="stop-color:#4ABDCC"/>
			<stop  offset="1" style="stop-color:#0096AF"/>
		</linearGradient>
		<path class="st109" d="M1905.2,1342.3c-12,9.4-46.6,23.3-123.2,43.7c-212.9,56.7-329.1,62.1-203.1,70.5
			c125.9,8.4,292.1,48.7-203.2,95.7c-495.3,47-599.4,11.8-428.1-36.9c171.2-48.7-397.9,6.7-596-13.4c-198.1-20.1-3.4-78.9-3.4-78.9
			s-300.7-1.2-283.1-22.6c3.3-4,18-8.8,48-14.4c0,0,111-10.9,285.5-24.2c296-22.6,774.8-52.1,1205-47.2c87.9,1,173.8,3.4,255.6,7.6
			C1859.2,1322.2,1929.7,1322.9,1905.2,1342.3z"/>
		<linearGradient id="SVGID_107_" gradientUnits="userSpaceOnUse" x1="1315.4902" y1="1283.5168" x2="1260.6007" y2="1695.1881">
			<stop  offset="0" style="stop-color:#FFFFFF"/>
			<stop  offset="1" style="stop-color:#016778"/>
		</linearGradient>
		<path class="st110" d="M1275.7,1476.8c-140.8,7.4-54.9,52,28.9,49.1S1412.9,1469.6,1275.7,1476.8z"/>
		<linearGradient id="SVGID_108_" gradientUnits="userSpaceOnUse" x1="1021.8958" y1="1244.371" x2="967.0063" y2="1656.0422">
			<stop  offset="0" style="stop-color:#FFFFFF"/>
			<stop  offset="1" style="stop-color:#016778"/>
		</linearGradient>
		<path class="st111" d="M1516.7,1351.5c-29.2,4.9-53.3,8.1-53.3,8.1c285.5,10.4,95.2,69.9-530.9,84.8s-272.2-50.6-272.2-50.6
			c-143.9,8.3-246-7.2-261.7-32c296-22.5,774.8-52.1,1205-47.2C1652.7,1325.6,1574.6,1341.8,1516.7,1351.5"/>
		<g>
			<path class="st112" d="M1175.6,1324.7c-49.5,3.6-7.2,19.3-7.2,19.3s-117.2,0-164.3,8.5c-47.1,8.5-18.1,31.4-115.9,25.4
				s-132.9,14.5-164.3,1.2"/>
			<path class="st112" d="M1507.1,1320.2c0,0-271,9.8-285.6,15.9c-14.6,6.1,65.9,19.5,65.9,19.5s-29.3,4.9-169.7,14.6
				s-56.1,24.4-56.1,24.4s-96.4,12.2-184.3,2.4s-122.1,33-173.3,28.1"/>
		</g>
		<linearGradient id="SVGID_109_" gradientUnits="userSpaceOnUse" x1="659.8405" y1="1337.7184" x2="659.8405" y2="1710.3628">
			<stop  offset="0" style="stop-color:#4ABDCC"/>
			<stop  offset="1" style="stop-color:#0096AF"/>
		</linearGradient>
		<path class="st113" d="M655.8,1535c-197.9,3.5-151.7,55,19.3,46.1S825.4,1532.1,655.8,1535z"/>
		<linearGradient id="SVGID_110_" gradientUnits="userSpaceOnUse" x1="987.7006" y1="1298.0308" x2="987.7006" y2="1466.7081">
			<stop  offset="0" style="stop-color:#4ABDCD"/>
			<stop  offset="1" style="stop-color:#000000"/>
		</linearGradient>
		<path class="st114" d="M1905.2,1342.3c-737.5-43.1-1743.2,48.9-1840.1,58.1c3.3-4,18-8.8,48-14.4c0,0,111-10.9,285.5-24.2
			c296-22.6,774.8-52.1,1205-47.2c87.9,1,173.8,3.4,255.6,7.6C1859.2,1322.2,1929.7,1322.9,1905.2,1342.3z"/>
	</g>
	<g>
		<linearGradient id="SVGID_111_" gradientUnits="userSpaceOnUse" x1="163.6516" y1="1051.2614" x2="227.729" y2="1416.6753">
			<stop  offset="0" style="stop-color:#4ABDCC"/>
			<stop  offset="1" style="stop-color:#0096AF"/>
		</linearGradient>
		<circle class="st115" cx="187.4" cy="1186.5" r="22.9"/>
		<linearGradient id="SVGID_112_" gradientUnits="userSpaceOnUse" x1="163.9154" y1="1004.4363" x2="262.9417" y2="1569.1536">
			<stop  offset="0.1231" style="stop-color:#FFD65A"/>
			<stop  offset="0.9692" style="stop-color:#F69139"/>
		</linearGradient>
		<circle class="st116" cx="212.5" cy="1281.5" r="8"/>
		<linearGradient id="SVGID_113_" gradientUnits="userSpaceOnUse" x1="290.0172" y1="907.9458" x2="354.0945" y2="1273.3597">
			<stop  offset="0" style="stop-color:#4ABDCC"/>
			<stop  offset="1" style="stop-color:#0096AF"/>
		</linearGradient>
		<circle class="st117" cx="350.8" cy="1254.4" r="11.4"/>
		<linearGradient id="SVGID_114_" gradientUnits="userSpaceOnUse" x1="589.7693" y1="791.53" x2="599.7797" y2="848.6163">
			<stop  offset="0" style="stop-color:#4ABDCC"/>
			<stop  offset="1" style="stop-color:#0096AF"/>
		</linearGradient>
		<circle class="st118" cx="598" cy="838.7" r="4.6"/>
		<linearGradient id="SVGID_115_" gradientUnits="userSpaceOnUse" x1="566.9376" y1="505.7462" x2="635.8458" y2="898.7093">
			<stop  offset="0.1231" style="stop-color:#FFD65A"/>
			<stop  offset="0.9692" style="stop-color:#F69139"/>
		</linearGradient>
		<circle class="st119" cx="642.9" cy="938.9" r="11.2"/>
		<linearGradient id="SVGID_116_" gradientUnits="userSpaceOnUse" x1="629.3021" y1="272.8509" x2="728.6848" y2="839.6003">
			<stop  offset="0" style="stop-color:#4ABDCC"/>
			<stop  offset="1" style="stop-color:#0096AF"/>
		</linearGradient>
		<circle class="st120" cx="744.5" cy="929.7" r="11.3"/>
	</g>
	<g>
		
			<image style="overflow:visible;" width="6607" height="2796" xlink:href="74A19885629A0ADE.png"  transform="matrix(0.24 0 0 0.24 395.12 525.7553)">
		</image>
	</g>
</g>
</svg>
