<svg xmlns="http://www.w3.org/2000/svg" xmlns:xlink="http://www.w3.org/1999/xlink" viewBox="0 0 500 500"><defs><style>.cls-1,.cls-4,.cls-5{fill:none;}.cls-2{opacity:0.06;}.cls-3{clip-path:url(#clip-path);}.cls-4,.cls-5{stroke:#f7fafb;stroke-linecap:round;stroke-width:2px;}.cls-4{stroke-miterlimit:10;}.cls-5{stroke-linejoin:round;}.cls-6{fill:#f7fafb;}.cls-7{clip-path:url(#clip-path-2);}</style><clipPath id="clip-path"><rect class="cls-1" width="500" height="500"/></clipPath><clipPath id="clip-path-2"><rect class="cls-1" x="-8" y="56.91" width="516" height="516"/></clipPath></defs><g id="OBJECTS"><g class="cls-2"><g class="cls-3"><path class="cls-4" d="M159.47,56.93c5.56-5.07,11.31-10,15.58-15.4A98.64,98.64,0,0,0,193.38,3.37c2.43-10.27,2.34-20.9,2.49-31.38.12-8.81-1.39-20.09,6.88-25.81,15.91-11,23.93,12.15,26.86,23.83C241.2,16.22,235.61,77.5,185.82,99c-10,4.29-22.88,7.87-33.62,4.49-8.56-2.68-12.37-10.35-11.16-18.91C142.67,73.08,150.85,64.78,159.47,56.93Z"/><path class="cls-4" d="M151.27,64.14a2.66,2.66,0,0,1,3.81-3.64"/><path class="cls-4" d="M151.35,81a3,3,0,1,0,4-3.14"/><path class="cls-4" d="M176.36,58.34a4.5,4.5,0,1,0,3.69-7.87"/><path class="cls-4" d="M178.61,36.45a2.25,2.25,0,1,1,2.18-3.91"/><path class="cls-4" d="M185,75.81a3.74,3.74,0,1,1,6.84,2.74"/><path class="cls-4" d="M174.7,94.22a2.07,2.07,0,1,1,3.82-1.39"/><path class="cls-4" d="M155.26,103.79a2.67,2.67,0,0,1,5.27.41"/><path class="cls-4" d="M193.84,95a3.35,3.35,0,0,0,3.49,2,4.4,4.4,0,0,0,3.29-2.52,6.67,6.67,0,0,0,.38-4.23"/><path class="cls-4" d="M210.39,69a1.67,1.67,0,1,1,3.31-.48"/><path class="cls-4" d="M200.76,45.12a2.76,2.76,0,0,1,5.15,1.39"/><path class="cls-4" d="M191.84,33.86a2.09,2.09,0,1,1,1.95-3.61"/><path class="cls-4" d="M217.41,24.91a1.81,1.81,0,0,1,3.23,1.58"/><path class="cls-4" d="M222.09,37.15a2.88,2.88,0,0,1-.3,5.72"/><path class="cls-4" d="M202.31,21.23a1.34,1.34,0,1,1,2-.91"/><path class="cls-4" d="M225.67,7.82a1.76,1.76,0,1,1,3.52.1,1.82,1.82,0,0,1-1.88,1.67"/><path class="cls-4" d="M201.82,6.23a2.06,2.06,0,0,1-.29-3.15,2,2,0,0,1,3.08.7"/><path class="cls-4" d="M193.45.17a2.78,2.78,0,0,0-2.32,2.16,2.79,2.79,0,0,0,1.34,2.87"/><path class="cls-4" d="M234.41,23.17A6.6,6.6,0,0,0,237,20c.35-1.35-.6-3.09-2-3"/><path class="cls-4" d="M226.7,56.13a2.45,2.45,0,0,0,3-.27,3.37,3.37,0,0,0,.91-3,5.66,5.66,0,0,0-1.5-2.87"/><path class="cls-4" d="M214.84,77.19a4.53,4.53,0,0,0,4.54-6.86"/><path class="cls-4" d="M358.45,73.41c-4.56-.89-9.11-1.93-13.38-2a61,61,0,0,0-25.69,5c-6,2.58-11.22,6.55-16.47,10.35-4.41,3.19-9.45,8.1-15.34,6.11-11.32-3.83-2.81-16.35,1.91-22.12,18.63-22.79,51.07-42.63,80.08-25.86,5.8,3.35,12.34,8.44,14.64,15,1.82,5.23-.57,9.95-5.26,12.51C372.66,75.78,365.53,74.78,358.45,73.41Z"/><path class="cls-4" d="M365.05,74.82a1.64,1.64,0,0,1-3.21-.55"/><path class="cls-4" d="M373.4,68.54a1.85,1.85,0,1,0-3-.8"/><path class="cls-4" d="M352.92,64.51a2.78,2.78,0,1,0-5.26,1.08"/><path class="cls-4" d="M341.24,71.48a1.39,1.39,0,1,1-2.75.36"/><path class="cls-4" d="M358.38,53.77a2.31,2.31,0,1,1-1.16-4.4"/><path class="cls-4" d="M371.32,52.1a1.28,1.28,0,1,1-2.1-1.39"/><path class="cls-4" d="M383.24,58.2a1.65,1.65,0,0,1-1.74-2.76"/><path class="cls-4" d="M364.66,42.3a2,2,0,0,0-.3-2.45,2.72,2.72,0,0,0-2.47-.71,4.11,4.11,0,0,0-2.23,1.38"/><path class="cls-4" d="M345.65,43.71a1,1,0,0,1-1.46-1.47"/><path class="cls-4" d="M337.36,57.29a1.7,1.7,0,0,1-1.21-3.06"/><path class="cls-4" d="M335.07,65.87a1.29,1.29,0,1,1-2.51.37"/><path class="cls-4" d="M321.2,56.5a1.16,1.16,0,0,1-1.17-.91,1.18,1.18,0,0,1,.76-1.28"/><path class="cls-4" d="M325.54,49.66a1.83,1.83,0,0,1,.58-2.32,1.85,1.85,0,0,1,2.37.36"/><path class="cls-4" d="M324.94,65.34a.83.83,0,1,1-1.2-.67"/><path class="cls-4" d="M309.68,58.71a1.09,1.09,0,1,1-1.26-1.78,1.13,1.13,0,0,1,1.53.31"/><path class="cls-4" d="M317.69,71.12a1.21,1.21,0,1,1-2.25-.48"/><path class="cls-4" d="M303.52,74.67a1.18,1.18,0,1,0,.42-2.17"/><path class="cls-4" d="M295.59,74.47a1.06,1.06,0,1,1,1.08-1.81"/><path class="cls-4" d="M298.06,84.56a1.17,1.17,0,1,0,.25-2.12"/><path class="cls-4" d="M288.43,89.14a.73.73,0,1,1-.28-1.32"/><path class="cls-4" d="M296.73,91.55a1.68,1.68,0,0,0,2.58-2.09"/><path class="cls-4" d="M287.15,73.84a1.73,1.73,0,0,1-.25-1.93,1.76,1.76,0,0,1,1.73-.91"/><path class="cls-4" d="M317.77,77.51a1.73,1.73,0,0,0,1.93.35,1.7,1.7,0,0,0,.92-1.72"/><path class="cls-4" d="M314.06,48.71a4.14,4.14,0,0,0-2.53-.1c-.8.33-1.31,1.44-.74,2.08"/><path class="cls-4" d="M333.24,40.37A1.5,1.5,0,0,0,332,39a2.12,2.12,0,0,0-1.83.66,3.57,3.57,0,0,0-.87,1.81"/><path class="cls-4" d="M348.06,38.48a2.8,2.8,0,0,0-5.07.28"/><path class="cls-4" d="M489.4,242.67c4.43,1.43,8.81,3,13,3.63a61.1,61.1,0,0,0,26.1-1.89c6.25-1.85,11.92-5.17,17.59-8.31,4.76-2.64,10.35-6.92,16-4.24,10.78,5.16.83,16.57-4.53,21.73-21.22,20.41-55.8,36.24-82.6,16.12-5.36-4-11.25-9.85-12.74-16.65-1.19-5.41,1.75-9.81,6.71-11.79C475.58,238.62,482.54,240.46,489.4,242.67Z"/><path class="cls-4" d="M483,240.49a1.64,1.64,0,0,1,3.12.93"/><path class="cls-4" d="M474,245.72a1.85,1.85,0,1,0,2.9,1.16"/><path class="cls-4" d="M493.83,252.16a2.78,2.78,0,1,0,5.35-.43"/><path class="cls-4" d="M487.12,262.18a2.31,2.31,0,1,1,.63,4.5"/><path class="cls-4" d="M474.08,262.29a1.28,1.28,0,1,1,1.92,1.63"/><path class="cls-4" d="M463,254.81a1.65,1.65,0,0,1,1.4,2.95"/><path class="cls-4" d="M479.52,272.81a2.06,2.06,0,0,0,0,2.48,2.7,2.7,0,0,0,2.36,1,4,4,0,0,0,2.38-1.1"/><path class="cls-4" d="M498.56,273.69a1,1,0,1,1,1.27,1.63"/><path class="cls-4" d="M495.54,278.59a2.79,2.79,0,0,0,5.07.32"/><path class="cls-4" d="M7,270.78c-4.27-1.86-8.48-3.87-12.62-4.9a60.92,60.92,0,0,0-26.16-.72c-6.41,1.22-12.38,4-18.33,6.52-5,2.15-11,5.85-16.3,2.63-10.22-6.2.81-16.57,6.67-21.17,23.14-18.2,59.12-30.51,83.79-7.83,4.93,4.53,10.21,10.92,11,17.83.64,5.51-2.72,9.59-7.85,11.07C20.36,276.18,13.62,273.66,7,270.78Z"/><path class="cls-4" d="M13.15,273.59a1.64,1.64,0,0,1-3-1.24"/><path class="cls-4" d="M22.66,269.28a1.85,1.85,0,1,0-2.77-1.44"/><path class="cls-4" d="M3.55,260.89a2.85,2.85,0,0,0-1-3,2.87,2.87,0,0,0-3.19-.06,2.84,2.84,0,0,0-1.14,3"/><path class="cls-4" d="M11.22,251.6a2.31,2.31,0,1,1-.18-4.55"/><path class="cls-4" d="M24.21,252.78A1.28,1.28,0,1,1,22.46,251"/><path class="cls-4" d="M34.52,261.33a1.65,1.65,0,0,1-1.11-3.08"/><path class="cls-4" d="M19.84,241.77a2.06,2.06,0,0,0,.23-2.47,2.74,2.74,0,0,0-2.25-1.22,4.1,4.1,0,0,0-2.48.86"/><path class="cls-4" d="M1,239a1.07,1.07,0,0,1-1.43-.32,1.07,1.07,0,0,1,.32-1.43"/><path class="cls-4" d="M4.47,234.43a2.86,2.86,0,0,0-2.24-2A2.88,2.88,0,0,0-.55,233.6"/><path class="cls-4" d="M104.29,169.41c1,4.53,1.95,9.11,3.6,13.05a60.92,60.92,0,0,0,15,21.41c4.81,4.41,10.57,7.57,16.18,10.81,4.71,2.73,11.25,5.32,11.84,11.51,1.13,11.89-13.78,9.24-21,7.29-28.41-7.7-59.77-29.21-56.31-62.54.69-6.67,2.67-14.72,7.73-19.49,4-3.81,9.32-3.54,13.56-.31C100.65,155.47,102.65,162.39,104.29,169.41Z"/><path class="cls-4" d="M102.88,162.81a1.65,1.65,0,0,1,.81,3.16"/><path class="cls-4" d="M93.74,157.76a1.85,1.85,0,1,0,.5,3.08"/><path class="cls-4" d="M98.43,178.09a2.79,2.79,0,0,0,0,5.23,2.89,2.89,0,0,0,3.08-.86"/><path class="cls-4" d="M109.56,185.91a1.39,1.39,0,1,1,1.45,2.36"/><path class="cls-4" d="M86.39,177.49a2.31,2.31,0,1,1-3.54,2.86"/><path class="cls-4" d="M79.58,166.37a1.28,1.28,0,1,1-.41,2.48"/><path class="cls-4" d="M80.29,153a1.65,1.65,0,0,1-1.82,2.72"/><path class="cls-4" d="M73.36,176.44a2.06,2.06,0,0,0-2.12,1.29,2.74,2.74,0,0,0,.36,2.53,4.11,4.11,0,0,0,2.17,1.48"/><path class="cls-4" d="M82.4,193.22a1,1,0,0,1-.74,1.94"/><path class="cls-4" d="M98.19,195.24a1.71,1.71,0,0,1-2.31,2.36"/><path class="cls-4" d="M107,193.83a1.29,1.29,0,1,1,1.36,2.14"/><path class="cls-4" d="M104.07,210.32a1.18,1.18,0,0,1-.36,1.44,1.16,1.16,0,0,1-1.47-.17"/><path class="cls-4" d="M96.05,209.16a1.78,1.78,0,0,1-3-1.9"/><path class="cls-4" d="M110.61,203.29a.83.83,0,1,1-.13,1.38"/><path class="cls-4" d="M110.79,219.94a1.09,1.09,0,1,1-1.12,1.87,1.14,1.14,0,0,1-.34-1.52"/><path class="cls-4" d="M118.84,207.56a1.21,1.21,0,1,1,.48,2.24"/><path class="cls-4" d="M127.87,219a1.18,1.18,0,1,0-2.15.5"/><path class="cls-4" d="M130.92,226.36a1.06,1.06,0,1,1-2.09-.25"/><path class="cls-4" d="M139.13,220a1.17,1.17,0,1,0-2,.64"/><path class="cls-4" d="M147.24,226.9a.73.73,0,1,1-1.09.8"/><path class="cls-4" d="M146.05,218.34a1.69,1.69,0,0,0-3-1.5"/><path class="cls-4" d="M133.8,234.32a1.71,1.71,0,0,1-3.2-.19"/><path class="cls-4" d="M124.64,204.87a1.66,1.66,0,0,0-2.42-2"/><path class="cls-4" d="M99.87,220a4,4,0,0,0,.94,2.35c.62.6,1.85.61,2.2-.17"/><path class="cls-4" d="M84.42,205.91a1.51,1.51,0,0,0-.76,1.71A2.1,2.1,0,0,0,85,209a3.58,3.58,0,0,0,2,.06"/><path class="cls-4" d="M76.65,193.16A2.79,2.79,0,0,0,79,197.67"/><path class="cls-5" d="M110.94,126.27c.59-1.75,9.72-2.93,12.72-5.27a15.74,15.74,0,0,0,6.14-9.33,7.22,7.22,0,0,0-1.33-6,6.93,6.93,0,0,0-5.4-2,19.84,19.84,0,0,0-5.75,1.14c4.46-2,9-4,12.67-7.14A12.92,12.92,0,0,0,134.43,91c.6-2.64-.26-5.73-2.55-7.16s-7.11-1-7.9,1.54c1-4.35,2.07-8.92,1-13.25a10.27,10.27,0,0,0-7.6-7.65C112,63.36,107,65.55,104.88,70.71c-1.7,4.15-1.31,8.81-.9,13.26-.42-2.67-5.13-3.73-7.6-2.62s-3.75,4-3.53,6.74a12.9,12.9,0,0,0,3.48,7.17c3.2,3.67,7.41,6.28,11.56,8.83a19.94,19.94,0,0,0-5.54-1.93,7,7,0,0,0-5.63,1.25,7.24,7.24,0,0,0-2.16,5.8c.13,3.81,2.14,7.35,4.79,10.09s11.25,5.15,11.59,7Z"/><path class="cls-5" d="M113.34,82.57q-2.46,25.11-2.44,50.38"/><path class="cls-5" d="M111.29,120.14a28.42,28.42,0,0,0,11.64-7.81"/><path class="cls-5" d="M110.76,118.09A14.67,14.67,0,0,1,99,111.17"/><path class="cls-5" d="M111.81,110.93a11.73,11.73,0,0,0,3.75-2.42"/><path class="cls-5" d="M112.3,101.63a20.38,20.38,0,0,0,10.21-10.26"/><path class="cls-5" d="M112,96.84a19.93,19.93,0,0,1-12-10.45"/><path class="cls-5" d="M113.07,89.09a24.2,24.2,0,0,0,7.37-11"/><path class="cls-5" d="M113,84.68a10.2,10.2,0,0,1-5.23-9.41"/><path class="cls-5" d="M255.79,146.89c.48,1.78-6.4,7.87-7.57,11.5s-1.41,7.69.15,11.16a7.27,7.27,0,0,0,4.5,4.26,6.92,6.92,0,0,0,5.6-1.37,19.86,19.86,0,0,0,4.12-4.17c-2.59,4.12-5.22,8.32-6.48,13a13,13,0,0,0,.05,8c1,2.51,3.43,4.59,6.13,4.49s6.47-3.13,5.67-5.71c1.59,4.18,3.3,8.54,6.65,11.5a10.25,10.25,0,0,0,10.58,2.06c5-2.07,8-6.7,6.81-12.16-.92-4.38-3.86-8-6.71-11.48,1.85,2,6.35.21,7.77-2.09s.83-5.46-.87-7.56a12.86,12.86,0,0,0-6.91-4c-4.7-1.24-9.65-1-14.51-.82a20.17,20.17,0,0,0,5.66-1.51,6.93,6.93,0,0,0,4-4.2,7.25,7.25,0,0,0-1.47-6,15.78,15.78,0,0,0-9.63-5.66c-3.73-.78-12.2,2.05-13.5.75Z"/><path class="cls-5" d="M278.33,184.39q-12.06-22.15-26.27-43.06"/><path class="cls-5" d="M258.93,152.15a28.56,28.56,0,0,0-5.24,13"/><path class="cls-5" d="M260.52,153.55a14.7,14.7,0,0,1,13.66-.91"/><path class="cls-5" d="M263.68,160.07a11.65,11.65,0,0,0-1.75,4.1"/><path class="cls-5" d="M268.5,168a20.32,20.32,0,0,0-2.69,14.22"/><path class="cls-5" d="M271.41,171.85a20,20,0,0,1,15.81,1.9"/><path class="cls-5" d="M274.9,178.85a24.13,24.13,0,0,0,.1,13.27"/><path class="cls-5" d="M277.44,182.45a10.19,10.19,0,0,1,9.6,4.85"/><path class="cls-5" d="M415.87,191.38c-.44,1.79-9.42,3.76-12.21,6.36a15.75,15.75,0,0,0-5.31,9.82,7.23,7.23,0,0,0,1.85,5.9,6.93,6.93,0,0,0,5.57,1.55,20.15,20.15,0,0,0,5.62-1.64c-4.27,2.34-8.61,4.72-12,8.21a13,13,0,0,0-3.85,7c-.36,2.68.76,5.68,3.17,6.91s7.17.42,7.73-2.22c-.65,4.43-1.28,9.06.2,13.29a10.26,10.26,0,0,0,8.24,6.95c5.4.65,10.21-2,11.87-7.3,1.33-4.28.54-8.89-.26-13.29.65,2.62,5.44,3.27,7.8,2s3.39-4.35,2.93-7a12.89,12.89,0,0,0-4.09-6.84c-3.51-3.38-7.93-5.61-12.28-7.79a19.67,19.67,0,0,0,5.68,1.43,6.89,6.89,0,0,0,5.5-1.73,7.22,7.22,0,0,0,1.64-6c-.46-3.78-2.77-7.14-5.64-9.64s-11.66-4.15-12.16-5.93Z"/><path class="cls-5" d="M417.28,235.12c.18-16.82-.47-33.65-1.95-50.4"/><path class="cls-5" d="M416.05,197.52a28.48,28.48,0,0,0-10.91,8.79"/><path class="cls-5" d="M416.76,199.51a14.67,14.67,0,0,1,12.37,5.86"/><path class="cls-5" d="M416.34,206.74a11.75,11.75,0,0,0-3.53,2.73"/><path class="cls-5" d="M416.67,216.05a20.29,20.29,0,0,0-9.29,11.11"/><path class="cls-5" d="M417.34,220.79a19.94,19.94,0,0,1,12.89,9.37"/><path class="cls-5" d="M417,228.61a24.18,24.18,0,0,0-6.39,11.63"/><path class="cls-5" d="M417.45,233a10.2,10.2,0,0,1,6,8.92"/><path class="cls-5" d="M280.2-14.41c.49,1.77-6.4,7.87-7.57,11.5a15.71,15.71,0,0,0,.16,11.16,7.19,7.19,0,0,0,4.49,4.25,6.89,6.89,0,0,0,5.61-1.36A19.82,19.82,0,0,0,287,7c-2.59,4.12-5.22,8.32-6.47,13a12.91,12.91,0,0,0,0,8c1,2.52,3.44,4.6,6.14,4.5s6.46-3.13,5.66-5.71c1.59,4.18,3.3,8.54,6.65,11.5a10.26,10.26,0,0,0,10.59,2.06c5-2.07,7.95-6.7,6.8-12.16-.92-4.38-3.86-8-6.7-11.48,1.85,2,6.34.21,7.76-2.09s.84-5.46-.86-7.56a12.9,12.9,0,0,0-6.91-4C305,1.8,300,2,295.18,2.22A19.77,19.77,0,0,0,300.84.7a6.91,6.91,0,0,0,4-4.19,7.21,7.21,0,0,0-1.47-6,15.78,15.78,0,0,0-9.63-5.66c-3.72-.78-12.2,2.05-13.5.75Z"/><path class="cls-5" d="M302.75,23.09Q290.69.93,276.48-20"/><path class="cls-5" d="M283.35-9.15a28.46,28.46,0,0,0-5.25,13"/><path class="cls-5" d="M288.09-1.23a11.63,11.63,0,0,0-1.74,4.1"/><path class="cls-5" d="M292.91,6.74A20.32,20.32,0,0,0,290.22,21"/><path class="cls-5" d="M295.82,10.55a20,20,0,0,1,15.81,1.9"/><path class="cls-5" d="M299.31,17.55a24.23,24.23,0,0,0,.1,13.27"/><path class="cls-5" d="M301.85,21.15A10.22,10.22,0,0,1,311.46,26"/><path class="cls-5" d="M218.82,225.81c-1.4-1.19.87-10.1-.2-13.76a15.71,15.71,0,0,0-6.39-9.15,7.23,7.23,0,0,0-6.11-1,6.92,6.92,0,0,0-3.87,4.28,19.82,19.82,0,0,0-1.07,5.76c-.17-4.86-.35-9.81-2-14.41a12.9,12.9,0,0,0-4.51-6.57c-2.23-1.53-5.42-1.87-7.6-.28s-3.59,6.22-1.48,7.91c-3.67-2.57-7.53-5.21-12-5.78a10.25,10.25,0,0,0-9.91,4.23c-3,4.54-2.82,10,1.2,13.89,3.22,3.11,7.7,4.47,12,5.73-2.64-.59-5.36,3.4-5.25,6.1s2.37,5,5,5.76a12.86,12.86,0,0,0,8-.58c4.59-1.62,8.57-4.57,12.48-7.48a20.09,20.09,0,0,0-3.84,4.44,6.91,6.91,0,0,0-.92,5.69,7.25,7.25,0,0,0,4.59,4.15c3.59,1.28,7.63.72,11.15-.72s8.94-8.55,10.75-8.21Z"/><path class="cls-5" d="M179.1,207.44Q201.54,219,225,228.32"/><path class="cls-5" d="M213.26,223.22a28.43,28.43,0,0,0-3-13.7"/><path class="cls-5" d="M211.16,223a14.65,14.65,0,0,1-10.79,8.42"/><path class="cls-5" d="M204.89,219.34A11.74,11.74,0,0,0,204,215"/><path class="cls-5" d="M196.42,215.45a20.28,20.28,0,0,0-5.76-13.28"/><path class="cls-5" d="M191.88,213.93a19.94,19.94,0,0,1-14.15,7.31"/><path class="cls-5" d="M185.06,210.1a24.19,24.19,0,0,0-7.53-10.92"/><path class="cls-5" d="M180.93,208.54a10.17,10.17,0,0,1-10.67,1.39"/><path class="cls-5" d="M348.4,266.26c1.13-1.45,10.13.43,13.74-.79s7-3.47,8.86-6.79a7.22,7.22,0,0,0,.73-6.15,6.93,6.93,0,0,0-4.44-3.68,20,20,0,0,0-5.8-.81c4.85-.38,9.79-.78,14.31-2.58a12.88,12.88,0,0,0,6.37-4.8c1.43-2.29,1.63-5.49-.06-7.6s-6.37-3.32-8-1.14c2.4-3.77,4.88-7.74,5.26-12.2a10.27,10.27,0,0,0-4.67-9.72c-4.67-2.8-10.13-2.38-13.82,1.8-3,3.36-4.13,7.89-5.21,12.23.48-2.66-3.62-5.21-6.31-5s-4.88,2.59-5.55,5.21a12.92,12.92,0,0,0,.93,7.92c1.82,4.52,4.94,8.36,8,12.14a19.69,19.69,0,0,0-4.59-3.64,6.91,6.91,0,0,0-5.73-.67,7.22,7.22,0,0,0-3.94,4.76c-1.13,3.64-.4,7.65,1.2,11.11s8.93,8.56,8.67,10.38Z"/><path class="cls-5" d="M365,225.78q-10.57,22.92-18.86,46.79"/><path class="cls-5" d="M350.74,260.59A28.36,28.36,0,0,0,364.3,257"/><path class="cls-5" d="M350.91,258.48A14.66,14.66,0,0,1,342,248.07"/><path class="cls-5" d="M354.26,252.06a11.62,11.62,0,0,0,4.33-1.05"/><path class="cls-5" d="M357.77,243.44a20.33,20.33,0,0,0,13-6.34"/><path class="cls-5" d="M359.1,238.83A19.9,19.9,0,0,1,351.18,225"/><path class="cls-5" d="M362.62,231.85a24.18,24.18,0,0,0,10.59-8"/><path class="cls-5" d="M364,227.66a10.18,10.18,0,0,1-1.85-10.6"/><path class="cls-5" d="M395.34,25c-1.41-1.2.87-10.11-.2-13.77a15.77,15.77,0,0,0-6.4-9.15,7.23,7.23,0,0,0-6.11-1,6.93,6.93,0,0,0-3.87,4.27,20.16,20.16,0,0,0-1.07,5.76c-.16-4.86-.35-9.81-1.95-14.41a12.9,12.9,0,0,0-4.51-6.57c-2.23-1.53-5.42-1.87-7.6-.27S360-3.94,362.15-2.25c-3.67-2.57-7.53-5.22-12-5.79a10.26,10.26,0,0,0-9.91,4.24c-3,4.54-2.82,10,1.2,13.89,3.22,3.11,7.7,4.47,12,5.73-2.63-.6-5.36,3.39-5.25,6.09s2.38,5,5,5.77a12.89,12.89,0,0,0,8-.59c4.59-1.62,8.57-4.57,12.47-7.47a19.52,19.52,0,0,0-3.83,4.43,6.93,6.93,0,0,0-.93,5.7,7.25,7.25,0,0,0,4.6,4.14,15.74,15.74,0,0,0,11.14-.72c3.52-1.45,8.94-8.55,10.76-8.2Z"/><path class="cls-5" d="M355.62,6.6Q378,18.17,401.54,27.47"/><path class="cls-5" d="M389.77,22.38a28.48,28.48,0,0,0-2.95-13.7"/><path class="cls-5" d="M387.67,22.12a14.69,14.69,0,0,1-10.79,8.42"/><path class="cls-5" d="M381.4,18.49a11.59,11.59,0,0,0-.86-4.38"/><path class="cls-5" d="M372.94,14.61a20.4,20.4,0,0,0-5.76-13.29"/><path class="cls-5" d="M368.39,13.08a19.93,19.93,0,0,1-14.15,7.31"/><path class="cls-5" d="M361.57,9.25A24.25,24.25,0,0,0,354-1.67"/><path class="cls-5" d="M357.45,7.7a10.19,10.19,0,0,1-10.67,1.38"/><path class="cls-5" d="M17.71,46.28c1.3,2.44-6.79,13.62-7.32,19.31s.47,11.72,3.89,16.29c1.91,2.57,4.76,4.67,8,4.76A10.38,10.38,0,0,0,30,82.81a30,30,0,0,0,4.67-7.45c-2.45,6.87-4.92,13.88-5.22,21.17-.17,4.06.4,8.3,2.67,11.66s6.53,5.6,10.45,4.57S51,106.07,49,102.55c3.7,5.6,7.62,11.42,13.5,14.67,5,2.77,11.39,2.88,16.16-.45,6.7-4.68,9.46-12.42,6-20-2.78-6.11-8.28-10.48-13.58-14.6,3.36,2.28,9.36-1.78,10.69-5.61S81.19,68.26,78,65.74s-7.37-3.42-11.42-3.57c-7.29-.27-14.47,1.65-21.52,3.55a29.79,29.79,0,0,0,7.79-4.06,10.41,10.41,0,0,0,4.43-7.44c.15-3.2-1.72-6.21-4.12-8.32-4.3-3.76-10.24-5.22-16-5.14s-17.19,7-19.52,5.52Z"/><path class="cls-5" d="M63,93.8Q38.08,65.3,10.44,39.36"/><path class="cls-5" d="M24,53A42.65,42.65,0,0,0,20.61,73.7"/><path class="cls-5" d="M26.83,54.48a22,22,0,0,1,19.69-5.8"/><path class="cls-5" d="M33.58,63a17.46,17.46,0,0,0-1.22,6.58"/><path class="cls-5" d="M43.24,73.08A30.52,30.52,0,0,0,44,94.78"/><path class="cls-5" d="M48.74,77.71a29.88,29.88,0,0,1,23.77-2.39"/><path class="cls-5" d="M56.15,86.81a36.22,36.22,0,0,0,4.48,19.39"/><path class="cls-5" d="M61,91.26a15.28,15.28,0,0,1,15.65,3.95"/><path class="cls-5" d="M512.94,136.67c-2.39,1.4-13.91-6.19-19.61-6.46s-11.69,1-16.11,4.58c-2.48,2-4.46,5-4.41,8.17a10.39,10.39,0,0,0,4.17,7.59,30.09,30.09,0,0,0,7.65,4.33c-7-2.14-14.09-4.31-21.39-4.29-4.06,0-8.27.77-11.53,3.18s-5.31,6.76-4.11,10.64,7,8.14,10.48,6c-5.43,3.94-11.07,8.12-14.06,14.13-2.56,5.14-2.39,11.51,1.15,16.13,5,6.48,12.81,8.9,20.28,5.1,6-3,10.11-8.72,14-14.19-2.14,3.45,2.18,9.27,6.07,10.43s8.22-.93,10.6-4.21,3.1-7.5,3.07-11.56c-.05-7.3-2.28-14.39-4.49-21.35a29.94,29.94,0,0,0,4.41,7.61,10.36,10.36,0,0,0,7.62,4.1c3.2,0,6.12-2,8.13-4.48,3.57-4.46,4.76-10.45,4.43-16.15s-7.73-16.87-6.35-19.27Z"/><path class="cls-5" d="M467.43,184q27.39-26.13,52.1-54.87"/><path class="cls-5" d="M506.54,143.29a42.68,42.68,0,0,0-20.87-2.52"/><path class="cls-5" d="M496.93,153.25a17.36,17.36,0,0,0-6.63-.92"/><path class="cls-5" d="M487.28,163.35A30.48,30.48,0,0,0,465.62,165"/><path class="cls-5" d="M482.89,169.05a29.89,29.89,0,0,1,3.42,23.64"/><path class="cls-5" d="M474.12,176.84a36.34,36.34,0,0,0-19.18,5.32"/><path class="cls-5" d="M469.89,181.92a15.28,15.28,0,0,1-3.27,15.81"/><path class="cls-5" d="M101.85,256.63c-1.51-.81-1.23-9.33-2.92-12.43a14.55,14.55,0,0,0-7.62-7,6.69,6.69,0,0,0-5.72.31,6.41,6.41,0,0,0-2.66,4.65,18.59,18.59,0,0,0,.18,5.42c-1.12-4.37-2.27-8.81-4.63-12.66a11.93,11.93,0,0,0-5.4-5c-2.32-.94-5.28-.62-6.93,1.27s-2,6.34.23,7.45c-3.83-1.59-7.85-3.22-12-2.86a9.52,9.52,0,0,0-8.14,5.81c-1.81,4.71-.56,9.63,3.85,12.34,3.54,2.17,7.86,2.52,12,2.8-2.5,0-4.18,4.14-3.54,6.56s3.14,4,5.64,4.24a12,12,0,0,0,7.09-2.11c3.83-2.38,6.85-5.85,9.8-9.25a18.25,18.25,0,0,0-2.59,4.77,6.41,6.41,0,0,0,.3,5.34,6.67,6.67,0,0,0,5,2.84,14.59,14.59,0,0,0,9.95-2.87c2.9-2,6.4-9.52,8.11-9.56Z"/><path class="cls-5" d="M62.23,247.89q22.6,6,45.73,9.77"/><path class="cls-5" d="M96.3,255.39a26.41,26.41,0,0,0-5.41-11.82"/><path class="cls-5" d="M94.34,255.57a13.61,13.61,0,0,1-8.09,9.77"/><path class="cls-5" d="M87.94,253.54a10.83,10.83,0,0,0-1.65-3.8"/><path class="cls-5" d="M79.51,251.7a18.92,18.92,0,0,0-7.86-10.88"/><path class="cls-5" d="M75.09,251.23a18.53,18.53,0,0,1-11.36,9.43"/><path class="cls-5" d="M68.15,249.12a22.44,22.44,0,0,0-9-8.4"/><path class="cls-5" d="M64.1,248.53a9.44,9.44,0,0,1-9.38,3.37"/><path class="cls-5" d="M-23.63,190c2.55,1.08,3.34,14.85,6.52,19.6s7.76,8.79,13.3,10.18c3.11.78,6.65.61,9.18-1.34A10.37,10.37,0,0,0,9,210.51a30,30,0,0,0-1.09-8.72c2.45,6.88,5,13.88,9.33,19.72,2.43,3.25,5.55,6.18,9.43,7.35s8.6.22,11-3.05,2.32-10.52-1.47-12c6.41,2,13.13,4,19.74,2.85a15.41,15.41,0,0,0,12.25-10.56c2.23-7.85-.51-15.59-8-19.31-6-3-13-2.9-19.74-2.76,4-.34,6.13-7.28,4.74-11.09s-5.65-6.05-9.71-6-7.87,2-11.1,4.44c-5.83,4.4-10.18,10.42-14.44,16.35a30.27,30.27,0,0,0,3.47-8.08,10.4,10.4,0,0,0-1.27-8.56c-1.9-2.58-5.25-3.73-8.44-3.84-5.71-.21-11.23,2.41-15.61,6.08s-8.91,16.28-11.66,16.6Z"/><path class="cls-5" d="M41.49,198.21q-37.3-6.36-75.12-9"/><path class="cls-5" d="M-11.38,190.56A22,22,0,0,1,.23,173.63"/><path class="cls-5" d="M-.77,192.89a17.66,17.66,0,0,0,3.21,5.88"/><path class="cls-5" d="M13.09,194.61A30.54,30.54,0,0,0,27.35,211"/><path class="cls-5" d="M20.28,194.73A29.92,29.92,0,0,1,37.2,177.87"/><path class="cls-5" d="M31.77,197.11a36.33,36.33,0,0,0,15.72,12.21"/><path class="cls-5" d="M38.38,197.47A15.27,15.27,0,0,1,53,190.65"/><path class="cls-5" d="M231.64,110.12c-2.39,1.41-13.91-6.18-19.61-6.46s-11.69,1-16.11,4.59c-2.48,2-4.46,5-4.41,8.16a10.38,10.38,0,0,0,4.17,7.59,29.82,29.82,0,0,0,7.65,4.34c-7-2.15-14.09-4.31-21.39-4.3-4.06,0-8.27.77-11.53,3.18s-5.31,6.77-4.11,10.64,7.06,8.14,10.48,6c-5.43,3.94-11.07,8.11-14.06,14.12-2.56,5.15-2.39,11.51,1.15,16.13,5,6.49,12.81,8.91,20.28,5.11,6-3,10.11-8.72,14-14.2-2.14,3.45,2.18,9.27,6.07,10.43s8.22-.92,10.6-4.21,3.1-7.5,3.07-11.56c0-7.3-2.28-14.38-4.49-21.34a29.88,29.88,0,0,0,4.41,7.6,10.36,10.36,0,0,0,7.62,4.1c3.2,0,6.12-2,8.13-4.48,3.57-4.45,4.76-10.45,4.44-16.15s-7.74-16.87-6.36-19.27Z"/><path class="cls-5" d="M186.13,157.43q27.39-26.13,52.1-54.87"/><path class="cls-5" d="M225.24,116.74a42.68,42.68,0,0,0-20.87-2.52"/><path class="cls-5" d="M223.84,119.59A22,22,0,0,1,230.49,139"/><path class="cls-5" d="M215.63,126.71a17.57,17.57,0,0,0-6.63-.93"/><path class="cls-5" d="M206,136.8a30.53,30.53,0,0,0-21.66,1.66"/><path class="cls-5" d="M201.59,142.5A29.89,29.89,0,0,1,205,166.14"/><path class="cls-5" d="M192.82,150.29a36.26,36.26,0,0,0-19.18,5.33"/><path class="cls-5" d="M188.59,155.38a15.27,15.27,0,0,1-3.27,15.8"/><path class="cls-4" d="M142.44-60c27.88,18.78,28.39,65.71,8.67,91.6C125.49,65.25,67.71,51.08,51,12.41,28.28-40.09,95-92,142.44-60Z"/><path class="cls-4" d="M73.42,19.1a25.17,25.17,0,0,0,3,2.28c4.14,2.69,7.91,1.37,11.2-1.83a61.81,61.81,0,0,0,9-11c1.59-2.51,3-5.55,2-8.35-2.39-6.67-13-7.16-18.83-7.4-5.27-.21-14.18-.73-16,5.7C61.85,5.22,67.75,14.08,73.42,19.1Z"/><path class="cls-6" d="M74.84,1.63a5.86,5.86,0,0,1-2.53.09A2.14,2.14,0,0,1,70.63,0a2.1,2.1,0,0,1,.94-1.79,5.34,5.34,0,0,1,1.94-.79C75.21-3,86.8-5.76,87.42-3.51,88.14-.93,76.4,1.33,74.84,1.63Z"/><path class="cls-6" d="M82,12a5.85,5.85,0,0,0-1.53,2,2.12,2.12,0,0,0,.43,2.36,2.1,2.1,0,0,0,2,.28,5.54,5.54,0,0,0,1.77-1.14C86,14.39,95,6.52,93.51,4.71,91.81,2.64,83.18,10.92,82,12Z"/><path class="cls-6" d="M76.75,10.92a5.89,5.89,0,0,1-2.36.94,2.13,2.13,0,0,1-2.15-1.06,2.12,2.12,0,0,1,.27-2,5.37,5.37,0,0,1,1.57-1.39c1.46-1,11.43-7.49,12.78-5.58C88.4,4,78.12,10.11,76.75,10.92Z"/><path class="cls-4" d="M107.35,1.45c.22-2,.44-4.17,2-5.44a7.41,7.41,0,0,1,3.86-1.28l24.58-3.26a3.58,3.58,0,0,1,2.13.14c1,.49,1.31,1.73,1.46,2.82.75,5.77-.67,11.67-3.09,17a36.92,36.92,0,0,1-13.87,16.26,28.05,28.05,0,0,1-12.24,4.05,21.5,21.5,0,0,1-9.81-1.15C99,29.17,98,26.66,99.68,23.45a106.12,106.12,0,0,0,5.12-10.37A46.15,46.15,0,0,0,107.35,1.45Z"/><path class="cls-6" d="M131-.94a3.62,3.62,0,0,1,1.53.32,1.31,1.31,0,0,1,.75,1.28,1.29,1.29,0,0,1-.82.94,3.46,3.46,0,0,1-1.28.19c-1.08,0-8.45,0-8.49-1.49C122.6-1.35,130-1,131-.94Z"/><path class="cls-6" d="M129.46,7.82a5.9,5.9,0,0,1,2.12,1.4,2.15,2.15,0,0,1,.36,2.37,2.11,2.11,0,0,1-1.8.92,5.19,5.19,0,0,1-2-.5c-1.63-.64-12.67-5.13-11.86-7.33C117.16,2.17,128,7.15,129.46,7.82Z"/><path class="cls-6" d="M123.88,17.34a5.84,5.84,0,0,1,1.67,1.9,2.13,2.13,0,0,1-.27,2.38,2.13,2.13,0,0,1-2,.42,5.53,5.53,0,0,1-1.84-1c-1.4-1.05-10.88-8.27-9.53-10.18C113.48,8.66,122.66,16.32,123.88,17.34Z"/><path class="cls-6" d="M114.28,22.26a3.66,3.66,0,0,1,.5,1.49,1.35,1.35,0,0,1-.73,1.29,1.32,1.32,0,0,1-1.23-.25,3.44,3.44,0,0,1-.8-1c-.55-.94-4.2-7.34-3-8.1C110.46,14.81,113.84,21.39,114.28,22.26Z"/><path class="cls-4" d="M109.84,46.16a45.94,45.94,0,0,0,30.38-10A45.86,45.86,0,0,0,156.5,8.64"/><path class="cls-4" d="M416.08,146.83c-1.34,33.59-41,58.66-73.41,55.47-42.09-4.15-60.36-60.76-36.23-95.29C339.21,60.12,418.37,89.67,416.08,146.83Z"/><path class="cls-4" d="M328,96.43c15.4-7.6,34.24-8.32,49.8-1.05s28.89,23.46,30.85,40.53-4.34,35.86-19.06,44.72"/><path class="cls-4" d="M312.53,129.62a26.17,26.17,0,0,0-.39,3.72c-.11,4.93,3,7.45,7.44,8.57a62.09,62.09,0,0,0,14.1,1.84c3,0,6.33-.32,8.18-2.64,4.43-5.54-.73-14.85-3.58-19.91-2.59-4.59-6.82-12.45-13.25-10.64C318.26,112.48,313.82,122.15,312.53,129.62Z"/><path class="cls-6" d="M328.14,121.65a5.93,5.93,0,0,1-1.41-2.11,2.12,2.12,0,0,1,.59-2.32,2.05,2.05,0,0,1,2-.15,5.28,5.28,0,0,1,1.69,1.24c1.25,1.23,9.69,9.64,8.1,11.35C337.29,131.62,329.21,122.82,328.14,121.65Z"/><path class="cls-6" d="M323.08,133.23a5.87,5.87,0,0,0-2.52-.25,2.14,2.14,0,0,0-1.78,1.61,2.07,2.07,0,0,0,.82,1.85,5.43,5.43,0,0,0,1.89.91c1.67.52,13.06,4,13.82,1.8C336.19,136.62,324.61,133.63,323.08,133.23Z"/><path class="cls-6" d="M321.24,128.15a5.81,5.81,0,0,1-2-1.51,2.15,2.15,0,0,1-.23-2.39,2.11,2.11,0,0,1,1.84-.82,5.5,5.5,0,0,1,2,.6c1.59.74,12.38,5.8,11.46,8C333.22,134.45,322.64,128.89,321.24,128.15Z"/><path class="cls-4" d="M351.28,106.55a25.56,25.56,0,0,0-3.28,1.8c-4.13,2.7-4.44,6.68-2.83,11A61.53,61.53,0,0,0,351.66,132c1.65,2.47,3.85,5,6.81,5.24,7.07.5,11.81-9,14.36-14.25,2.32-4.74,6.39-12.68,1.24-17C368.65,101.55,358.16,103.38,351.28,106.55Z"/><path class="cls-6" d="M366.7,114.88a5.91,5.91,0,0,1,.94-2.35,2.15,2.15,0,0,1,2.25-.84,2.13,2.13,0,0,1,1.27,1.58,5.46,5.46,0,0,1-.07,2.09c-.3,1.73-2.44,13.45-4.75,13.11C363.69,128.08,366.35,116.43,366.7,114.88Z"/><path class="cls-6" d="M354,119.32a3.83,3.83,0,0,0-.76-1.37,1.33,1.33,0,0,0-1.45-.34,1.3,1.3,0,0,0-.65,1.07,3.33,3.33,0,0,0,.2,1.28c.32,1,2.54,8,3.93,7.67C356.88,127.18,354.34,120.24,354,119.32Z"/><path class="cls-6" d="M357.43,112.89a5.82,5.82,0,0,1,.09-2.53,1.9,1.9,0,0,1,3.56-.5,5.8,5.8,0,0,1,.65,2c.29,1.73,2.24,13.48-.05,13.94C359.05,126.33,357.62,114.47,357.43,112.89Z"/><path class="cls-4" d="M395.14,146a26.52,26.52,0,0,0-.72-3.67c-1.34-4.75-5-6.25-9.63-6a61.21,61.21,0,0,0-14,2.37c-2.86.83-6,2.15-7,4.92-2.61,6.58,5.06,14,9.26,18,3.82,3.64,10.16,9.91,15.78,6.29C394.67,164,396.09,153.47,395.14,146Z"/><path class="cls-6" d="M380.59,158a3.57,3.57,0,0,1,1.21,1,1.3,1.3,0,0,1,.08,1.47,1.28,1.28,0,0,1-1.17.46,3.43,3.43,0,0,1-1.22-.43c-1-.5-7.47-3.94-6.84-5.24C373.37,153.79,379.75,157.53,380.59,158Z"/><path class="cls-6" d="M384,145.58a5.65,5.65,0,0,0,2.48-.5,1.89,1.89,0,0,0-.09-3.59,5.59,5.59,0,0,0-2.08-.31c-1.75,0-13.66,0-13.75,2.33C370.46,146.18,382.4,145.66,384,145.58Z"/><path class="cls-6" d="M387.24,149.9a5.86,5.86,0,0,1,2.39.85,2.14,2.14,0,0,1,.92,2.21,2.09,2.09,0,0,1-1.53,1.33,5.25,5.25,0,0,1-2.09,0c-1.74-.23-13.54-1.92-13.28-4.24C373.93,147.39,385.68,149.61,387.24,149.9Z"/><path class="cls-4" d="M345.36,149.22c1.79-.84,3.78-1.81,5.65-1.19a7.3,7.3,0,0,1,3.12,2.62l15.68,19.2a3.79,3.79,0,0,1,1,1.89,3.48,3.48,0,0,1-1.64,2.72c-4.52,3.67-10.28,5.56-16.06,6.27A36.85,36.85,0,0,1,332,177.47a28.08,28.08,0,0,1-9.87-8.3,21.58,21.58,0,0,1-4.17-8.95c-.59-3.58,1-5.72,4.66-6a105.69,105.69,0,0,0,11.51-1.09A46.07,46.07,0,0,0,345.36,149.22Z"/><path class="cls-6" d="M359.78,168.07a3.59,3.59,0,0,1,.54,1.47,1.33,1.33,0,0,1-.69,1.31,1.3,1.3,0,0,1-1.24-.21,3.32,3.32,0,0,1-.83-1c-.57-.92-4.4-7.21-3.19-8C355.75,160.74,359.31,167.21,359.78,168.07Z"/><path class="cls-6" d="M351.55,171.39a5.82,5.82,0,0,1-.09,2.53,2.14,2.14,0,0,1-1.83,1.56,2.09,2.09,0,0,1-1.72-1.06,5.3,5.3,0,0,1-.65-2c-.3-1.72-2.28-13.48,0-13.94C349.9,158,351.36,169.82,351.55,171.39Z"/><path class="cls-6" d="M340.51,171.63a5.84,5.84,0,0,1-.74,2.43,1.89,1.89,0,0,1-3.56-.45,5.49,5.49,0,0,1-.11-2.1c.16-1.74,1.33-13.6,3.66-13.45C342.44,158.23,340.74,170.06,340.51,171.63Z"/><path class="cls-6" d="M331.29,166.05a3.68,3.68,0,0,1-1,1.2,1.33,1.33,0,0,1-1.48.06,1.32,1.32,0,0,1-.44-1.17,3.33,3.33,0,0,1,.45-1.22c.51-.95,4-7.42,5.33-6.77C335.62,158.89,331.8,165.21,331.29,166.05Z"/><path class="cls-4" d="M308.61,174.82a45.48,45.48,0,0,0,56.43,20"/><path class="cls-4" d="M485.31,120.45c-29.3,16.49-71.47-4.13-85.75-33.36-18.57-38,20-83.27,62.08-80.86C518.75,9.5,535.16,92.39,485.31,120.45Z"/><path class="cls-4" d="M482,19c14.56,9.12,25.06,24.78,27,41.84s-4.8,36.9-18.3,47.52-32.8,15.13-48.06,7.26"/><path class="cls-4" d="M445.6,23.28a24.68,24.68,0,0,0-3.37,1.62c-4.26,2.5-4.78,6.46-3.39,10.83a61.2,61.2,0,0,0,5.84,13c1.52,2.55,3.59,5.22,6.54,5.58,7,.86,12.25-8.42,15.06-13.5,2.55-4.61,7-12.34,2.1-16.86C463.19,19.16,452.63,20.46,445.6,23.28Z"/><path class="cls-6" d="M460.57,32.38a5.77,5.77,0,0,1,1.06-2.3,1.89,1.89,0,0,1,3.47.91,5.34,5.34,0,0,1-.17,2.1c-.39,1.7-3.12,13.3-5.41,12.84C456.89,45.41,460.14,33.91,460.57,32.38Z"/><path class="cls-6" d="M448.06,34.16A5.85,5.85,0,0,0,447,31.88a2.15,2.15,0,0,0-2.31-.67,2.1,2.1,0,0,0-1.14,1.67,5.46,5.46,0,0,0,.22,2.08c.43,1.7,3.44,13.23,5.72,12.72C452.05,47.09,448.53,35.67,448.06,34.16Z"/><path class="cls-6" d="M451.42,29.92a5.83,5.83,0,0,1,.21-2.53,1.89,1.89,0,0,1,3.58-.31,5.46,5.46,0,0,1,.54,2C456,30.85,457.31,42.69,455,43,452.35,43.43,451.52,31.5,451.42,29.92Z"/><path class="cls-4" d="M485.57,44.16a24.64,24.64,0,0,0-3.25-1.86c-4.47-2.09-8-.26-10.84,3.36a61.54,61.54,0,0,0-7.36,12.17c-1.24,2.7-2.26,5.92-.88,8.55,3.28,6.28,13.89,5.31,19.66,4.74,5.25-.52,14.15-1.22,15.07-7.84C499,56.31,491.89,48.35,485.57,44.16Z"/><path class="cls-6" d="M486.58,61.65a5.8,5.8,0,0,1,2.49-.43,2.14,2.14,0,0,1,1.9,1.47,2.1,2.1,0,0,1-.68,1.9,5.26,5.26,0,0,1-1.82,1c-1.62.65-12.72,5-13.65,2.84C473.76,66,485.07,62.16,486.58,61.65Z"/><path class="cls-6" d="M476.13,53.18a3.67,3.67,0,0,0,.77-1.37,1.3,1.3,0,0,0-.47-1.4,1.27,1.27,0,0,0-1.25,0,3.27,3.27,0,0,0-1,.84c-.71.82-5.53,6.39-4.46,7.37C471,59.75,475.53,54,476.13,53.18Z"/><path class="cls-6" d="M483.41,52.72a5.85,5.85,0,0,1,2.2-1.26,2.14,2.14,0,0,1,2.28.75,2.1,2.1,0,0,1,0,2,5.59,5.59,0,0,1-1.35,1.6c-1.32,1.16-10.3,9-11.9,7.28C472.82,61.15,482.16,53.7,483.41,52.72Z"/><path class="cls-4" d="M475.06,102.16a24.58,24.58,0,0,0,2.75-2.54c3.34-3.63,2.67-7.57.06-11.34a61.27,61.27,0,0,0-9.38-10.7c-2.2-2-5-3.93-7.88-3.41-7,1.23-9.25,11.64-10.45,17.32-1.09,5.16-3.1,13.85,2.93,16.73C459.44,111.25,469.16,106.92,475.06,102.16Z"/><path class="cls-6" d="M457.15,96.12a3.52,3.52,0,0,1-.21,1.55,1.17,1.17,0,0,1-2.22.09,3.4,3.4,0,0,1-.27-1.27c-.08-1.08-.57-8.42.87-8.57C457,87.75,457.13,95.14,457.15,96.12Z"/><path class="cls-6" d="M469.52,92.48a5.79,5.79,0,0,0,1.73,1.85,2.12,2.12,0,0,0,2.4,0,2.1,2.1,0,0,0,.6-1.93,5.15,5.15,0,0,0-.82-1.93c-.91-1.5-7.16-11.64-9.19-10.48C461.91,81.28,468.63,91.17,469.52,92.48Z"/><path class="cls-6" d="M467.55,97.52a5.61,5.61,0,0,1,.53,2.47,1.89,1.89,0,0,1-3.32,1.35,5.59,5.59,0,0,1-1.12-1.78C462.93,98,458.17,87,460.28,86,462.7,84.87,467,96,467.55,97.52Z"/><path class="cls-4" d="M446.14,61.51c1.66,1.08,3.53,2.27,4,4.19a7.44,7.44,0,0,1-.59,4q-4.07,11.7-8.12,23.42A3.69,3.69,0,0,1,440.34,95a3.5,3.5,0,0,1-3.17,0c-5.5-1.92-10.13-5.83-13.77-10.38A36.85,36.85,0,0,1,415.09,65,28.07,28.07,0,0,1,417,52.21,21.38,21.38,0,0,1,422.4,44c2.73-2.38,5.41-2.11,7.53.83a104,104,0,0,0,7,9.22A45.78,45.78,0,0,0,446.14,61.51Z"/><path class="cls-6" d="M437.68,83.68a3.47,3.47,0,0,1-1,1.23,1.32,1.32,0,0,1-1.47.1,1.26,1.26,0,0,1-.47-1.16,3.42,3.42,0,0,1,.4-1.23c.49-1,3.83-7.53,5.14-6.92C441.8,76.4,438.16,82.83,437.68,83.68Z"/><path class="cls-6" d="M430.52,78.42a5.85,5.85,0,0,1-2.2,1.26,2.15,2.15,0,0,1-2.28-.75,2.1,2.1,0,0,1,0-2,5.47,5.47,0,0,1,1.36-1.6c1.31-1.16,10.28-9,11.88-7.3C441.1,70,431.76,77.43,430.52,78.42Z"/><path class="cls-6" d="M424.53,69.15a5.76,5.76,0,0,1-2.45.64,2.12,2.12,0,0,1-2-1.31,2.09,2.09,0,0,1,.52-2,5.3,5.3,0,0,1,1.72-1.19c1.57-.78,12.28-6,13.38-4C436.94,63.76,426,68.52,424.53,69.15Z"/><path class="cls-6" d="M424.43,58.37a3.55,3.55,0,0,1-1.55-.23,1.32,1.32,0,0,1-.82-1.23,1.28,1.28,0,0,1,.77-1,3.21,3.21,0,0,1,1.27-.26c1.08-.07,8.43-.46,8.56,1C432.8,58.3,425.41,58.36,424.43,58.37Z"/><path class="cls-4" d="M405.07,43.67a45.47,45.47,0,0,0,12.59,58.54"/><path class="cls-4" d="M61.18,139c-3.94,19.2-37,14.6-49.4,10.47A87.47,87.47,0,0,1-33,115.85c-1.42-2.11-2.72-5-1.16-7,1.16-1.49,3.45-1.62,5.17-.86a14.76,14.76,0,0,1,4.33,3.56c11,11.31,26.43,17.89,42.1,18.86A62.86,62.86,0,0,0,41,127.47c7.12-2.33,15.36-1.52,18.52,6.58a31.3,31.3,0,0,1,19.22,4.24c-.45,1.61-.56,3.2-1,4.81C72.23,140.5,67.07,137.5,61.18,139Z"/><path class="cls-4" d="M50.64,126.59c-1.93.63-3.92,3.8-2.88,5.53.51.84,1.49,1.49,1.5,2.47,0,1.33-1.68,1.83-2.81,2.55a4.19,4.19,0,0,0,.89,7.49c1.24.44,2.9.45,3.43,1.66a5.52,5.52,0,0,1,.15,1.91c0,.65.51,2.15,2,1.41"/><path class="cls-4" d="M34.82,148.91A89.57,89.57,0,0,1-22.41,122"/><path class="cls-4" d="M43.08,147.86l-2.54.42"/><path class="cls-4" d="M133.44,177.41c-12-1.91-10-22.46-7.79-30.22a54,54,0,0,1,19.54-28.55c1.26-.93,3-1.82,4.29-.91a2.74,2.74,0,0,1,.67,3.17,9.34,9.34,0,0,1-2.08,2.77,40,40,0,0,0-10.52,26.5A39,39,0,0,0,140,164.64c1.63,4.33,1.36,9.44-3.56,11.61a19.3,19.3,0,0,1-2.1,12c-1-.23-2-.26-3-.49C132.8,184.28,134.51,181,133.44,177.41Z"/><path class="cls-4" d="M140.8,170.57c-.43-1.17-2.44-2.32-3.49-1.63-.5.34-.87,1-1.48,1-.82,0-1.18-1-1.65-1.66a2.64,2.64,0,0,0-2.54-1.06,2.62,2.62,0,0,0-2.06,1.81c-.24.78-.2,1.8-.93,2.16a3.3,3.3,0,0,1-1.18.15c-.4,0-1.32.37-.82,1.3"/><path class="cls-4" d="M126.6,161.41a55.34,55.34,0,0,1,15.1-36.07"/><path class="cls-4" d="M127.47,166.48l-.33-1.56"/><path class="cls-4" d="M35.53,20.44C24.57,25.59,14.61,7.52,12.07-.14a54.07,54.07,0,0,1,.06-34.6c.52-1.48,1.47-3.2,3-3.17a2.72,2.72,0,0,1,2.33,2.24,9.18,9.18,0,0,1-.15,3.46A39.94,39.94,0,0,0,23.59-4.39,38.76,38.76,0,0,0,33.76,6.18c3.79,2.66,6.44,7,3.6,11.6a19.37,19.37,0,0,1,5,11.08c-1,.38-1.79.91-2.75,1.29C38.87,26.47,38.45,22.8,35.53,20.44Z"/><path class="cls-4" d="M37.77,10.63c-1-.72-3.33-.53-3.81.63-.23.56-.18,1.28-.66,1.65-.66.49-1.53-.16-2.3-.44a2.59,2.59,0,0,0-3.39,3.21c.25.77.86,1.6.45,2.3-.19.35-.58.53-.88.79s-.88,1.05.05,1.53"/><path class="cls-4" d="M20.86,11.06A55.33,55.33,0,0,1,13-27.24"/><path class="cls-4" d="M24.44,14.76l-1.15-1.1"/><path class="cls-4" d="M510.84,217c1.25,12.05-19.1,15.49-27.17,15.36A54.06,54.06,0,0,1,451,220.88c-1.23-1-2.54-2.45-2-3.91a2.72,2.72,0,0,1,2.89-1.47,9.19,9.19,0,0,1,3.21,1.29,40,40,0,0,0,28.32,3.28A38.93,38.93,0,0,0,496.8,214c3.75-2.7,8.76-3.76,12.14.43a19.3,19.3,0,0,1,12.11-1.08c0,1,.27,2,.3,3C517.63,215.82,514,215,510.84,217Z"/><path class="cls-4" d="M497.15,227.74a55.41,55.41,0,0,1-38.75-5.24"/><path class="cls-4" d="M501.82,225.58l-1.41.72"/><path class="cls-4" d="M264.3,38.46c-19.59.53-20.82,33.9-18.92,46.81a87.55,87.55,0,0,0,25.28,50c1.83,1.76,4.45,3.55,6.69,2.36,1.66-.88,2.2-3.11,1.75-4.94a14.84,14.84,0,0,0-2.75-4.89c-9.22-12.8-13-29.14-11.23-44.74a62.86,62.86,0,0,1,7-22.68c3.54-6.6,4.18-14.85-3.24-19.38a31.41,31.41,0,0,0-.83-19.66c-1.66.16-3.24,0-4.91.15C264.74,27.31,266.79,32.92,264.3,38.46Z"/><path class="cls-4" d="M274.67,51c-.95,1.79-4.42,3.2-5.95,1.87-.74-.64-1.2-1.72-2.16-1.9-1.32-.23-2.11,1.34-3,2.32a4.19,4.19,0,0,1-7.22-2.18c-.21-1.3.06-2.94-1-3.66a5.5,5.5,0,0,0-1.86-.49c-.63-.15-2-.88-1-2.26"/><path class="cls-4" d="M249.93,62.68a89.57,89.57,0,0,0,16.56,61.05"/><path class="cls-4" d="M252.41,54.73c-.28.81-.57,1.62-.86,2.43"/><path class="cls-4" d="M315.35,236.11c-8.39,17.72-39.42,5.38-50.47-1.58a87.47,87.47,0,0,1-35.51-43.28c-.87-2.38-1.45-5.51.54-7.08,1.48-1.16,3.74-.75,5.23.4a14.86,14.86,0,0,1,3.36,4.49c8,13.6,21.41,23.66,36.4,28.33a63.2,63.2,0,0,0,23.58,2.75c7.46-.58,15.28,2.16,16.43,10.78a31.32,31.32,0,0,1,17.65,8.69c-.81,1.46-1.3,3-2.12,4.43C325.72,240.22,321.42,236.08,315.35,236.11Z"/><path class="cls-4" d="M308.06,221.57c-2,.15-4.71,2.76-4.11,4.69.29.94,1.1,1.8.87,2.75-.32,1.29-2.07,1.38-3.33,1.81a4.2,4.2,0,0,0-.93,7.49c1.11.72,2.72,1.13,2.94,2.42a5.43,5.43,0,0,1-.3,1.9c-.12.63,0,2.21,1.65,1.86"/><path class="cls-4" d="M287.39,239.49a89.54,89.54,0,0,1-49.18-39.79"/><path class="cls-4" d="M295.66,240.43l-2.56-.19"/><path class="cls-4" d="M143,264.05c.38-19.59,33.74-21.07,46.67-19.26a87.41,87.41,0,0,1,50.14,24.91c1.78,1.81,3.59,4.42,2.41,6.67-.87,1.67-3.09,2.22-4.92,1.78a14.82,14.82,0,0,1-4.91-2.71c-12.87-9.12-29.24-12.79-44.83-10.9A62.9,62.9,0,0,0,165,271.71c-6.57,3.58-14.82,4.29-19.41-3.1a31.4,31.4,0,0,1-19.66-.68c.14-1.67,0-3.25.11-4.91C131.89,264.57,137.51,266.58,143,264.05Z"/><path class="cls-4" d="M155.65,274.32c1.78-1,3.17-4.44,1.83-6-.65-.73-1.74-1.19-1.92-2.15-.24-1.31,1.32-2.11,2.29-3a4.2,4.2,0,0,0-2.23-7.21c-1.3-.2-2.93.09-3.67-1a5.45,5.45,0,0,1-.5-1.85c-.16-.63-.89-2-2.27-1"/><path class="cls-4" d="M167.15,249.5a89.59,89.59,0,0,1,61.18,16.11"/><path class="cls-4" d="M159.22,252l2.42-.88"/><path class="cls-4" d="M234.35,234.65a7.7,7.7,0,0,1,5.51.11,9.26,9.26,0,0,1,6,8.94,8.06,8.06,0,0,1-7.47,7.38C230.81,251.25,226.8,237.62,234.35,234.65Z"/><path class="cls-4" d="M314.43,251.24a4.8,4.8,0,0,0-2.13,2.67,5.73,5.73,0,0,0,1.9,6.36,5,5,0,0,0,6.46-.64C323.72,256.11,318.82,248.82,314.43,251.24Z"/><path class="cls-4" d="M314.53,203.25a7.75,7.75,0,0,1,.14,5.51,9.28,9.28,0,0,1-8.68,6.36,8.08,8.08,0,0,1-7.7-7.14C297.79,200.44,311.24,195.84,314.53,203.25Z"/><path class="cls-4" d="M455,254.77a7.74,7.74,0,0,1-2.57,4.89A9.26,9.26,0,0,1,441.71,261a8.06,8.06,0,0,1-3.24-10C441.71,244.16,455.69,246.7,455,254.77Z"/><path class="cls-4" d="M211.27,183.75a4.83,4.83,0,0,1,3.41.07,5.71,5.71,0,0,1,3.68,5.53,5,5,0,0,1-4.61,4.56C209.08,194,206.6,185.59,211.27,183.75Z"/><path class="cls-4" d="M113,239.68a4.83,4.83,0,0,1,3.41.07,5.73,5.73,0,0,1,3.69,5.53,5,5,0,0,1-4.62,4.56C110.77,250,108.3,241.52,113,239.68Z"/><path class="cls-4" d="M452.38,136.85a3,3,0,0,1,.05,2.11,3.54,3.54,0,0,1-3.31,2.42,3.08,3.08,0,0,1-2.95-2.72C446,135.78,451.12,134,452.38,136.85Z"/><path class="cls-4" d="M324.07,213.61a4.83,4.83,0,0,1,3.41.07,5.73,5.73,0,0,1,3.69,5.53,5,5,0,0,1-4.62,4.56C321.88,223.88,319.41,215.45,324.07,213.61Z"/><path class="cls-4" d="M427.49,134.77a4.77,4.77,0,0,1,3.41.06,5.74,5.74,0,0,1,3.69,5.53,5,5,0,0,1-4.62,4.56C425.31,145,422.83,136.6,427.49,134.77Z"/><path class="cls-4" d="M268.79,262a4.77,4.77,0,0,1,3.41.06,5.74,5.74,0,0,1,3.69,5.53,5,5,0,0,1-4.62,4.56C266.6,272.21,264.12,263.78,268.79,262Z"/><path class="cls-4" d="M149.06,178.46a4.77,4.77,0,0,1,3.41.06,5.72,5.72,0,0,1,3.68,5.53,5,5,0,0,1-4.61,4.56C146.87,188.72,144.39,180.29,149.06,178.46Z"/><path class="cls-4" d="M228.6,85.83a4.77,4.77,0,0,1,3.41.06,5.74,5.74,0,0,1,3.69,5.53A5,5,0,0,1,231.08,96C226.41,96.09,223.94,87.66,228.6,85.83Z"/><path class="cls-4" d="M231.63,166.07a3,3,0,0,1,1.07,1.82,3.53,3.53,0,0,1-1.71,3.73,3.09,3.09,0,0,1-3.9-1C225.52,168.25,229.15,164.21,231.63,166.07Z"/><path class="cls-4" d="M433.29,170.07a3,3,0,0,1,1.07,1.82,3.53,3.53,0,0,1-1.71,3.73,3.09,3.09,0,0,1-3.9-1C427.18,172.25,430.81,168.21,433.29,170.07Z"/><path class="cls-4" d="M394.63,265.67a3,3,0,0,1,1.07,1.81,3.53,3.53,0,0,1-1.71,3.73,3.08,3.08,0,0,1-3.9-.94C388.52,267.84,392.15,263.81,394.63,265.67Z"/><path class="cls-4" d="M388.43,42.41a3,3,0,0,1,1.07,1.81A3.55,3.55,0,0,1,387.79,48a3.09,3.09,0,0,1-3.9-1C382.32,44.59,386,40.55,388.43,42.41Z"/><path class="cls-4" d="M134.93,64A3,3,0,0,1,136,65.86a3.53,3.53,0,0,1-1.71,3.73,3.09,3.09,0,0,1-3.9-1C128.82,66.22,132.45,62.18,134.93,64Z"/><path class="cls-4" d="M249.52,28.07a3,3,0,0,1,1.07,1.82,3.53,3.53,0,0,1-1.71,3.73,3.08,3.08,0,0,1-3.9-.94C243.41,30.25,247,26.22,249.52,28.07Z"/><path class="cls-4" d="M110,150.31a3,3,0,0,1,1.07,1.81,3.54,3.54,0,0,1-1.71,3.74,3.09,3.09,0,0,1-3.9-1C103.88,152.49,107.51,148.45,110,150.31Z"/><path class="cls-4" d="M287.37,110.24a3,3,0,0,1,1.08,1.81,3.56,3.56,0,0,1-1.72,3.74,3.08,3.08,0,0,1-3.89-1C281.27,112.42,284.9,108.38,287.37,110.24Z"/><path class="cls-4" d="M98.78,64.72a2.9,2.9,0,0,1,1.07,1.82,3.52,3.52,0,0,1-1.71,3.73,3.07,3.07,0,0,1-3.89-1C92.68,66.9,96.3,62.86,98.78,64.72Z"/></g></g><g class="cls-2"><g class="cls-7"><path class="cls-4" d="M343.43,514.15c-5.74,5.24-11.67,10.28-16.08,15.89a102,102,0,0,0-18.92,39.39C305.92,580,306,591,305.87,601.82c-.13,9.08,1.43,20.73-7.11,26.63-16.41,11.35-24.7-12.54-27.72-24.6-12-47.68-6.19-110.92,45.19-133.06,10.28-4.42,23.62-8.12,34.7-4.64,8.83,2.78,12.76,10.69,11.51,19.52C360.77,497.49,352.32,506.05,343.43,514.15Z"/><path class="cls-4" d="M351.8,489.29a3.09,3.09,0,1,0-4.07,3.24"/><path class="cls-4" d="M317.06,494.67a3.86,3.86,0,1,1-7.06-2.83"/><path class="cls-4" d="M327.71,475.67a2.14,2.14,0,1,1-3.95,1.44"/><path class="cls-4" d="M347.78,465.79a2.76,2.76,0,0,1-5.45-.42"/><path class="cls-4" d="M308,474.82a3.42,3.42,0,0,0-3.59-2,4.51,4.51,0,0,0-3.4,2.6,6.85,6.85,0,0,0-.39,4.36"/><path class="cls-4" d="M286.29,493.25a4.68,4.68,0,0,0-4.69,7.08"/><path class="cls-4" d="M138.07,497.15c4.72.91,9.41,2,13.82,2.11a63,63,0,0,0,26.5-5.15c6.18-2.67,11.59-6.77,17-10.69,4.55-3.29,9.75-8.36,15.83-6.3,11.68,3.95,2.89,16.87-2,22.82-19.23,23.52-52.71,44-82.65,26.69-6-3.46-12.74-8.71-15.1-15.49-1.89-5.4.59-10.27,5.43-12.91C123.42,494.7,130.78,495.73,138.07,497.15Z"/><path class="cls-4" d="M131.27,495.7a1.74,1.74,0,0,1,1.9-1.16,1.76,1.76,0,0,1,1.41,1.72"/><path class="cls-4" d="M155.84,499.14a1.44,1.44,0,1,1,2.84-.37"/><path class="cls-4" d="M180.15,499.51a1.24,1.24,0,1,1,2.31.5"/><path class="cls-4" d="M194.77,495.85a1.22,1.22,0,1,0-.44,2.24"/><path class="cls-4" d="M203,496.06a1.1,1.1,0,1,1-1.12,1.86"/><path class="cls-4" d="M200.4,485.64a1.2,1.2,0,1,0-.26,2.19"/><path class="cls-4" d="M210.34,480.91a.76.76,0,1,1,.29,1.37"/><path class="cls-4" d="M201.77,478.43a1.73,1.73,0,0,0-2.66,2.15"/><path class="cls-4" d="M211.66,496.7a1.76,1.76,0,0,1-1.53,2.93"/><path class="cls-4" d="M180.06,492.92a1.71,1.71,0,0,0-2.94,1.41"/><path class="cls-4" d="M2.94,322.47c-4.57-1.47-9.09-3.1-13.46-3.74a62.88,62.88,0,0,0-26.93,1.95c-6.45,1.91-12.31,5.33-18.16,8.57-4.91,2.72-10.68,7.14-16.47,4.37-11.12-5.31-.86-17.09,4.68-22.42,21.9-21.06,57.59-37.39,85.24-16.64,5.53,4.15,11.61,10.17,13.15,17.19,1.23,5.59-1.81,10.12-6.93,12.17C17.21,326.65,10,324.75,2.94,322.47Z"/><path class="cls-4" d="M9.53,324.72a1.76,1.76,0,0,1-2,.93,1.77,1.77,0,0,1-1.19-1.89"/><path class="cls-4" d="M18.85,319.32a2,2,0,0,0,.58-2.42,1.91,1.91,0,0,0-3.57,1.23"/><path class="cls-4" d="M5.29,302.34a2.38,2.38,0,1,1-.65-4.65"/><path class="cls-4" d="M18.75,302.22a1.32,1.32,0,1,1-2-1.68"/><path class="cls-4" d="M30.21,309.94a1.75,1.75,0,0,1-2-.9,1.77,1.77,0,0,1,.6-2.15"/><path class="cls-4" d="M13.14,291.36a2.12,2.12,0,0,0,0-2.55,2.83,2.83,0,0,0-2.44-1,4.2,4.2,0,0,0-2.46,1.14"/><path class="cls-4" d="M500.76,293.46c4.4,1.92,8.75,4,13,5.06a63.07,63.07,0,0,0,27,.74c6.61-1.26,12.77-4.08,18.92-6.73,5.16-2.22,11.33-6,16.82-2.71,10.54,6.39-.84,17.1-6.88,21.85-23.89,18.78-61,31.48-86.48,8.08-5.09-4.68-10.54-11.27-11.37-18.41-.67-5.68,2.81-9.89,8.1-11.42C487,287.89,494,290.49,500.76,293.46Z"/><path class="cls-4" d="M494.43,290.56a1.7,1.7,0,0,1,3.11,1.28"/><path class="cls-4" d="M484.62,295a1.91,1.91,0,1,0,2.85,1.48"/><path class="cls-4" d="M496.43,313.26a2.38,2.38,0,1,1,.18,4.69"/><path class="cls-4" d="M483,312a1.32,1.32,0,1,1,1.8,1.87"/><path class="cls-4" d="M472.38,303.21a1.71,1.71,0,0,1,1.14,3.18"/><path class="cls-4" d="M487.53,323.4a2.14,2.14,0,0,0-.25,2.55,2.85,2.85,0,0,0,2.33,1.26,4.23,4.23,0,0,0,2.56-.89"/><path class="cls-4" d="M400.38,398.08c-1.09-4.68-2-9.4-3.72-13.47a63,63,0,0,0-15.53-22.1c-5-4.55-10.9-7.81-16.69-11.16-4.86-2.81-11.61-5.48-12.22-11.87-1.16-12.28,14.22-9.53,21.64-7.52,29.32,7.94,61.68,30.14,58.11,64.54-.71,6.88-2.75,15.18-8,20.11-4.16,3.93-9.62,3.66-14,.32C404.13,412.46,402.06,405.32,400.38,398.08Z"/><path class="cls-4" d="M401.83,404.89a1.7,1.7,0,0,1-.83-3.26"/><path class="cls-4" d="M411.26,410.1a1.91,1.91,0,0,0,2-3.22,2,2,0,0,0-2.49,0"/><path class="cls-4" d="M406.42,389.11a2.87,2.87,0,0,0-.06-5.39,3,3,0,0,0-3.17.89"/><path class="cls-4" d="M394.94,381a1.44,1.44,0,1,1-1.5-2.43"/><path class="cls-4" d="M418.84,389.74a2.39,2.39,0,1,1,3.66-3"/><path class="cls-4" d="M425.87,401.22a1.32,1.32,0,1,1,.42-2.57"/><path class="cls-4" d="M425.14,415a1.71,1.71,0,0,1,1.88-2.81"/><path class="cls-4" d="M432.3,390.82a2.13,2.13,0,0,0,2.18-1.33,2.79,2.79,0,0,0-.38-2.61,4.18,4.18,0,0,0-2.23-1.53"/><path class="cls-4" d="M423,373.5a1.07,1.07,0,1,1,.77-2"/><path class="cls-4" d="M406.67,371.41a1.8,1.8,0,0,1,.25-2.13,1.82,1.82,0,0,1,2.13-.3"/><path class="cls-4" d="M397.62,372.87a1.34,1.34,0,1,1-1.4-2.21"/><path class="cls-4" d="M400.6,355.85a1.21,1.21,0,0,1,.37-1.48,1.2,1.2,0,0,1,1.52.18"/><path class="cls-4" d="M408.88,357.06a1.89,1.89,0,0,1,2.43-.43A1.92,1.92,0,0,1,412,359"/><path class="cls-4" d="M393.85,363.11a.86.86,0,1,1,.13-1.42"/><path class="cls-4" d="M393.67,345.93a1.12,1.12,0,1,1,1.5-.36"/><path class="cls-4" d="M385.35,358.71a1.25,1.25,0,1,1-.49-2.32"/><path class="cls-4" d="M376,346.85a1.22,1.22,0,1,0,2.23-.51"/><path class="cls-4" d="M372.89,339.3a1.1,1.1,0,1,1,2.15.26"/><path class="cls-4" d="M364.42,345.89a1.2,1.2,0,1,0,2.1-.66"/><path class="cls-4" d="M356,338.74a.76.76,0,1,1,1.14-.82"/><path class="cls-4" d="M357.28,347.58a1.74,1.74,0,0,0,3.05,1.55"/><path class="cls-4" d="M369.92,331.09a1.78,1.78,0,0,1,1.72-1,1.8,1.8,0,0,1,1.58,1.25"/><path class="cls-4" d="M379.37,361.48a1.76,1.76,0,0,0,.48,2,1.78,1.78,0,0,0,2,.15"/><path class="cls-4" d="M404.94,345.85a4.22,4.22,0,0,0-1-2.43,1.46,1.46,0,0,0-2.27.18"/><path class="cls-4" d="M420.88,360.4a1.56,1.56,0,0,0,.79-1.75,2.2,2.2,0,0,0-1.4-1.46,3.7,3.7,0,0,0-2.06-.05"/><path class="cls-4" d="M428.9,373.57a3,3,0,0,0,.29-3.1,2.94,2.94,0,0,0-2.69-1.56"/><path class="cls-5" d="M393.51,442.6c-.61,1.8-10,3-13.13,5.44s-5.65,5.75-6.33,9.62a7.42,7.42,0,0,0,1.37,6.24A7.15,7.15,0,0,0,381,466a20.47,20.47,0,0,0,5.93-1.17c-4.6,2-9.28,4.07-13.08,7.36a13.33,13.33,0,0,0-4.58,6.83c-.62,2.73.27,5.92,2.63,7.4s7.34,1.07,8.15-1.6c-1.06,4.5-2.13,9.21-1,13.68a10.59,10.59,0,0,0,7.84,7.89c5.5,1.15,10.68-1.11,12.87-6.44,1.75-4.27,1.35-9.09.92-13.69.44,2.76,5.3,3.86,7.85,2.72s3.87-4.18,3.64-7a13.38,13.38,0,0,0-3.59-7.4c-3.31-3.79-7.65-6.48-11.93-9.11a20.49,20.49,0,0,0,5.71,2,7.13,7.13,0,0,0,5.82-1.29,7.45,7.45,0,0,0,2.22-6c-.13-3.93-2.2-7.59-4.94-10.41s-11.6-5.32-12-7.19Z"/><path class="cls-5" d="M391,487.69q2.54-25.9,2.52-52"/><path class="cls-5" d="M393.14,448.92a29.42,29.42,0,0,0-12,8.06"/><path class="cls-5" d="M393.7,451a15.13,15.13,0,0,1,12.18,7.13"/><path class="cls-5" d="M392.61,458.43a12,12,0,0,0-3.87,2.49"/><path class="cls-5" d="M392.11,468a21,21,0,0,0-10.54,10.59"/><path class="cls-5" d="M392.38,473a20.57,20.57,0,0,1,12.4,10.78"/><path class="cls-5" d="M391.31,481a25,25,0,0,0-7.61,11.39"/><path class="cls-5" d="M391.39,485.52a10.52,10.52,0,0,1,5.39,9.71"/><path class="cls-5" d="M244,421.32c-.51-1.84,6.6-8.13,7.81-11.87s1.45-7.94-.16-11.52a7.44,7.44,0,0,0-4.64-4.39,7.11,7.11,0,0,0-5.78,1.41,20.39,20.39,0,0,0-4.25,4.3c2.67-4.25,5.38-8.58,6.68-13.44a13.37,13.37,0,0,0,0-8.23c-1-2.59-3.55-4.73-6.34-4.63s-6.67,3.23-5.84,5.89c-1.65-4.32-3.41-8.81-6.87-11.87a10.59,10.59,0,0,0-10.92-2.13c-5.19,2.14-8.21,6.92-7,12.56,1,4.52,4,8.27,6.92,11.84-1.91-2-6.55-.21-8,2.16s-.86,5.63.9,7.8a13.31,13.31,0,0,0,7.13,4.11c4.85,1.28,10,1.06,15,.84a20.7,20.7,0,0,0-5.84,1.57,7.11,7.11,0,0,0-4.09,4.33,7.45,7.45,0,0,0,1.52,6.2c2.32,3.17,6.09,5,9.93,5.84s12.59-2.12,13.94-.77Z"/><path class="cls-5" d="M220.76,382.62q12.45,22.86,27.11,44.43"/><path class="cls-5" d="M240.78,415.88a29.3,29.3,0,0,0,5.42-13.41"/><path class="cls-5" d="M239.14,414.44a15.14,15.14,0,0,1-14.09.94"/><path class="cls-5" d="M235.88,407.72a12,12,0,0,0,1.81-4.24"/><path class="cls-5" d="M230.91,399.49a21.05,21.05,0,0,0,2.78-14.68"/><path class="cls-5" d="M227.91,395.56a20.6,20.6,0,0,1-16.32-2"/><path class="cls-5" d="M224.3,388.33a24.88,24.88,0,0,0-.1-13.69"/><path class="cls-5" d="M221.68,384.61a10.5,10.5,0,0,1-9.91-5"/><path class="cls-5" d="M78.82,375.4c.45-1.85,9.73-3.88,12.6-6.56s5.14-6.22,5.48-10.14A7.46,7.46,0,0,0,95,352.61,7.13,7.13,0,0,0,89.25,351a20.4,20.4,0,0,0-5.81,1.69c4.41-2.41,8.89-4.87,12.39-8.48a13.32,13.32,0,0,0,4-7.21c.38-2.76-.79-5.86-3.27-7.13s-7.4-.43-8,2.3c.67-4.57,1.32-9.36-.2-13.72a10.61,10.61,0,0,0-8.5-7.18c-5.58-.66-10.54,2-12.26,7.54-1.37,4.41-.55,9.17.27,13.72-.67-2.71-5.61-3.38-8-2s-3.49,4.49-3,7.24A13.39,13.39,0,0,0,61,344.84c3.62,3.48,8.19,5.78,12.68,8a20.6,20.6,0,0,0-5.87-1.49,7.14,7.14,0,0,0-5.68,1.79,7.48,7.48,0,0,0-1.69,6.16c.48,3.9,2.86,7.36,5.82,9.94s12,4.29,12.55,6.12Z"/><path class="cls-5" d="M77.36,330.26q-.27,26,2,52"/><path class="cls-5" d="M78.63,369.07A29.38,29.38,0,0,0,89.9,360"/><path class="cls-5" d="M77.9,367A15.11,15.11,0,0,1,65.14,361"/><path class="cls-5" d="M78.33,359.55A12.09,12.09,0,0,0,82,356.73"/><path class="cls-5" d="M78,350a21,21,0,0,0,9.58-11.47"/><path class="cls-5" d="M77.3,345.05A20.58,20.58,0,0,1,64,335.38"/><path class="cls-5" d="M77.67,337a24.93,24.93,0,0,0,6.59-12"/><path class="cls-5" d="M77.2,332.46a10.5,10.5,0,0,1-6.22-9.2"/><path class="cls-5" d="M282.18,339.87c1.44,1.23-.9,10.43.2,14.2s3.26,7.38,6.6,9.45a7.44,7.44,0,0,0,6.3,1,7.13,7.13,0,0,0,4-4.41,20.39,20.39,0,0,0,1.1-5.95c.17,5,.36,10.13,2,14.87a13.33,13.33,0,0,0,4.66,6.79c2.3,1.58,5.6,1.93,7.85.28s3.7-6.42,1.52-8.16c3.79,2.65,7.77,5.38,12.35,6A10.58,10.58,0,0,0,339,369.56c3.1-4.69,2.91-10.34-1.24-14.34-3.32-3.2-7.94-4.61-12.37-5.91,2.72.61,5.53-3.5,5.41-6.29s-2.44-5.14-5.11-5.95a13.32,13.32,0,0,0-8.21.6c-4.74,1.67-8.84,4.72-12.87,7.72a20.81,20.81,0,0,0,3.95-4.58,7.1,7.1,0,0,0,.95-5.87,7.42,7.42,0,0,0-4.73-4.28c-3.7-1.33-7.87-.75-11.51.74s-9.22,8.83-11.09,8.47Z"/><path class="cls-5" d="M323.16,358.82Q300,346.9,275.78,337.28"/><path class="cls-5" d="M287.92,342.54A29.23,29.23,0,0,0,291,356.68"/><path class="cls-5" d="M290.08,342.81a15.16,15.16,0,0,1,11.14-8.69"/><path class="cls-5" d="M296.56,346.55a12.08,12.08,0,0,0,.88,4.52"/><path class="cls-5" d="M305.29,350.56a21,21,0,0,0,5.94,13.71"/><path class="cls-5" d="M310,352.13a20.58,20.58,0,0,1,14.6-7.54"/><path class="cls-5" d="M317,356.08a25,25,0,0,0,7.77,11.28"/><path class="cls-5" d="M321.28,357.69a10.52,10.52,0,0,1,11-1.43"/><path class="cls-5" d="M148.46,298.12c-1.18,1.5-10.47-.44-14.19.82s-7.23,3.58-9.15,7a7.48,7.48,0,0,0-.75,6.34,7.11,7.11,0,0,0,4.59,3.8,20.1,20.1,0,0,0,6,.84c-5,.39-10.1.81-14.76,2.66a13.34,13.34,0,0,0-6.58,5c-1.48,2.37-1.68,5.67.06,7.85s6.57,3.42,8.22,1.17c-2.48,3.9-5,8-5.43,12.6a10.61,10.61,0,0,0,4.82,10c4.81,2.89,10.45,2.45,14.27-1.86,3.06-3.47,4.26-8.14,5.36-12.63-.49,2.75,3.74,5.38,6.52,5.14s5-2.67,5.72-5.37a13.27,13.27,0,0,0-.95-8.17c-1.88-4.66-5.1-8.63-8.27-12.53a20.51,20.51,0,0,0,4.74,3.76,7.14,7.14,0,0,0,5.91.69,7.45,7.45,0,0,0,4.07-4.92c1.16-3.76.41-7.89-1.25-11.46s-9.21-8.83-8.93-10.72Z"/><path class="cls-5" d="M131.3,339.9q10.92-23.64,19.46-48.28"/><path class="cls-5" d="M146,304a29.4,29.4,0,0,0-14,3.67"/><path class="cls-5" d="M145.86,306.15A15.16,15.16,0,0,1,155,316.9"/><path class="cls-5" d="M142.41,312.78a12.12,12.12,0,0,0-4.48,1.08"/><path class="cls-5" d="M138.78,321.68a21,21,0,0,0-13.43,6.54"/><path class="cls-5" d="M137.41,326.44a20.5,20.5,0,0,1,8.17,14.25"/><path class="cls-5" d="M133.77,333.64a24.93,24.93,0,0,0-10.92,8.26"/><path class="cls-5" d="M132.35,338a10.51,10.51,0,0,1,1.91,10.94"/><path class="cls-5" d="M489.73,525.15c-1.34-2.52,7-14.06,7.54-19.93s-.47-12.1-4-16.82c-2-2.64-4.92-4.81-8.22-4.9a10.68,10.68,0,0,0-8,3.95,31,31,0,0,0-4.82,7.69c2.53-7.1,5.08-14.33,5.39-21.86.17-4.18-.42-8.56-2.76-12s-6.74-5.78-10.78-4.71-8.71,6.91-6.63,10.54c-3.82-5.78-7.87-11.79-13.94-15.14-5.18-2.87-11.75-3-16.68.46-6.91,4.83-9.76,12.81-6.18,20.68,2.87,6.31,8.54,10.82,14,15.07-3.46-2.35-9.65,1.84-11,5.79s.58,8.52,3.86,11.12,7.6,3.54,11.78,3.69c7.53.28,14.93-1.71,22.21-3.67a30.81,30.81,0,0,0-8,4.2c-2.46,1.85-4.42,4.6-4.57,7.68-.16,3.3,1.77,6.4,4.25,8.57,4.44,3.89,10.56,5.39,16.46,5.31s17.74-7.22,20.15-5.69Z"/><path class="cls-5" d="M443,476.11q25.71,29.4,54.23,56.17"/><path class="cls-5" d="M483.19,518.25a44,44,0,0,0,3.54-21.4"/><path class="cls-5" d="M463.38,497.49a31.51,31.51,0,0,0-.74-22.4"/><path class="cls-5" d="M457.7,492.71a30.88,30.88,0,0,1-24.53,2.47"/><path class="cls-5" d="M450.06,483.32a37.49,37.49,0,0,0-4.63-20"/><path class="cls-5" d="M445,478.73a15.77,15.77,0,0,1-16.15-4.08"/><path class="cls-5" d="M-21.35,431.86c2.46-1.45,14.35,6.39,20.24,6.67s12.06-1,16.62-4.73c2.56-2.09,4.6-5.13,4.55-8.43,0-3.07-1.91-5.89-4.3-7.83a30.9,30.9,0,0,0-7.89-4.47c7.2,2.21,14.53,4.45,22.07,4.43,4.18,0,8.53-.79,11.9-3.28s5.48-7,4.24-11-7.28-8.4-10.82-6.17c5.61-4.06,11.43-8.37,14.51-14.58,2.64-5.3,2.47-11.87-1.19-16.64-5.12-6.69-13.22-9.19-20.92-5.27-6.18,3.14-10.44,9-14.45,14.65,2.2-3.56-2.25-9.57-6.26-10.77s-8.49,1-10.95,4.35-3.2,7.74-3.17,11.93c.06,7.53,2.36,14.85,4.64,22a30.6,30.6,0,0,0-4.55-7.85,10.67,10.67,0,0,0-7.87-4.23c-3.3,0-6.31,2.05-8.38,4.62-3.69,4.6-4.92,10.79-4.58,16.67s8,17.41,6.56,19.88Z"/><path class="cls-5" d="M25.61,383q-28.26,27-53.76,56.63"/><path class="cls-5" d="M-14.75,425a44.21,44.21,0,0,0,21.54,2.6"/><path class="cls-5" d="M-4.83,414.75a18.24,18.24,0,0,0,6.84,1"/><path class="cls-5" d="M5.13,404.33a31.45,31.45,0,0,0,22.35-1.71"/><path class="cls-5" d="M9.66,398.45a30.84,30.84,0,0,1-3.54-24.39"/><path class="cls-5" d="M18.71,390.41a37.43,37.43,0,0,0,19.79-5.5"/><path class="cls-5" d="M23.07,385.16a15.77,15.77,0,0,1,3.38-16.31"/><path class="cls-5" d="M402.89,308.07c1.56.83,1.27,9.62,3,12.82a15,15,0,0,0,7.86,7.24,6.93,6.93,0,0,0,5.91-.32,6.62,6.62,0,0,0,2.74-4.8,19.14,19.14,0,0,0-.18-5.6c1.15,4.51,2.34,9.1,4.78,13.06a12.27,12.27,0,0,0,5.57,5.22c2.39,1,5.45.64,7.16-1.31s2.07-6.54-.25-7.69c4,1.65,8.11,3.33,12.37,2.95a9.81,9.81,0,0,0,8.39-6c1.88-4.86.58-9.94-4-12.74-3.65-2.24-8.11-2.59-12.38-2.89,2.59,0,4.31-4.27,3.65-6.77s-3.24-4.17-5.82-4.37a12.35,12.35,0,0,0-7.31,2.18c-3.95,2.45-7.07,6-10.12,9.55a19.36,19.36,0,0,0,2.68-4.93,6.64,6.64,0,0,0-.31-5.52,7,7,0,0,0-5.15-2.93,15,15,0,0,0-10.26,3c-3,2.07-6.6,9.82-8.37,9.87Z"/><path class="cls-5" d="M443.78,317.08q-23.32-6.19-47.2-10.08"/><path class="cls-5" d="M408.62,309.35a27.25,27.25,0,0,0,5.58,12.19"/><path class="cls-5" d="M410.64,309.16A14,14,0,0,1,419,299.08"/><path class="cls-5" d="M417.24,311.26a11,11,0,0,0,1.71,3.91"/><path class="cls-5" d="M426,313.15a19.44,19.44,0,0,0,8.11,11.23"/><path class="cls-5" d="M430.51,313.64a19.07,19.07,0,0,1,11.72-9.73"/><path class="cls-5" d="M437.67,315.82a23.17,23.17,0,0,0,9.28,8.66"/><path class="cls-5" d="M441.84,316.43a9.76,9.76,0,0,1,9.69-3.49"/><path class="cls-5" d="M532.39,376.87c-2.64-1.11-3.45-15.32-6.74-20.21s-8-9.08-13.72-10.52c-3.21-.8-6.86-.62-9.47,1.39a10.74,10.74,0,0,0-3.72,8.13,31.17,31.17,0,0,0,1.12,9c-2.52-7.1-5.11-14.32-9.62-20.35-2.51-3.35-5.73-6.38-9.74-7.59s-8.87-.23-11.34,3.15-2.39,10.86,1.52,12.37c-6.61-2.08-13.55-4.17-20.37-2.94-5.83,1.05-11,5.11-12.64,10.89-2.3,8.1.53,16.09,8.27,19.93,6.21,3.08,13.45,3,20.38,2.84-4.17.36-6.33,7.52-4.9,11.46s5.84,6.23,10,6.18,8.13-2.06,11.47-4.58c6-4.54,10.5-10.75,14.9-16.87a30.86,30.86,0,0,0-3.58,8.33,10.7,10.7,0,0,0,1.3,8.84c2,2.66,5.42,3.85,8.72,4,5.89.21,11.59-2.5,16.1-6.28s9.2-16.8,12-17.14Z"/><path class="cls-5" d="M465.18,368.35q38.51,6.57,77.53,9.32"/><path class="cls-5" d="M494.49,372.07a31.49,31.49,0,0,0-14.72-16.91"/><path class="cls-5" d="M487.07,371.94a30.86,30.86,0,0,1-17.46,17.41"/><path class="cls-5" d="M475.21,369.49A37.46,37.46,0,0,0,459,356.89"/><path class="cls-5" d="M468.4,369.12a15.78,15.78,0,0,1-15.1,7"/><path class="cls-5" d="M269,459.26c2.46-1.45,14.35,6.38,20.24,6.67s12.06-1,16.63-4.74c2.55-2.09,4.59-5.12,4.54-8.42a10.7,10.7,0,0,0-4.3-7.83,30.94,30.94,0,0,0-7.89-4.48c7.2,2.22,14.53,4.45,22.07,4.43,4.18,0,8.53-.79,11.9-3.28s5.48-7,4.24-11-7.28-8.4-10.82-6.16c5.61-4.07,11.43-8.38,14.52-14.58,2.63-5.31,2.46-11.88-1.2-16.65-5.12-6.69-13.22-9.19-20.92-5.27-6.18,3.14-10.43,9-14.45,14.65,2.2-3.56-2.25-9.56-6.26-10.76s-8.49.95-10.94,4.34-3.2,7.75-3.18,11.93c.06,7.54,2.36,14.85,4.64,22a30.94,30.94,0,0,0-4.55-7.85,10.7,10.7,0,0,0-7.87-4.23c-3.3,0-6.31,2.05-8.38,4.63-3.69,4.59-4.92,10.78-4.58,16.67s8,17.4,6.56,19.88Z"/><path class="cls-5" d="M315.91,410.44q-28.26,27-53.76,56.62"/><path class="cls-5" d="M275.55,452.43a44.09,44.09,0,0,0,21.54,2.6"/><path class="cls-5" d="M277,449.49a22.73,22.73,0,0,1-6.87-20"/><path class="cls-5" d="M285.47,442.14a17.88,17.88,0,0,0,6.84,1"/><path class="cls-5" d="M295.43,431.73A31.51,31.51,0,0,0,317.78,430"/><path class="cls-5" d="M300,425.85a30.82,30.82,0,0,1-3.53-24.4"/><path class="cls-5" d="M309,417.8a37.48,37.48,0,0,0,19.8-5.49"/><path class="cls-5" d="M313.38,412.56a15.76,15.76,0,0,1,3.37-16.32"/><path class="cls-4" d="M78.61,421.38C80,386.71,121,360.84,154.36,364.13c43.44,4.28,62.3,62.71,37.4,98.34C157.94,510.86,76.24,480.37,78.61,421.38Z"/><path class="cls-4" d="M169.52,473.39c-15.89,7.84-35.34,8.59-51.39,1.08S88.31,450.26,86.3,432.65s4.48-37,19.66-46.15"/><path class="cls-4" d="M185.47,439.14a25.07,25.07,0,0,0,.4-3.84c.12-5.09-3.08-7.69-7.68-8.84a63.73,63.73,0,0,0-14.55-1.9c-3.07,0-6.53.33-8.44,2.72-4.57,5.71.76,15.33,3.7,20.55,2.66,4.74,7,12.85,13.67,11C179.55,456.83,184.14,446.85,185.47,439.14Z"/><path class="cls-6" d="M169.36,447.36a6,6,0,0,1,1.45,2.18,2.21,2.21,0,0,1-.6,2.4,2.16,2.16,0,0,1-2.08.15,5.49,5.49,0,0,1-1.75-1.28c-1.28-1.27-10-9.95-8.35-11.72C159.91,437.07,168.26,446.16,169.36,447.36Z"/><path class="cls-6" d="M174.58,435.41a6.12,6.12,0,0,0,2.61.26A2.21,2.21,0,0,0,179,434a2.16,2.16,0,0,0-.84-1.91,5.56,5.56,0,0,0-2-.94c-1.72-.54-13.48-4.14-14.26-1.86C161.06,431.91,173,435,174.58,435.41Z"/><path class="cls-6" d="M176.49,440.65a6.14,6.14,0,0,1,2.1,1.56,2.24,2.24,0,0,1,.24,2.47,2.18,2.18,0,0,1-1.91.84,5.51,5.51,0,0,1-2.07-.62c-1.64-.75-12.78-6-11.82-8.2C164.11,434.16,175,439.89,176.49,440.65Z"/><path class="cls-4" d="M145.47,463a25.3,25.3,0,0,0,3.39-1.86c4.26-2.79,4.58-6.9,2.93-11.34a63.69,63.69,0,0,0-6.7-13.06c-1.71-2.55-4-5.19-7-5.4-7.3-.52-12.19,9.32-14.82,14.7-2.39,4.89-6.59,13.09-1.28,17.49C127.55,468.11,138.38,466.22,145.47,463Z"/><path class="cls-6" d="M129.56,454.35a5.87,5.87,0,0,1-1,2.43,2.2,2.2,0,0,1-2.32.86A2.15,2.15,0,0,1,125,456a5.67,5.67,0,0,1,.06-2.17c.32-1.78,2.52-13.88,4.91-13.53C132.67,440.73,129.93,452.75,129.56,454.35Z"/><path class="cls-6" d="M142.67,449.77a3.55,3.55,0,0,0,.78,1.41,1.36,1.36,0,0,0,1.49.35,1.35,1.35,0,0,0,.67-1.1,3.35,3.35,0,0,0-.21-1.32c-.32-1.07-2.61-8.31-4.05-7.91C139.7,441.66,142.32,448.82,142.67,449.77Z"/><path class="cls-6" d="M139.13,456.4A6.24,6.24,0,0,1,139,459a2.2,2.2,0,0,1-1.89,1.59,2.15,2.15,0,0,1-1.78-1.08,5.55,5.55,0,0,1-.67-2.06c-.31-1.78-2.32-13.92.05-14.39C137.46,442.53,138.94,454.78,139.13,456.4Z"/><path class="cls-4" d="M100.22,422.29a26.81,26.81,0,0,0,.74,3.79c1.38,4.9,5.2,6.44,9.93,6.2a63,63,0,0,0,14.48-2.45c2.94-.85,6.14-2.22,7.27-5.07,2.69-6.8-5.22-14.43-9.55-18.56-3.94-3.76-10.49-10.23-16.29-6.49C100.7,403.64,99.24,414.53,100.22,422.29Z"/><path class="cls-6" d="M115.23,409.83a3.8,3.8,0,0,1-1.25-1,1.35,1.35,0,0,1-.08-1.52,1.33,1.33,0,0,1,1.2-.47,3.44,3.44,0,0,1,1.27.44c1,.52,7.71,4.07,7,5.41C122.68,414.2,116.1,410.34,115.23,409.83Z"/><path class="cls-6" d="M111.72,422.66a6,6,0,0,0-2.56.52,2.22,2.22,0,0,0-1.27,2.13,2.17,2.17,0,0,0,1.37,1.57,5.52,5.52,0,0,0,2.14.33c1.81,0,14.1,0,14.19-2.4C125.68,422.05,113.36,422.59,111.72,422.66Z"/><path class="cls-6" d="M108.37,418.21a6.15,6.15,0,0,1-2.47-.88,2.2,2.2,0,0,1-1-2.28,2.16,2.16,0,0,1,1.58-1.37,5.81,5.81,0,0,1,2.16,0c1.79.25,14,2,13.71,4.39C122.1,420.8,110,418.51,108.37,418.21Z"/><path class="cls-4" d="M151.59,418.91c-1.84.87-3.9,1.87-5.84,1.23a7.66,7.66,0,0,1-3.21-2.7l-16.18-19.82a3.79,3.79,0,0,1-1-1.95c-.1-1.13.8-2.09,1.69-2.8,4.66-3.79,10.6-5.74,16.57-6.48a38,38,0,0,1,21.79,3.37,28.89,28.89,0,0,1,10.19,8.56,22.23,22.23,0,0,1,4.31,9.24c.6,3.69-1.08,5.9-4.82,6.16a109.8,109.8,0,0,0-11.87,1.12A47.47,47.47,0,0,0,151.59,418.91Z"/><path class="cls-6" d="M136.7,399.46a3.82,3.82,0,0,1-.55-1.52,1.37,1.37,0,0,1,.72-1.35,1.34,1.34,0,0,1,1.27.21,3.72,3.72,0,0,1,.86,1c.58.95,4.54,7.44,3.3,8.26C140.87,407,137.19,400.35,136.7,399.46Z"/><path class="cls-6" d="M145.2,396a6,6,0,0,1,.09-2.61,2.19,2.19,0,0,1,1.89-1.6A2.17,2.17,0,0,1,149,392.9a5.49,5.49,0,0,1,.67,2.06c.31,1.78,2.35,13.91,0,14.39C146.9,409.9,145.4,397.66,145.2,396Z"/><path class="cls-6" d="M156.59,395.78a6,6,0,0,1,.77-2.5,2.2,2.2,0,0,1,2.24-1,2.17,2.17,0,0,1,1.43,1.51,5.46,5.46,0,0,1,.11,2.17c-.16,1.79-1.37,14-3.78,13.88C154.61,409.61,156.35,397.4,156.59,395.78Z"/><path class="cls-6" d="M166.11,401.54a3.79,3.79,0,0,1,1-1.24,1.36,1.36,0,0,1,1.53-.05,1.32,1.32,0,0,1,.45,1.2,3.36,3.36,0,0,1-.46,1.26c-.53,1-4.17,7.66-5.5,7C161.64,408.93,165.59,402.41,166.11,401.54Z"/><path class="cls-4" d="M189.51,392.5a46.92,46.92,0,0,0-58.23-20.66"/><path class="cls-4" d="M7.16,448.6c30.24-17,73.76,4.26,88.5,34.43C114.81,522.25,75,569,31.59,566.48-27.35,563.1-44.29,477.56,7.16,448.6Z"/><path class="cls-4" d="M10.63,553.29c-15-9.41-25.87-25.57-27.91-43.18s5-38.08,18.89-49.05,33.85-15.61,49.6-7.49"/><path class="cls-4" d="M6.89,527.34a26.78,26.78,0,0,0,3.35,1.91c4.62,2.16,8.28.27,11.19-3.47A63.41,63.41,0,0,0,29,513.23c1.28-2.79,2.33-6.11.91-8.83-3.39-6.47-14.33-5.47-20.3-4.89-5.41.53-14.59,1.26-15.55,8.1C-6.92,514.8.37,523,6.89,527.34Z"/><path class="cls-4" d="M17.74,467.47a26.38,26.38,0,0,0-2.84,2.63c-3.44,3.75-2.76,7.81-.07,11.71a64,64,0,0,0,9.69,11c2.27,2.06,5.11,4.06,8.13,3.53,7.2-1.28,9.55-12,10.79-17.88,1.12-5.32,3.2-14.3-3-17.27C33.86,458.09,23.82,462.57,17.74,467.47Z"/><path class="cls-6" d="M36.22,473.71a3.75,3.75,0,0,1,.22-1.6,1.2,1.2,0,0,1,2.28-.09,3.25,3.25,0,0,1,.29,1.31c.08,1.11.59,8.69-.9,8.84C36.41,482.34,36.24,474.72,36.22,473.71Z"/><path class="cls-6" d="M23.46,477.46a6.17,6.17,0,0,0-1.79-1.91,2.24,2.24,0,0,0-2.48,0,2.19,2.19,0,0,0-.62,2,5.48,5.48,0,0,0,.85,2c.94,1.55,7.39,12,9.49,10.82C31.31,489,24.38,478.82,23.46,477.46Z"/><path class="cls-6" d="M25.49,472.27a5.88,5.88,0,0,1-.55-2.56,2.2,2.2,0,0,1,1.44-2,2.15,2.15,0,0,1,2,.63,5.45,5.45,0,0,1,1.15,1.83c.74,1.65,5.65,12.93,3.47,14C30.49,485.32,26.07,473.8,25.49,472.27Z"/><path class="cls-4" d="M47.58,509.42c-1.71-1.11-3.64-2.33-4.11-4.32a7.5,7.5,0,0,1,.61-4.15l8.37-24.17a3.85,3.85,0,0,1,1.12-1.91c.92-.68,2.2-.41,3.28,0,5.67,2,10.45,6,14.2,10.7a38.07,38.07,0,0,1,8.58,20.32A29,29,0,0,1,77.69,519a22.26,22.26,0,0,1-5.6,8.51c-2.83,2.46-5.59,2.18-7.78-.86a107.16,107.16,0,0,0-7.18-9.51A47.53,47.53,0,0,0,47.58,509.42Z"/><path class="cls-6" d="M56.32,486.55a3.58,3.58,0,0,1,1-1.27,1.36,1.36,0,0,1,1.53-.1,1.32,1.32,0,0,1,.48,1.19,3.4,3.4,0,0,1-.42,1.27c-.5,1-3.95,7.77-5.3,7.14C52.06,494.06,55.82,487.43,56.32,486.55Z"/><path class="cls-6" d="M63.7,492a6,6,0,0,1,2.27-1.3,2.2,2.2,0,0,1,2.35.77,2.14,2.14,0,0,1,0,2.08,5.42,5.42,0,0,1-1.4,1.66c-1.35,1.19-10.6,9.29-12.25,7.53C52.79,500.71,62.42,493,63.7,492Z"/><path class="cls-4" d="M90,527.83a46.92,46.92,0,0,0-13-60.4"/><path class="cls-4" d="M444.87,429.47c4.06-19.81,38.19-15.06,51-10.79a90.27,90.27,0,0,1,46.22,34.67c1.46,2.17,2.8,5.16,1.19,7.23-1.19,1.53-3.55,1.67-5.33.88a15.27,15.27,0,0,1-4.47-3.67c-11.35-11.67-27.27-18.46-43.45-19.47a65.17,65.17,0,0,0-24.3,3c-7.35,2.41-15.85,1.58-19.12-6.78a32.3,32.3,0,0,1-19.83-4.38c.46-1.66.58-3.3,1-5C433.46,427.91,438.79,431,444.87,429.47Z"/><path class="cls-4" d="M455.74,442.26c2-.64,4.05-3.91,3-5.71-.52-.86-1.54-1.53-1.54-2.54,0-1.37,1.73-1.89,2.89-2.63a4.34,4.34,0,0,0-.91-7.74c-1.29-.44-3-.46-3.54-1.7a5.66,5.66,0,0,1-.16-2c0-.66-.53-2.22-2.11-1.46"/><path class="cls-4" d="M472.06,419.23a92.39,92.39,0,0,1,59.07,27.82"/><path class="cls-4" d="M463.54,420.32l2.62-.44"/><path class="cls-4" d="M370.29,389.82c12.35,2,10.33,23.18,8,31.18a55.74,55.74,0,0,1-20.16,29.47c-1.31,1-3.11,1.88-4.43.94a2.8,2.8,0,0,1-.69-3.27,9.32,9.32,0,0,1,2.15-2.86,41.29,41.29,0,0,0,10.85-27.35A40.44,40.44,0,0,0,363.52,403c-1.69-4.47-1.4-9.74,3.67-12a20,20,0,0,1,2.17-12.37c1,.24,2.05.27,3.09.51C371,382.73,369.18,386.11,370.29,389.82Z"/><path class="cls-4" d="M362.69,396.88c.45,1.21,2.53,2.39,3.6,1.68.52-.35.91-1,1.53-1,.85,0,1.22,1,1.71,1.71a2.72,2.72,0,0,0,2.61,1.1,2.75,2.75,0,0,0,2.14-1.87c.24-.81.2-1.86,1-2.23a3.73,3.73,0,0,1,1.21-.16c.41,0,1.36-.38.84-1.33"/><path class="cls-4" d="M377.35,406.34a57,57,0,0,1-15.59,37.21"/><path class="cls-4" d="M376.45,401.1c.11.54.23,1.07.34,1.61"/><path class="cls-4" d="M-19.18,349c-1.3-12.44,19.7-16,28-15.86A55.74,55.74,0,0,1,42.54,345c1.27,1,2.62,2.52,2.05,4a2.79,2.79,0,0,1-3,1.51,9.42,9.42,0,0,1-3.32-1.33A41.19,41.19,0,0,0,9.07,345.8a40,40,0,0,0-13.76,6.31c-3.88,2.78-9,3.88-12.53-.44a20,20,0,0,1-12.5,1.11c0-1.06-.28-2-.32-3.12C-26.2,350.18-22.48,351-19.18,349Z"/><path class="cls-4" d="M-5.06,337.88a57.18,57.18,0,0,1,40,5.4"/><path class="cls-4" d="M235.24,533.22c20.22-.55,21.49-35,19.52-48.32a90.27,90.27,0,0,0-26.08-51.55c-1.89-1.82-4.59-3.66-6.91-2.44-1.71.91-2.26,3.22-1.8,5.1a15.34,15.34,0,0,0,2.84,5.05c9.51,13.2,13.42,30.07,11.59,46.17a65,65,0,0,1-7.23,23.4c-3.65,6.81-4.31,15.33,3.35,20a32.32,32.32,0,0,0,.85,20.29c1.72-.17,3.35,0,5.07-.16C234.79,544.72,232.67,538.94,235.24,533.22Z"/><path class="cls-4" d="M250.07,508.22a92.38,92.38,0,0,0-17.09-63"/><path class="cls-4" d="M182.56,329.24c8.66-18.28,40.68-5.55,52.08,1.63a90.25,90.25,0,0,1,36.65,44.67c.9,2.46,1.5,5.68-.56,7.3-1.52,1.2-3.85.78-5.39-.41a15.3,15.3,0,0,1-3.47-4.63c-8.25-14-22.1-24.42-37.57-29.24A64.89,64.89,0,0,0,200,345.73c-7.71.59-15.77-2.24-16.95-11.13a32.41,32.41,0,0,1-18.22-9c.84-1.51,1.34-3.07,2.18-4.57C171.85,325,176.29,329.28,182.56,329.24Z"/><path class="cls-4" d="M190.08,344.24c2.09-.15,4.86-2.84,4.24-4.83-.29-1-1.13-1.86-.89-2.84.32-1.34,2.14-1.43,3.44-1.87a4.33,4.33,0,0,0,.95-7.73c-1.14-.74-2.8-1.16-3-2.5a5.58,5.58,0,0,1,.31-2c.12-.65,0-2.28-1.7-1.92"/><path class="cls-4" d="M211.42,325.75a92.46,92.46,0,0,1,50.75,41.07"/><path class="cls-4" d="M202.88,324.78l2.65.2"/><path class="cls-4" d="M360.38,300.4c-.39,20.22-34.82,21.76-48.16,19.88a90.24,90.24,0,0,1-51.75-25.7c-1.83-1.87-3.7-4.57-2.49-6.89.9-1.72,3.2-2.29,5.09-1.83a15.25,15.25,0,0,1,5.06,2.79c13.28,9.42,30.17,13.2,46.26,11.26a65.18,65.18,0,0,0,23.35-7.4c6.78-3.71,15.3-4.43,20,3.19a32.3,32.3,0,0,1,20.29.71c-.15,1.71,0,3.35-.11,5.06C371.89,299.87,366.09,297.8,360.38,300.4Z"/><path class="cls-4" d="M347.37,289.81c-1.84,1-3.27,4.58-1.89,6.15.67.75,1.8,1.22,2,2.22.25,1.35-1.36,2.17-2.36,3.11a4.33,4.33,0,0,0,2.3,7.44c1.34.21,3-.09,3.79,1a5.75,5.75,0,0,1,.52,1.91c.16.65.92,2.09,2.33,1.05"/><path class="cls-4" d="M335.5,315.42a92.36,92.36,0,0,1-63.13-16.63"/><path class="cls-4" d="M343.68,312.8l-2.49.91"/><path class="cls-4" d="M266.16,330.74a8,8,0,0,1-5.7-.1,9.57,9.57,0,0,1-6.16-9.23,8.34,8.34,0,0,1,7.71-7.62C269.81,313.61,273.94,327.68,266.16,330.74Z"/><path class="cls-4" d="M183.51,313.63a5,5,0,0,0,2.19-2.76,5.9,5.9,0,0,0-2-6.57,5.14,5.14,0,0,0-6.66.67C173.92,308.61,179,316.12,183.51,313.63Z"/><path class="cls-4" d="M183.4,363.15a8,8,0,0,1-.14-5.69,9.55,9.55,0,0,1,9-6.55,8.32,8.32,0,0,1,7.94,7.36C200.68,366.05,186.8,370.8,183.4,363.15Z"/><path class="cls-4" d="M38.49,310a8,8,0,0,1,2.65-5,9.55,9.55,0,0,1,11-1.36,8.33,8.33,0,0,1,3.35,10.31C52.16,320.93,37.73,318.31,38.49,310Z"/><path class="cls-4" d="M290,383.27a5,5,0,0,1-3.52-.06,5.92,5.92,0,0,1-3.8-5.71,5.15,5.15,0,0,1,4.76-4.71C292.23,372.68,294.78,381.38,290,383.27Z"/><path class="cls-4" d="M391.42,325.55a4.94,4.94,0,0,1-3.51-.06,5.92,5.92,0,0,1-3.81-5.71,5.15,5.15,0,0,1,4.76-4.71C393.68,315,396.24,323.66,391.42,325.55Z"/><path class="cls-4" d="M41.15,431.68a3.09,3.09,0,0,1-.06-2.18,3.65,3.65,0,0,1,3.42-2.5,3.18,3.18,0,0,1,3,2.81C47.75,432.79,42.44,434.6,41.15,431.68Z"/><path class="cls-4" d="M173.56,352.46a5,5,0,0,1-3.52-.07,5.9,5.9,0,0,1-3.8-5.71A5.13,5.13,0,0,1,171,342C175.82,341.87,178.37,350.56,173.56,352.46Z"/><path class="cls-4" d="M66.83,433.82a5,5,0,0,1-3.52-.06,5.93,5.93,0,0,1-3.81-5.71,5.16,5.16,0,0,1,4.77-4.71C69.08,423.24,71.64,431.93,66.83,433.82Z"/><path class="cls-4" d="M230.61,302.58a5,5,0,0,1-3.52-.07,5.9,5.9,0,0,1-3.8-5.71,5.13,5.13,0,0,1,4.76-4.7C232.87,292,235.42,300.68,230.61,302.58Z"/><path class="cls-4" d="M354.17,388.74a5,5,0,0,1-3.52-.07,5.9,5.9,0,0,1-3.8-5.7,5.14,5.14,0,0,1,4.76-4.71C356.43,378.15,359,386.85,354.17,388.74Z"/><path class="cls-4" d="M272.09,484.33a5,5,0,0,1-3.52-.06,5.91,5.91,0,0,1-3.81-5.71,5.15,5.15,0,0,1,4.76-4.71C274.34,473.74,276.9,482.44,272.09,484.33Z"/><path class="cls-4" d="M269,401.52a3,3,0,0,1-1.11-1.87,3.67,3.67,0,0,1,1.77-3.86,3.18,3.18,0,0,1,4,1C275.26,399.27,271.52,403.44,269,401.52Z"/><path class="cls-4" d="M60.85,397.39a3,3,0,0,1-1.11-1.87,3.64,3.64,0,0,1,1.77-3.85,3.17,3.17,0,0,1,4,1C67.15,395.14,63.41,399.31,60.85,397.39Z"/><path class="cls-4" d="M100.75,298.74a3,3,0,0,1-1.11-1.87,3.67,3.67,0,0,1,1.77-3.86,3.19,3.19,0,0,1,4,1C107.05,296.49,103.3,300.66,100.75,298.74Z"/><path class="cls-4" d="M368.75,506.82a3.08,3.08,0,0,1-1.1-1.88,3.64,3.64,0,0,1,1.76-3.85,3.18,3.18,0,0,1,4,1C375.05,504.57,371.31,508.73,368.75,506.82Z"/><path class="cls-4" d="M394.49,417.79a3.15,3.15,0,0,1-1.11-1.88,3.66,3.66,0,0,1,1.77-3.85,3.18,3.18,0,0,1,4,1C400.79,415.54,397.05,419.7,394.49,417.79Z"/><path class="cls-4" d="M211.43,459.14a3.09,3.09,0,0,1-1.11-1.87,3.64,3.64,0,0,1,1.77-3.85,3.17,3.17,0,0,1,4,1C217.73,456.89,214,461.06,211.43,459.14Z"/><path class="cls-4" d="M406.06,506.11a3,3,0,0,1-1.11-1.87,3.65,3.65,0,0,1,1.77-3.85,3.17,3.17,0,0,1,4,1C412.36,503.87,408.61,508,406.06,506.11Z"/></g></g></g></svg>